<ttFont>
<head>
    <!-- Most of this table will be recalculated by the compiler -->
    <tableVersion value="1.0"/>
    <fontRevision value="1.301"/>
    <checkSumAdjustment value="0x3213f5fb"/>
    <magicNumber value="0x5f0f3cf5"/>
    <flags value="00000000 00001011"/>
    <unitsPerEm value="1000"/>
    <created value="Tue Jul  1 21:12:00 2008"/>
    <modified value="Thu Mar  6 18:33:56 2014"/>
    <xMin value="-237"/>
    <yMin value="-288"/>
    <xMax value="1341"/>
    <yMax value="1108"/>
    <macStyle value="00000000 00000000"/>
    <lowestRecPPEM value="9"/>
    <fontDirectionHint value="2"/>
    <indexToLocFormat value="0"/>
    <glyphDataFormat value="0"/>
  </head>
    <TTGlyph name="A" xMin="5" yMin="0" xMax="676" yMax="746">
      <contour>
        <pt x="590" y="0" on="1"/>
        <pt x="503" y="203" on="1"/>
        <pt x="175" y="203" on="1"/>
        <pt x="88" y="0" on="1"/>
        <pt x="5" y="0" on="1"/>
        <pt x="334" y="746" on="1"/>
        <pt x="347" y="746" on="1"/>
        <pt x="676" y="0" on="1"/>
      </contour>
      <contour>
        <pt x="339" y="585" on="1"/>
        <pt x="204" y="270" on="1"/>
        <pt x="474" y="270" on="1"/>
      </contour>
    </TTGlyph>
    <TTGlyph name="AE" xMin="0" yMin="0" xMax="955" yMax="733">
      <contour>
        <pt x="526" y="0" on="1"/>
        <pt x="526" y="236" on="1"/>
        <pt x="259" y="236" on="1"/>
        <pt x="92" y="0" on="1"/>
        <pt x="0" y="0" on="1"/>
        <pt x="526" y="733" on="1"/>
        <pt x="955" y="733" on="1"/>
        <pt x="955" y="661" on="1"/>
        <pt x="606" y="661" on="1"/>
        <pt x="606" y="408" on="1"/>
        <pt x="920" y="408" on="1"/>
        <pt x="920" y="336" on="1"/>
        <pt x="606" y="336" on="1"/>
        <pt x="606" y="72" on="1"/>
        <pt x="955" y="72" on="1"/>
        <pt x="955" y="0" on="1"/>
      </contour>
      <contour>
        <pt x="526" y="612" on="1"/>
        <pt x="307" y="303" on="1"/>
        <pt x="526" y="303" on="1"/>
      </contour>
    </TTGlyph>
    <TTGlyph name="AEacute" xMin="0" yMin="0" xMax="955" yMax="963">
      <component glyphName="AE" x="0" y="0" flags="0x204"/>
      <component glyphName="acute" x="486" y="320" flags="0x4"/>
    </TTGlyph>
    <TTGlyph name="Aacute" xMin="5" yMin="0" xMax="676" yMax="963">
      <component glyphName="A" x="0" y="0" flags="0x204"/>
      <component glyphName="acute" x="174" y="320" flags="0x4"/>
    </TTGlyph>
    <TTGlyph name="Abreve" xMin="5" yMin="0" xMax="676" yMax="925">
      <component glyphName="A" x="0" y="0" flags="0x204"/>
      <component glyphName="breve" x="120" y="320" flags="0x4"/>
    </TTGlyph>
    <TTGlyph name="Acircumflex" xMin="5" yMin="0" xMax="676" yMax="969">
      <component glyphName="A" x="0" y="0" flags="0x204"/>
      <component glyphName="circumflex" x="117" y="320" flags="0x4"/>
    </TTGlyph>
    <TTGlyph name="Adieresis" xMin="5" yMin="0" xMax="676" yMax="915">
      <component glyphName="A" x="0" y="0" flags="0x204"/>
      <component glyphName="dieresis" x="120" y="320" flags="0x4"/>
    </TTGlyph>
    <TTGlyph name="Agrave" xMin="5" yMin="0" xMax="676" yMax="961">
      <component glyphName="A" x="0" y="0" flags="0x204"/>
      <component glyphName="grave" x="55" y="320" flags="0x4"/>
    </TTGlyph>
    <TTGlyph name="Amacron" xMin="5" yMin="0" xMax="676" yMax="888">
      <component glyphName="A" x="0" y="0" flags="0x204"/>
      <component glyphName="macron" x="120" y="320" flags="0x4"/>
    </TTGlyph>
    <TTGlyph name="Aogonek" xMin="5" yMin="-220" xMax="685" yMax="746">
      <contour>
        <pt x="685" y="-168" on="1"/>
        <pt x="665" y="-194" on="0"/>
        <pt x="623" y="-218" on="0"/>
        <pt x="595" y="-219" on="1"/>
        <pt x="557" y="-220" on="0"/>
        <pt x="512" y="-173" on="0"/>
        <pt x="513" y="-138" on="1"/>
        <pt x="513" y="-124" on="0"/>
        <pt x="521" y="-96" on="0"/>
        <pt x="538" y="-63" on="0"/>
        <pt x="567" y="-25" on="0"/>
        <pt x="590" y="0" on="1"/>
        <pt x="503" y="203" on="1"/>
        <pt x="175" y="203" on="1"/>
        <pt x="88" y="0" on="1"/>
        <pt x="5" y="0" on="1"/>
        <pt x="334" y="746" on="1"/>
        <pt x="347" y="746" on="1"/>
        <pt x="676" y="0" on="1"/>
        <pt x="644" y="0" on="1"/>
        <pt x="607" y="-45" on="0"/>
        <pt x="576" y="-105" on="0"/>
        <pt x="576" y="-128" on="1"/>
        <pt x="576" y="-147" on="0"/>
        <pt x="594" y="-167" on="0"/>
        <pt x="608" y="-167" on="1"/>
        <pt x="621" y="-167" on="0"/>
        <pt x="641" y="-155" on="0"/>
        <pt x="655" y="-140" on="1"/>
      </contour>
      <contour>
        <pt x="339" y="585" on="1"/>
        <pt x="204" y="270" on="1"/>
        <pt x="474" y="270" on="1"/>
      </contour>
    </TTGlyph>
    <TTGlyph name="Aring" xMin="5" yMin="0" xMax="676" yMax="912">
      <contour>
        <pt x="447" y="809" on="1"/>
        <pt x="447" y="771" on="0"/>
        <pt x="403" y="715" on="0"/>
        <pt x="363" y="708" on="1"/>
        <pt x="676" y="0" on="1"/>
        <pt x="590" y="0" on="1"/>
        <pt x="503" y="203" on="1"/>
        <pt x="175" y="203" on="1"/>
        <pt x="88" y="0" on="1"/>
        <pt x="5" y="0" on="1"/>
        <pt x="317" y="709" on="1"/>
        <pt x="278" y="716" on="0"/>
        <pt x="235" y="771" on="0"/>
        <pt x="235" y="809" on="1"/>
        <pt x="235" y="852" on="0"/>
        <pt x="291" y="912" on="0"/>
        <pt x="341" y="912" on="1"/>
        <pt x="391" y="912" on="0"/>
        <pt x="447" y="852" on="0"/>
      </contour>
      <contour>
        <pt x="339" y="585" on="1"/>
        <pt x="204" y="270" on="1"/>
        <pt x="474" y="270" on="1"/>
      </contour>
      <contour>
        <pt x="392" y="810" on="1"/>
        <pt x="392" y="835" on="0"/>
        <pt x="363" y="867" on="0"/>
        <pt x="341" y="867" on="1"/>
        <pt x="319" y="867" on="0"/>
        <pt x="290" y="836" on="0"/>
        <pt x="290" y="810" on="1"/>
        <pt x="290" y="784" on="0"/>
        <pt x="319" y="753" on="0"/>
        <pt x="341" y="753" on="1"/>
        <pt x="363" y="753" on="0"/>
        <pt x="392" y="784" on="0"/>
      </contour>
    </TTGlyph>
    <TTGlyph name="Aringacute" xMin="5" yMin="0" xMax="676" yMax="1108">
      <component glyphName="Aring" x="0" y="0" flags="0x204"/>
      <component glyphName="acute" x="174" y="465" flags="0x4"/>
    </TTGlyph>
    <TTGlyph name="Atilde" xMin="5" yMin="0" xMax="676" yMax="912">
      <component glyphName="A" x="0" y="0" flags="0x204"/>
      <component glyphName="tilde" x="124" y="320" flags="0x4"/>
    </TTGlyph>
    <TTGlyph name="B" xMin="80" yMin="-6" xMax="524" yMax="738">
      <contour>
        <pt x="524" y="199" on="1"/>
        <pt x="524" y="160" on="0"/>
        <pt x="489" y="86" on="0"/>
        <pt x="422" y="29" on="0"/>
        <pt x="322" y="-6" on="0"/>
        <pt x="257" y="-6" on="1"/>
        <pt x="212" y="-6" on="0"/>
        <pt x="121" y="1" on="0"/>
        <pt x="80" y="6" on="1"/>
        <pt x="80" y="726" on="1"/>
        <pt x="121" y="731" on="0"/>
        <pt x="205" y="738" on="0"/>
        <pt x="250" y="738" on="1"/>
        <pt x="315" y="738" on="0"/>
        <pt x="411" y="706" on="0"/>
        <pt x="474" y="653" on="0"/>
        <pt x="505" y="586" on="0"/>
        <pt x="505" y="550" on="1"/>
        <pt x="505" y="492" on="0"/>
        <pt x="451" y="405" on="0"/>
        <pt x="376" y="379" on="1"/>
        <pt x="418" y="368" on="0"/>
        <pt x="475" y="331" on="0"/>
        <pt x="510" y="284" on="0"/>
        <pt x="524" y="228" on="0"/>
      </contour>
      <contour>
        <pt x="422" y="539" on="1"/>
        <pt x="422" y="598" on="0"/>
        <pt x="342" y="670" on="0"/>
        <pt x="257" y="670" on="1"/>
        <pt x="234" y="670" on="0"/>
        <pt x="180" y="666" on="0"/>
        <pt x="160" y="662" on="1"/>
        <pt x="160" y="409" on="1"/>
        <pt x="174" y="407" on="0"/>
        <pt x="223" y="406" on="0"/>
        <pt x="246" y="406" on="1"/>
        <pt x="294" y="406" on="0"/>
        <pt x="361" y="428" on="0"/>
        <pt x="403" y="465" on="0"/>
        <pt x="422" y="513" on="0"/>
      </contour>
      <contour>
        <pt x="440" y="207" on="1"/>
        <pt x="440" y="233" on="0"/>
        <pt x="416" y="283" on="0"/>
        <pt x="368" y="321" on="0"/>
        <pt x="296" y="344" on="0"/>
        <pt x="248" y="344" on="1"/>
        <pt x="238" y="344" on="0"/>
        <pt x="213" y="344" on="0"/>
        <pt x="188" y="343" on="0"/>
        <pt x="166" y="342" on="0"/>
        <pt x="160" y="341" on="1"/>
        <pt x="160" y="71" on="1"/>
        <pt x="180" y="67" on="0"/>
        <pt x="242" y="63" on="0"/>
        <pt x="268" y="63" on="1"/>
        <pt x="310" y="63" on="0"/>
        <pt x="375" y="85" on="0"/>
        <pt x="418" y="124" on="0"/>
        <pt x="440" y="176" on="0"/>
      </contour>
    </TTGlyph>
    <TTGlyph name="C" xMin="55" yMin="-12" xMax="686" yMax="745">
      <contour>
        <pt x="686" y="58" on="1"/>
        <pt x="642" y="31" on="0"/>
        <pt x="517" y="-12" on="0"/>
        <pt x="444" y="-12" on="1"/>
        <pt x="359" y="-12" on="0"/>
        <pt x="216" y="44" on="0"/>
        <pt x="113" y="145" on="0"/>
        <pt x="55" y="283" on="0"/>
        <pt x="55" y="366" on="1"/>
        <pt x="55" y="447" on="0"/>
        <pt x="114" y="586" on="0"/>
        <pt x="218" y="687" on="0"/>
        <pt x="361" y="745" on="0"/>
        <pt x="444" y="745" on="1"/>
        <pt x="517" y="745" on="0"/>
        <pt x="642" y="702" on="0"/>
        <pt x="686" y="675" on="1"/>
        <pt x="653" y="607" on="1"/>
        <pt x="606" y="634" on="0"/>
        <pt x="490" y="670" on="0"/>
        <pt x="437" y="670" on="1"/>
        <pt x="368" y="670" on="0"/>
        <pt x="258" y="624" on="0"/>
        <pt x="182" y="542" on="0"/>
        <pt x="142" y="431" on="0"/>
        <pt x="142" y="366" on="1"/>
        <pt x="142" y="301" on="0"/>
        <pt x="184" y="190" on="0"/>
        <pt x="263" y="109" on="0"/>
        <pt x="375" y="63" on="0"/>
        <pt x="444" y="63" on="1"/>
        <pt x="497" y="63" on="0"/>
        <pt x="613" y="99" on="0"/>
        <pt x="660" y="126" on="1"/>
      </contour>
    </TTGlyph>
    <TTGlyph name="Cacute" xMin="55" yMin="-12" xMax="686" yMax="963">
      <component glyphName="C" x="0" y="0" flags="0x204"/>
      <component glyphName="acute" x="254" y="320" flags="0x4"/>
    </TTGlyph>
    <TTGlyph name="Ccaron" xMin="55" yMin="-12" xMax="686" yMax="958">
      <component glyphName="C" x="0" y="0" flags="0x204"/>
      <component glyphName="caron" x="202" y="320" flags="0x4"/>
    </TTGlyph>
    <TTGlyph name="Ccedilla" xMin="55" yMin="-237" xMax="686" yMax="745">
      <contour>
        <pt x="543" y="-146" on="1"/>
        <pt x="543" y="-182" on="0"/>
        <pt x="495" y="-237" on="0"/>
        <pt x="444" y="-237" on="1"/>
        <pt x="418" y="-237" on="0"/>
        <pt x="365" y="-220" on="0"/>
        <pt x="336" y="-203" on="1"/>
        <pt x="359" y="-157" on="1"/>
        <pt x="383" y="-171" on="0"/>
        <pt x="424" y="-184" on="0"/>
        <pt x="444" y="-184" on="1"/>
        <pt x="463" y="-184" on="0"/>
        <pt x="483" y="-164" on="0"/>
        <pt x="483" y="-148" on="1"/>
        <pt x="483" y="-130" on="0"/>
        <pt x="441" y="-99" on="0"/>
        <pt x="390" y="-96" on="1"/>
        <pt x="386" y="-88" on="1"/>
        <pt x="406" y="-10" on="1"/>
        <pt x="329" y="-4" on="0"/>
        <pt x="200" y="56" on="0"/>
        <pt x="107" y="155" on="0"/>
        <pt x="55" y="288" on="0"/>
        <pt x="55" y="366" on="1"/>
        <pt x="55" y="447" on="0"/>
        <pt x="114" y="586" on="0"/>
        <pt x="218" y="687" on="0"/>
        <pt x="361" y="745" on="0"/>
        <pt x="444" y="745" on="1"/>
        <pt x="517" y="745" on="0"/>
        <pt x="642" y="702" on="0"/>
        <pt x="686" y="675" on="1"/>
        <pt x="653" y="607" on="1"/>
        <pt x="606" y="634" on="0"/>
        <pt x="490" y="670" on="0"/>
        <pt x="437" y="670" on="1"/>
        <pt x="368" y="670" on="0"/>
        <pt x="258" y="624" on="0"/>
        <pt x="182" y="542" on="0"/>
        <pt x="142" y="431" on="0"/>
        <pt x="142" y="366" on="1"/>
        <pt x="142" y="301" on="0"/>
        <pt x="184" y="190" on="0"/>
        <pt x="263" y="109" on="0"/>
        <pt x="375" y="63" on="0"/>
        <pt x="444" y="63" on="1"/>
        <pt x="497" y="63" on="0"/>
        <pt x="613" y="99" on="0"/>
        <pt x="660" y="126" on="1"/>
        <pt x="686" y="58" on="1"/>
        <pt x="644" y="32" on="0"/>
        <pt x="525" y="-10" on="0"/>
        <pt x="455" y="-12" on="1"/>
        <pt x="445" y="-51" on="1"/>
        <pt x="501" y="-64" on="0"/>
        <pt x="543" y="-117" on="0"/>
      </contour>
    </TTGlyph>
    <TTGlyph name="Cdotaccent" xMin="55" yMin="-12" xMax="686" yMax="915">
      <component glyphName="C" x="0" y="0" flags="0x204"/>
      <component glyphName="dotaccent" x="200" y="320" flags="0x4"/>
    </TTGlyph>
    <TTGlyph name="D" xMin="80" yMin="-6" xMax="690" yMax="738">
      <contour>
        <pt x="690" y="373" on="1"/>
        <pt x="690" y="299" on="0"/>
        <pt x="639" y="162" on="0"/>
        <pt x="536" y="57" on="0"/>
        <pt x="381" y="-6" on="0"/>
        <pt x="278" y="-6" on="1"/>
        <pt x="222" y="-6" on="0"/>
        <pt x="123" y="1" on="0"/>
        <pt x="80" y="6" on="1"/>
        <pt x="80" y="726" on="1"/>
        <pt x="122" y="731" on="0"/>
        <pt x="215" y="738" on="0"/>
        <pt x="271" y="738" on="1"/>
        <pt x="374" y="738" on="0"/>
        <pt x="531" y="677" on="0"/>
        <pt x="636" y="575" on="0"/>
        <pt x="690" y="443" on="0"/>
      </contour>
      <contour>
        <pt x="603" y="373" on="1"/>
        <pt x="603" y="437" on="0"/>
        <pt x="561" y="545" on="0"/>
        <pt x="479" y="625" on="0"/>
        <pt x="358" y="670" on="0"/>
        <pt x="278" y="670" on="1"/>
        <pt x="245" y="670" on="0"/>
        <pt x="180" y="666" on="0"/>
        <pt x="160" y="662" on="1"/>
        <pt x="160" y="71" on="1"/>
        <pt x="183" y="66" on="0"/>
        <pt x="244" y="63" on="0"/>
        <pt x="288" y="63" on="1"/>
        <pt x="369" y="63" on="0"/>
        <pt x="488" y="111" on="0"/>
        <pt x="565" y="195" on="0"/>
        <pt x="603" y="308" on="0"/>
      </contour>
    </TTGlyph>
    <TTGlyph name="Dcaron" xMin="80" yMin="-6" xMax="690" yMax="958">
      <component glyphName="D" x="0" y="0" flags="0x204"/>
      <component glyphName="caron" x="145" y="320" flags="0x4"/>
    </TTGlyph>
    <TTGlyph name="Dcroat" xMin="10" yMin="-6" xMax="710" yMax="738">
      <component glyphName="Eth" x="0" y="0" flags="0x204"/>
    </TTGlyph>
    <TTGlyph name="E" xMin="80" yMin="0" xMax="509" yMax="733">
      <contour>
        <pt x="80" y="0" on="1"/>
        <pt x="80" y="733" on="1"/>
        <pt x="509" y="733" on="1"/>
        <pt x="509" y="661" on="1"/>
        <pt x="160" y="661" on="1"/>
        <pt x="160" y="408" on="1"/>
        <pt x="474" y="408" on="1"/>
        <pt x="474" y="336" on="1"/>
        <pt x="160" y="336" on="1"/>
        <pt x="160" y="72" on="1"/>
        <pt x="509" y="72" on="1"/>
        <pt x="509" y="0" on="1"/>
      </contour>
    </TTGlyph>
    <TTGlyph name="Eacute" xMin="80" yMin="0" xMax="509" yMax="963">
      <component glyphName="E" x="0" y="0" flags="0x204"/>
      <component glyphName="acute" x="131" y="320" flags="0x4"/>
    </TTGlyph>
    <TTGlyph name="Ebreve" xMin="80" yMin="0" xMax="509" yMax="925">
      <component glyphName="E" x="0" y="0" flags="0x204"/>
      <component glyphName="breve" x="77" y="320" flags="0x4"/>
    </TTGlyph>
    <TTGlyph name="Ecaron" xMin="80" yMin="0" xMax="509" yMax="958">
      <component glyphName="E" x="0" y="0" flags="0x204"/>
      <component glyphName="caron" x="79" y="320" flags="0x4"/>
    </TTGlyph>
    <TTGlyph name="Ecircumflex" xMin="80" yMin="0" xMax="509" yMax="969">
      <component glyphName="E" x="0" y="0" flags="0x204"/>
      <component glyphName="circumflex" x="74" y="320" flags="0x4"/>
    </TTGlyph>
    <TTGlyph name="Edieresis" xMin="80" yMin="0" xMax="509" yMax="915">
      <component glyphName="E" x="0" y="0" flags="0x204"/>
      <component glyphName="dieresis" x="77" y="320" flags="0x4"/>
    </TTGlyph>
    <TTGlyph name="Edotaccent" xMin="80" yMin="0" xMax="509" yMax="915">
      <component glyphName="E" x="0" y="0" flags="0x204"/>
      <component glyphName="dotaccent" x="77" y="320" flags="0x4"/>
    </TTGlyph>
    <TTGlyph name="Egrave" xMin="80" yMin="0" xMax="509" yMax="961">
      <component glyphName="E" x="0" y="0" flags="0x204"/>
      <component glyphName="grave" x="12" y="320" flags="0x4"/>
    </TTGlyph>
    <TTGlyph name="Emacron" xMin="80" yMin="0" xMax="509" yMax="888">
      <component glyphName="E" x="0" y="0" flags="0x204"/>
      <component glyphName="macron" x="77" y="320" flags="0x4"/>
    </TTGlyph>
    <TTGlyph name="Eogonek" xMin="80" yMin="-220" xMax="523" yMax="733">
      <contour>
        <pt x="523" y="-168" on="1"/>
        <pt x="503" y="-194" on="0"/>
        <pt x="461" y="-218" on="0"/>
        <pt x="433" y="-219" on="1"/>
        <pt x="395" y="-220" on="0"/>
        <pt x="350" y="-173" on="0"/>
        <pt x="351" y="-138" on="1"/>
        <pt x="351" y="-124" on="0"/>
        <pt x="358" y="-95" on="0"/>
        <pt x="375" y="-63" on="0"/>
        <pt x="404" y="-24" on="0"/>
        <pt x="427" y="0" on="1"/>
        <pt x="80" y="0" on="1"/>
        <pt x="80" y="733" on="1"/>
        <pt x="509" y="733" on="1"/>
        <pt x="509" y="661" on="1"/>
        <pt x="160" y="661" on="1"/>
        <pt x="160" y="408" on="1"/>
        <pt x="474" y="408" on="1"/>
        <pt x="474" y="336" on="1"/>
        <pt x="160" y="336" on="1"/>
        <pt x="160" y="72" on="1"/>
        <pt x="509" y="72" on="1"/>
        <pt x="509" y="0" on="1"/>
        <pt x="482" y="0" on="1"/>
        <pt x="445" y="-45" on="0"/>
        <pt x="414" y="-105" on="0"/>
        <pt x="414" y="-128" on="1"/>
        <pt x="414" y="-147" on="0"/>
        <pt x="432" y="-167" on="0"/>
        <pt x="446" y="-167" on="1"/>
        <pt x="459" y="-167" on="0"/>
        <pt x="479" y="-155" on="0"/>
        <pt x="493" y="-140" on="1"/>
      </contour>
    </TTGlyph>
    <TTGlyph name="Eth" xMin="10" yMin="-6" xMax="710" yMax="738">
      <contour>
        <pt x="710" y="373" on="1"/>
        <pt x="710" y="299" on="0"/>
        <pt x="659" y="162" on="0"/>
        <pt x="556" y="57" on="0"/>
        <pt x="401" y="-6" on="0"/>
        <pt x="298" y="-6" on="1"/>
        <pt x="242" y="-6" on="0"/>
        <pt x="143" y="1" on="0"/>
        <pt x="100" y="6" on="1"/>
        <pt x="100" y="336" on="1"/>
        <pt x="10" y="336" on="1"/>
        <pt x="10" y="408" on="1"/>
        <pt x="100" y="408" on="1"/>
        <pt x="100" y="726" on="1"/>
        <pt x="142" y="731" on="0"/>
        <pt x="235" y="738" on="0"/>
        <pt x="291" y="738" on="1"/>
        <pt x="394" y="738" on="0"/>
        <pt x="551" y="677" on="0"/>
        <pt x="656" y="575" on="0"/>
        <pt x="710" y="443" on="0"/>
      </contour>
      <contour>
        <pt x="623" y="373" on="1"/>
        <pt x="623" y="437" on="0"/>
        <pt x="582" y="545" on="0"/>
        <pt x="500" y="625" on="0"/>
        <pt x="379" y="670" on="0"/>
        <pt x="299" y="670" on="1"/>
        <pt x="266" y="670" on="0"/>
        <pt x="200" y="666" on="0"/>
        <pt x="180" y="662" on="1"/>
        <pt x="180" y="408" on="1"/>
        <pt x="289" y="408" on="1"/>
        <pt x="289" y="336" on="1"/>
        <pt x="180" y="336" on="1"/>
        <pt x="180" y="71" on="1"/>
        <pt x="203" y="66" on="0"/>
        <pt x="265" y="63" on="0"/>
        <pt x="309" y="63" on="1"/>
        <pt x="390" y="63" on="0"/>
        <pt x="508" y="111" on="0"/>
        <pt x="586" y="195" on="0"/>
        <pt x="623" y="308" on="0"/>
      </contour>
    </TTGlyph>
    <TTGlyph name="Euro" xMin="28" yMin="-12" xMax="593" yMax="586">
      <contour>
        <pt x="28" y="325" on="1"/>
        <pt x="28" y="393" on="1"/>
        <pt x="109" y="393" on="1"/>
        <pt x="125" y="436" on="0"/>
        <pt x="181" y="507" on="0"/>
        <pt x="256" y="558" on="0"/>
        <pt x="348" y="586" on="0"/>
        <pt x="400" y="586" on="1"/>
        <pt x="456" y="586" on="0"/>
        <pt x="556" y="553" on="0"/>
        <pt x="593" y="530" on="1"/>
        <pt x="560" y="466" on="1"/>
        <pt x="524" y="487" on="0"/>
        <pt x="435" y="515" on="0"/>
        <pt x="393" y="515" on="1"/>
        <pt x="321" y="515" on="0"/>
        <pt x="219" y="450" on="0"/>
        <pt x="194" y="393" on="1"/>
        <pt x="470" y="393" on="1"/>
        <pt x="470" y="325" on="1"/>
        <pt x="175" y="325" on="1"/>
        <pt x="174" y="316" on="0"/>
        <pt x="173" y="297" on="0"/>
        <pt x="173" y="286" on="1"/>
        <pt x="173" y="265" on="0"/>
        <pt x="176" y="247" on="1"/>
        <pt x="470" y="247" on="1"/>
        <pt x="470" y="181" on="1"/>
        <pt x="196" y="181" on="1"/>
        <pt x="222" y="124" on="0"/>
        <pt x="329" y="59" on="0"/>
        <pt x="399" y="59" on="1"/>
        <pt x="442" y="59" on="0"/>
        <pt x="530" y="87" on="0"/>
        <pt x="566" y="108" on="1"/>
        <pt x="593" y="44" on="1"/>
        <pt x="556" y="21" on="0"/>
        <pt x="456" y="-12" on="0"/>
        <pt x="400" y="-12" on="1"/>
        <pt x="347" y="-12" on="0"/>
        <pt x="254" y="16" on="0"/>
        <pt x="179" y="67" on="0"/>
        <pt x="123" y="138" on="0"/>
        <pt x="108" y="181" on="1"/>
        <pt x="28" y="181" on="1"/>
        <pt x="28" y="247" on="1"/>
        <pt x="93" y="247" on="1"/>
        <pt x="92" y="256" on="0"/>
        <pt x="91" y="275" on="0"/>
        <pt x="91" y="286" on="1"/>
        <pt x="91" y="297" on="0"/>
        <pt x="92" y="316" on="0"/>
        <pt x="93" y="325" on="1"/>
      </contour>
    </TTGlyph>
    <TTGlyph name="Euro.lin" xMin="47" yMin="-11" xMax="750" yMax="745">
      <contour>
        <pt x="47" y="417" on="1"/>
        <pt x="47" y="485" on="1"/>
        <pt x="146" y="485" on="1"/>
        <pt x="163" y="540" on="0"/>
        <pt x="229" y="635" on="0"/>
        <pt x="323" y="705" on="0"/>
        <pt x="442" y="745" on="0"/>
        <pt x="513" y="745" on="1"/>
        <pt x="587" y="745" on="0"/>
        <pt x="705" y="703" on="0"/>
        <pt x="750" y="677" on="1"/>
        <pt x="719" y="616" on="1"/>
        <pt x="671" y="643" on="0"/>
        <pt x="557" y="676" on="0"/>
        <pt x="506" y="676" on="1"/>
        <pt x="453" y="676" on="0"/>
        <pt x="365" y="647" on="0"/>
        <pt x="294" y="596" on="0"/>
        <pt x="243" y="526" on="0"/>
        <pt x="228" y="485" on="1"/>
        <pt x="606" y="485" on="1"/>
        <pt x="606" y="417" on="1"/>
        <pt x="211" y="417" on="1"/>
        <pt x="208" y="393" on="0"/>
        <pt x="208" y="366" on="1"/>
        <pt x="208" y="352" on="0"/>
        <pt x="210" y="325" on="0"/>
        <pt x="212" y="311" on="1"/>
        <pt x="606" y="311" on="1"/>
        <pt x="606" y="243" on="1"/>
        <pt x="229" y="243" on="1"/>
        <pt x="246" y="202" on="0"/>
        <pt x="300" y="135" on="0"/>
        <pt x="372" y="85" on="0"/>
        <pt x="461" y="58" on="0"/>
        <pt x="513" y="58" on="1"/>
        <pt x="564" y="58" on="0"/>
        <pt x="678" y="94" on="0"/>
        <pt x="726" y="121" on="1"/>
        <pt x="750" y="59" on="1"/>
        <pt x="705" y="33" on="0"/>
        <pt x="584" y="-11" on="0"/>
        <pt x="513" y="-11" on="1"/>
        <pt x="442" y="-11" on="0"/>
        <pt x="324" y="27" on="0"/>
        <pt x="231" y="95" on="0"/>
        <pt x="165" y="188" on="0"/>
        <pt x="147" y="243" on="1"/>
        <pt x="47" y="243" on="1"/>
        <pt x="47" y="311" on="1"/>
        <pt x="134" y="311" on="1"/>
        <pt x="132" y="325" on="0"/>
        <pt x="130" y="352" on="0"/>
        <pt x="130" y="366" on="1"/>
        <pt x="130" y="394" on="0"/>
        <pt x="134" y="417" on="1"/>
      </contour>
    </TTGlyph>
    <TTGlyph name="F" xMin="80" yMin="0" xMax="509" yMax="733">
      <contour>
        <pt x="160" y="661" on="1"/>
        <pt x="160" y="394" on="1"/>
        <pt x="474" y="394" on="1"/>
        <pt x="474" y="322" on="1"/>
        <pt x="160" y="322" on="1"/>
        <pt x="160" y="0" on="1"/>
        <pt x="80" y="0" on="1"/>
        <pt x="80" y="733" on="1"/>
        <pt x="509" y="733" on="1"/>
        <pt x="509" y="661" on="1"/>
      </contour>
    </TTGlyph>
    <TTGlyph name="G" xMin="55" yMin="-12" xMax="715" yMax="745">
      <contour>
        <pt x="715" y="363" on="1"/>
        <pt x="715" y="74" on="1"/>
        <pt x="659" y="32" on="0"/>
        <pt x="529" y="-12" on="0"/>
        <pt x="447" y="-12" on="1"/>
        <pt x="371" y="-12" on="0"/>
        <pt x="229" y="42" on="0"/>
        <pt x="120" y="141" on="0"/>
        <pt x="55" y="280" on="0"/>
        <pt x="55" y="366" on="1"/>
        <pt x="55" y="452" on="0"/>
        <pt x="122" y="592" on="0"/>
        <pt x="230" y="691" on="0"/>
        <pt x="367" y="745" on="0"/>
        <pt x="438" y="745" on="1"/>
        <pt x="483" y="745" on="0"/>
        <pt x="559" y="732" on="0"/>
        <pt x="624" y="709" on="0"/>
        <pt x="683" y="676" on="0"/>
        <pt x="712" y="656" on="1"/>
        <pt x="670" y="593" on="1"/>
        <pt x="619" y="630" on="0"/>
        <pt x="499" y="673" on="0"/>
        <pt x="439" y="673" on="1"/>
        <pt x="368" y="673" on="0"/>
        <pt x="258" y="623" on="0"/>
        <pt x="182" y="538" on="0"/>
        <pt x="142" y="427" on="0"/>
        <pt x="142" y="366" on="1"/>
        <pt x="142" y="301" on="0"/>
        <pt x="190" y="189" on="0"/>
        <pt x="272" y="106" on="0"/>
        <pt x="384" y="59" on="0"/>
        <pt x="448" y="59" on="1"/>
        <pt x="502" y="59" on="0"/>
        <pt x="591" y="83" on="0"/>
        <pt x="635" y="109" on="1"/>
        <pt x="635" y="288" on="1"/>
        <pt x="441" y="288" on="1"/>
        <pt x="441" y="363" on="1"/>
      </contour>
    </TTGlyph>
    <TTGlyph name="G.alt" xMin="55" yMin="-12" xMax="785" yMax="745">
      <contour>
        <pt x="785" y="341" on="1"/>
        <pt x="785" y="269" on="0"/>
        <pt x="736" y="140" on="0"/>
        <pt x="646" y="44" on="0"/>
        <pt x="517" y="-12" on="0"/>
        <pt x="438" y="-12" on="1"/>
        <pt x="362" y="-12" on="0"/>
        <pt x="223" y="42" on="0"/>
        <pt x="118" y="141" on="0"/>
        <pt x="55" y="280" on="0"/>
        <pt x="55" y="366" on="1"/>
        <pt x="55" y="452" on="0"/>
        <pt x="121" y="592" on="0"/>
        <pt x="229" y="691" on="0"/>
        <pt x="366" y="745" on="0"/>
        <pt x="437" y="745" on="1"/>
        <pt x="483" y="745" on="0"/>
        <pt x="558" y="732" on="0"/>
        <pt x="624" y="709" on="0"/>
        <pt x="683" y="676" on="0"/>
        <pt x="712" y="656" on="1"/>
        <pt x="670" y="593" on="1"/>
        <pt x="619" y="630" on="0"/>
        <pt x="498" y="673" on="0"/>
        <pt x="438" y="673" on="1"/>
        <pt x="368" y="673" on="0"/>
        <pt x="258" y="623" on="0"/>
        <pt x="182" y="538" on="0"/>
        <pt x="142" y="427" on="0"/>
        <pt x="142" y="366" on="1"/>
        <pt x="142" y="301" on="0"/>
        <pt x="187" y="189" on="0"/>
        <pt x="267" y="106" on="0"/>
        <pt x="376" y="59" on="0"/>
        <pt x="440" y="59" on="1"/>
        <pt x="494" y="59" on="0"/>
        <pt x="585" y="93" on="0"/>
        <pt x="653" y="150" on="0"/>
        <pt x="695" y="226" on="0"/>
        <pt x="700" y="269" on="1"/>
        <pt x="426" y="269" on="1"/>
        <pt x="426" y="341" on="1"/>
      </contour>
    </TTGlyph>
    <TTGlyph name="Gbreve" xMin="55" yMin="-12" xMax="715" yMax="925">
      <component glyphName="G" x="0" y="0" flags="0x204"/>
      <component glyphName="breve" x="209" y="320" flags="0x4"/>
    </TTGlyph>
    <TTGlyph name="Gbreve.alt" xMin="55" yMin="-12" xMax="785" yMax="925">
      <component glyphName="G.alt" x="0" y="0" flags="0x204"/>
      <component glyphName="breve" x="224" y="320" flags="0x4"/>
    </TTGlyph>
    <TTGlyph name="Gcommaaccent" xMin="55" yMin="-288" xMax="715" yMax="745">
      <component glyphName="G" x="0" y="0" flags="0x204"/>
      <component glyphName="commaaccent" x="341" y="0" flags="0x4"/>
    </TTGlyph>
    <TTGlyph name="Gcommaaccent.alt" xMin="55" yMin="-288" xMax="785" yMax="745">
      <component glyphName="G.alt" x="0" y="0" flags="0x204"/>
      <component glyphName="commaaccent" x="356" y="0" flags="0x4"/>
    </TTGlyph>
    <TTGlyph name="Gdotaccent" xMin="55" yMin="-12" xMax="715" yMax="915">
      <component glyphName="G" x="0" y="0" flags="0x204"/>
      <component glyphName="dotaccent" x="209" y="320" flags="0x4"/>
    </TTGlyph>
    <TTGlyph name="Gdotaccent.alt" xMin="55" yMin="-12" xMax="785" yMax="915">
      <component glyphName="G.alt" x="0" y="0" flags="0x204"/>
      <component glyphName="dotaccent" x="226" y="320" flags="0x4"/>
    </TTGlyph>
    <TTGlyph name="H" xMin="80" yMin="0" xMax="632" yMax="733">
      <contour>
        <pt x="552" y="0" on="1"/>
        <pt x="552" y="336" on="1"/>
        <pt x="160" y="336" on="1"/>
        <pt x="160" y="0" on="1"/>
        <pt x="80" y="0" on="1"/>
        <pt x="80" y="733" on="1"/>
        <pt x="160" y="733" on="1"/>
        <pt x="160" y="408" on="1"/>
        <pt x="552" y="408" on="1"/>
        <pt x="552" y="733" on="1"/>
        <pt x="632" y="733" on="1"/>
        <pt x="632" y="0" on="1"/>
      </contour>
    </TTGlyph>
    <TTGlyph name="Hbar" xMin="10" yMin="0" xMax="722" yMax="733">
      <contour>
        <pt x="562" y="0" on="1"/>
        <pt x="562" y="336" on="1"/>
        <pt x="169" y="336" on="1"/>
        <pt x="169" y="0" on="1"/>
        <pt x="90" y="0" on="1"/>
        <pt x="90" y="543" on="1"/>
        <pt x="10" y="543" on="1"/>
        <pt x="10" y="611" on="1"/>
        <pt x="90" y="611" on="1"/>
        <pt x="90" y="733" on="1"/>
        <pt x="169" y="733" on="1"/>
        <pt x="169" y="611" on="1"/>
        <pt x="562" y="611" on="1"/>
        <pt x="562" y="733" on="1"/>
        <pt x="642" y="733" on="1"/>
        <pt x="642" y="611" on="1"/>
        <pt x="722" y="611" on="1"/>
        <pt x="722" y="543" on="1"/>
        <pt x="642" y="543" on="1"/>
        <pt x="642" y="0" on="1"/>
      </contour>
      <contour>
        <pt x="562" y="408" on="1"/>
        <pt x="562" y="543" on="1"/>
        <pt x="169" y="543" on="1"/>
        <pt x="169" y="408" on="1"/>
      </contour>
    </TTGlyph>
    <TTGlyph name="I" xMin="85" yMin="0" xMax="165" yMax="733">
      <contour>
        <pt x="85" y="0" on="1"/>
        <pt x="85" y="733" on="1"/>
        <pt x="165" y="733" on="1"/>
        <pt x="165" y="0" on="1"/>
      </contour>
    </TTGlyph>
    <TTGlyph name="Iacute" xMin="69" yMin="0" xMax="283" yMax="963">
      <component glyphName="I" x="0" y="0" flags="0x4"/>
      <component glyphName="acute" x="-41" y="320" flags="0x4"/>
    </TTGlyph>
    <TTGlyph name="Ibreve" xMin="4" yMin="0" xMax="247" yMax="925">
      <component glyphName="I" x="0" y="0" flags="0x4"/>
      <component glyphName="breve" x="-95" y="320" flags="0x4"/>
    </TTGlyph>
    <TTGlyph name="Icircumflex" xMin="-21" yMin="0" xMax="271" yMax="969">
      <component glyphName="I" x="0" y="0" flags="0x4"/>
      <component glyphName="circumflex" x="-98" y="320" flags="0x4"/>
    </TTGlyph>
    <TTGlyph name="Idieresis" xMin="-12" yMin="0" xMax="262" yMax="915">
      <component glyphName="I" x="0" y="0" flags="0x4"/>
      <component glyphName="dieresis" x="-95" y="320" flags="0x4"/>
    </TTGlyph>
    <TTGlyph name="Idotaccent" xMin="75" yMin="0" xMax="176" yMax="915">
      <component glyphName="I" x="0" y="0" flags="0x4"/>
      <component glyphName="dotaccent" x="-95" y="320" flags="0x4"/>
    </TTGlyph>
    <TTGlyph name="Igrave" xMin="-35" yMin="0" xMax="182" yMax="961">
      <component glyphName="I" x="0" y="0" flags="0x4"/>
      <component glyphName="grave" x="-160" y="320" flags="0x4"/>
    </TTGlyph>
    <TTGlyph name="Imacron" xMin="-18" yMin="0" xMax="269" yMax="888">
      <component glyphName="I" x="0" y="0" flags="0x4"/>
      <component glyphName="macron" x="-95" y="320" flags="0x4"/>
    </TTGlyph>
    <TTGlyph name="Iogonek" xMin="23" yMin="-220" xMax="196" yMax="733">
      <contour>
        <pt x="196" y="-168" on="1"/>
        <pt x="176" y="-194" on="0"/>
        <pt x="134" y="-218" on="0"/>
        <pt x="106" y="-219" on="1"/>
        <pt x="68" y="-220" on="0"/>
        <pt x="23" y="-173" on="0"/>
        <pt x="24" y="-138" on="1"/>
        <pt x="24" y="-124" on="0"/>
        <pt x="31" y="-95" on="0"/>
        <pt x="48" y="-63" on="0"/>
        <pt x="77" y="-24" on="0"/>
        <pt x="100" y="0" on="1"/>
        <pt x="85" y="0" on="1"/>
        <pt x="85" y="733" on="1"/>
        <pt x="165" y="733" on="1"/>
        <pt x="165" y="0" on="1"/>
        <pt x="155" y="0" on="1"/>
        <pt x="118" y="-45" on="0"/>
        <pt x="87" y="-105" on="0"/>
        <pt x="87" y="-128" on="1"/>
        <pt x="87" y="-147" on="0"/>
        <pt x="105" y="-167" on="0"/>
        <pt x="119" y="-167" on="1"/>
        <pt x="132" y="-167" on="0"/>
        <pt x="152" y="-155" on="0"/>
        <pt x="166" y="-140" on="1"/>
      </contour>
    </TTGlyph>
    <TTGlyph name="J" xMin="14" yMin="-12" xMax="379" yMax="733">
      <contour>
        <pt x="379" y="218" on="1"/>
        <pt x="379" y="168" on="0"/>
        <pt x="353" y="84" on="0"/>
        <pt x="300" y="22" on="0"/>
        <pt x="223" y="-12" on="0"/>
        <pt x="172" y="-12" on="1"/>
        <pt x="124" y="-12" on="0"/>
        <pt x="45" y="15" on="0"/>
        <pt x="14" y="40" on="1"/>
        <pt x="55" y="101" on="1"/>
        <pt x="78" y="84" on="0"/>
        <pt x="141" y="61" on="0"/>
        <pt x="173" y="61" on="1"/>
        <pt x="239" y="61" on="0"/>
        <pt x="299" y="138" on="0"/>
        <pt x="299" y="219" on="1"/>
        <pt x="299" y="733" on="1"/>
        <pt x="379" y="733" on="1"/>
      </contour>
    </TTGlyph>
    <TTGlyph name="K" xMin="80" yMin="0" xMax="596" yMax="733">
      <contour>
        <pt x="491" y="0" on="1"/>
        <pt x="160" y="360" on="1"/>
        <pt x="160" y="0" on="1"/>
        <pt x="80" y="0" on="1"/>
        <pt x="80" y="733" on="1"/>
        <pt x="160" y="733" on="1"/>
        <pt x="160" y="392" on="1"/>
        <pt x="479" y="733" on="1"/>
        <pt x="580" y="733" on="1"/>
        <pt x="240" y="377" on="1"/>
        <pt x="596" y="0" on="1"/>
      </contour>
    </TTGlyph>
    <TTGlyph name="Kcommaaccent" xMin="80" yMin="-273" xMax="596" yMax="733">
      <component glyphName="K" x="0" y="0" flags="0x204"/>
      <component glyphName="commaaccent" x="226" y="15" flags="0x4"/>
    </TTGlyph>
    <TTGlyph name="L" xMin="80" yMin="0" xMax="509" yMax="733">
      <contour>
        <pt x="80" y="0" on="1"/>
        <pt x="80" y="733" on="1"/>
        <pt x="160" y="733" on="1"/>
        <pt x="160" y="72" on="1"/>
        <pt x="509" y="72" on="1"/>
        <pt x="509" y="0" on="1"/>
      </contour>
    </TTGlyph>
    <TTGlyph name="Lacute" xMin="80" yMin="0" xMax="509" yMax="963">
      <component glyphName="L" x="0" y="0" flags="0x204"/>
      <component glyphName="acute" x="0" y="320" flags="0x4"/>
    </TTGlyph>
    <TTGlyph name="Lcaron" xMin="80" yMin="0" xMax="509" yMax="734">
      <component glyphName="L" x="0" y="0" flags="0x204"/>
      <component glyphName="caron.alt" x="185" y="-4" flags="0x4"/>
    </TTGlyph>
    <TTGlyph name="Lcommaaccent" xMin="80" yMin="-288" xMax="509" yMax="733">
      <component glyphName="L" x="0" y="0" flags="0x204"/>
      <component glyphName="commaaccent" x="197" y="0" flags="0x4"/>
    </TTGlyph>
    <TTGlyph name="Ldot" xMin="80" yMin="0" xMax="509" yMax="733">
      <contour>
        <pt x="80" y="0" on="1"/>
        <pt x="80" y="733" on="1"/>
        <pt x="160" y="733" on="1"/>
        <pt x="160" y="72" on="1"/>
        <pt x="509" y="72" on="1"/>
        <pt x="509" y="0" on="1"/>
      </contour>
      <contour>
        <pt x="347" y="371" on="1"/>
        <pt x="347" y="392" on="0"/>
        <pt x="377" y="422" on="0"/>
        <pt x="397" y="422" on="1"/>
        <pt x="418" y="422" on="0"/>
        <pt x="448" y="392" on="0"/>
        <pt x="448" y="371" on="1"/>
        <pt x="448" y="351" on="0"/>
        <pt x="418" y="321" on="0"/>
        <pt x="397" y="321" on="1"/>
        <pt x="377" y="321" on="0"/>
        <pt x="347" y="351" on="0"/>
      </contour>
    </TTGlyph>
    <TTGlyph name="Lslash" xMin="22" yMin="0" xMax="509" yMax="733">
      <contour>
        <pt x="80" y="0" on="1"/>
        <pt x="80" y="303" on="1"/>
        <pt x="22" y="277" on="1"/>
        <pt x="22" y="356" on="1"/>
        <pt x="80" y="382" on="1"/>
        <pt x="80" y="733" on="1"/>
        <pt x="160" y="733" on="1"/>
        <pt x="160" y="418" on="1"/>
        <pt x="247" y="458" on="1"/>
        <pt x="247" y="379" on="1"/>
        <pt x="203" y="359" on="1"/>
        <pt x="195" y="355" on="0"/>
        <pt x="179" y="348" on="0"/>
        <pt x="173" y="345" on="1"/>
        <pt x="166" y="341" on="0"/>
        <pt x="160" y="339" on="1"/>
        <pt x="160" y="72" on="1"/>
        <pt x="509" y="72" on="1"/>
        <pt x="509" y="0" on="1"/>
      </contour>
    </TTGlyph>
    <TTGlyph name="M" xMin="70" yMin="0" xMax="785" yMax="747">
      <contour>
        <pt x="704" y="0" on="1"/>
        <pt x="693" y="518" on="1"/>
        <pt x="433" y="75" on="1"/>
        <pt x="422" y="75" on="1"/>
        <pt x="160" y="519" on="1"/>
        <pt x="151" y="0" on="1"/>
        <pt x="70" y="0" on="1"/>
        <pt x="98" y="745" on="1"/>
        <pt x="113" y="747" on="1"/>
        <pt x="431" y="195" on="1"/>
        <pt x="741" y="747" on="1"/>
        <pt x="757" y="745" on="1"/>
        <pt x="785" y="0" on="1"/>
      </contour>
    </TTGlyph>
    <TTGlyph name="M.alt" xMin="70" yMin="0" xMax="785" yMax="747">
      <contour>
        <pt x="704" y="0" on="1"/>
        <pt x="693" y="550" on="1"/>
        <pt x="433" y="155" on="1"/>
        <pt x="422" y="155" on="1"/>
        <pt x="160" y="547" on="1"/>
        <pt x="151" y="0" on="1"/>
        <pt x="70" y="0" on="1"/>
        <pt x="98" y="745" on="1"/>
        <pt x="113" y="747" on="1"/>
        <pt x="431" y="263" on="1"/>
        <pt x="741" y="747" on="1"/>
        <pt x="757" y="745" on="1"/>
        <pt x="785" y="0" on="1"/>
      </contour>
    </TTGlyph>
    <TTGlyph name="N" xMin="80" yMin="-14" xMax="646" yMax="747">
      <contour>
        <pt x="636" y="-14" on="1"/>
        <pt x="160" y="556" on="1"/>
        <pt x="160" y="0" on="1"/>
        <pt x="80" y="0" on="1"/>
        <pt x="80" y="743" on="1"/>
        <pt x="96" y="747" on="1"/>
        <pt x="566" y="186" on="1"/>
        <pt x="566" y="733" on="1"/>
        <pt x="646" y="733" on="1"/>
        <pt x="646" y="-11" on="1"/>
      </contour>
    </TTGlyph>
    <TTGlyph name="Nacute" xMin="80" yMin="-14" xMax="646" yMax="948">
      <component glyphName="N" x="0" y="0" flags="0x204"/>
      <component glyphName="acute" x="197" y="305" flags="0x4"/>
    </TTGlyph>
    <TTGlyph name="Ncaron" xMin="80" yMin="-14" xMax="646" yMax="943">
      <component glyphName="N" x="0" y="0" flags="0x204"/>
      <component glyphName="caron" x="145" y="305" flags="0x4"/>
    </TTGlyph>
    <TTGlyph name="Ncommaaccent" xMin="80" yMin="-273" xMax="646" yMax="747">
      <component glyphName="N" x="0" y="0" flags="0x204"/>
      <component glyphName="commaaccent" x="275" y="15" flags="0x4"/>
    </TTGlyph>
    <TTGlyph name="Ntilde" xMin="80" yMin="-14" xMax="646" yMax="897">
      <component glyphName="N" x="0" y="0" flags="0x204"/>
      <component glyphName="tilde" x="147" y="305" flags="0x4"/>
    </TTGlyph>
    <TTGlyph name="O" xMin="55" yMin="-12" xMax="786" yMax="745">
      <contour>
        <pt x="786" y="366" on="1"/>
        <pt x="786" y="283" on="0"/>
        <pt x="726" y="145" on="0"/>
        <pt x="625" y="44" on="0"/>
        <pt x="491" y="-12" on="0"/>
        <pt x="417" y="-12" on="1"/>
        <pt x="343" y="-12" on="0"/>
        <pt x="211" y="44" on="0"/>
        <pt x="112" y="145" on="0"/>
        <pt x="55" y="283" on="0"/>
        <pt x="55" y="366" on="1"/>
        <pt x="55" y="448" on="0"/>
        <pt x="115" y="588" on="0"/>
        <pt x="216" y="688" on="0"/>
        <pt x="350" y="745" on="0"/>
        <pt x="424" y="745" on="1"/>
        <pt x="498" y="745" on="0"/>
        <pt x="630" y="688" on="0"/>
        <pt x="729" y="588" on="0"/>
        <pt x="786" y="448" on="0"/>
      </contour>
      <contour>
        <pt x="699" y="366" on="1"/>
        <pt x="699" y="431" on="0"/>
        <pt x="658" y="543" on="0"/>
        <pt x="584" y="626" on="0"/>
        <pt x="482" y="673" on="0"/>
        <pt x="421" y="673" on="1"/>
        <pt x="360" y="673" on="0"/>
        <pt x="257" y="626" on="0"/>
        <pt x="183" y="543" on="0"/>
        <pt x="142" y="431" on="0"/>
        <pt x="142" y="366" on="1"/>
        <pt x="142" y="301" on="0"/>
        <pt x="183" y="189" on="0"/>
        <pt x="257" y="106" on="0"/>
        <pt x="360" y="59" on="0"/>
        <pt x="421" y="59" on="1"/>
        <pt x="482" y="59" on="0"/>
        <pt x="584" y="106" on="0"/>
        <pt x="658" y="189" on="0"/>
        <pt x="699" y="301" on="0"/>
      </contour>
    </TTGlyph>
    <TTGlyph name="OE" xMin="55" yMin="-6" xMax="1015" yMax="738">
      <contour>
        <pt x="600" y="0" on="1"/>
        <pt x="571" y="-2" on="0"/>
        <pt x="509" y="-6" on="0"/>
        <pt x="474" y="-6" on="1"/>
        <pt x="371" y="-6" on="0"/>
        <pt x="214" y="55" on="0"/>
        <pt x="109" y="157" on="0"/>
        <pt x="55" y="288" on="0"/>
        <pt x="55" y="359" on="1"/>
        <pt x="55" y="433" on="0"/>
        <pt x="106" y="570" on="0"/>
        <pt x="209" y="675" on="0"/>
        <pt x="364" y="738" on="0"/>
        <pt x="467" y="738" on="1"/>
        <pt x="501" y="738" on="0"/>
        <pt x="564" y="735" on="0"/>
        <pt x="593" y="733" on="1"/>
        <pt x="1015" y="733" on="1"/>
        <pt x="1015" y="661" on="1"/>
        <pt x="666" y="661" on="1"/>
        <pt x="666" y="408" on="1"/>
        <pt x="980" y="408" on="1"/>
        <pt x="980" y="336" on="1"/>
        <pt x="666" y="336" on="1"/>
        <pt x="666" y="72" on="1"/>
        <pt x="1015" y="72" on="1"/>
        <pt x="1015" y="0" on="1"/>
      </contour>
      <contour>
        <pt x="586" y="662" on="1"/>
        <pt x="563" y="667" on="0"/>
        <pt x="501" y="670" on="0"/>
        <pt x="457" y="670" on="1"/>
        <pt x="376" y="670" on="0"/>
        <pt x="257" y="622" on="0"/>
        <pt x="180" y="538" on="0"/>
        <pt x="142" y="425" on="0"/>
        <pt x="142" y="359" on="1"/>
        <pt x="142" y="295" on="0"/>
        <pt x="184" y="187" on="0"/>
        <pt x="266" y="108" on="0"/>
        <pt x="387" y="63" on="0"/>
        <pt x="467" y="63" on="1"/>
        <pt x="500" y="63" on="0"/>
        <pt x="566" y="67" on="0"/>
        <pt x="586" y="71" on="1"/>
      </contour>
    </TTGlyph>
    <TTGlyph name="Oacute" xMin="55" yMin="-12" xMax="786" yMax="963">
      <component glyphName="O" x="0" y="0" flags="0x204"/>
      <component glyphName="acute" x="254" y="320" flags="0x4"/>
    </TTGlyph>
    <TTGlyph name="Obreve" xMin="55" yMin="-12" xMax="786" yMax="925">
      <component glyphName="O" x="0" y="0" flags="0x204"/>
      <component glyphName="breve" x="200" y="320" flags="0x4"/>
    </TTGlyph>
    <TTGlyph name="Ocircumflex" xMin="55" yMin="-12" xMax="786" yMax="969">
      <component glyphName="O" x="0" y="0" flags="0x204"/>
      <component glyphName="circumflex" x="197" y="320" flags="0x4"/>
    </TTGlyph>
    <TTGlyph name="Odieresis" xMin="55" yMin="-12" xMax="786" yMax="915">
      <component glyphName="O" x="0" y="0" flags="0x204"/>
      <component glyphName="dieresis" x="200" y="320" flags="0x4"/>
    </TTGlyph>
    <TTGlyph name="Ograve" xMin="55" yMin="-12" xMax="786" yMax="961">
      <component glyphName="O" x="0" y="0" flags="0x204"/>
      <component glyphName="grave" x="135" y="320" flags="0x4"/>
    </TTGlyph>
    <TTGlyph name="Ohungarumlaut" xMin="55" yMin="-12" xMax="786" yMax="998">
      <component glyphName="O" x="0" y="0" flags="0x204"/>
      <component glyphName="hungarumlaut" x="228" y="320" flags="0x4"/>
    </TTGlyph>
    <TTGlyph name="Omacron" xMin="55" yMin="-12" xMax="786" yMax="888">
      <component glyphName="O" x="0" y="0" flags="0x204"/>
      <component glyphName="macron" x="200" y="320" flags="0x4"/>
    </TTGlyph>
    <TTGlyph name="Oslash" xMin="55" yMin="-12" xMax="786" yMax="745">
      <contour>
        <pt x="786" y="366" on="1"/>
        <pt x="786" y="283" on="0"/>
        <pt x="726" y="145" on="0"/>
        <pt x="625" y="44" on="0"/>
        <pt x="491" y="-12" on="0"/>
        <pt x="417" y="-12" on="1"/>
        <pt x="351" y="-12" on="0"/>
        <pt x="234" y="32" on="0"/>
        <pt x="186" y="72" on="1"/>
        <pt x="172" y="58" on="0"/>
        <pt x="147" y="30" on="0"/>
        <pt x="136" y="19" on="1"/>
        <pt x="124" y="6" on="0"/>
        <pt x="112" y="-6" on="1"/>
        <pt x="63" y="44" on="1"/>
        <pt x="83" y="65" on="0"/>
        <pt x="100" y="82" on="1"/>
        <pt x="107" y="89" on="0"/>
        <pt x="121" y="104" on="0"/>
        <pt x="126" y="109" on="1"/>
        <pt x="132" y="115" on="0"/>
        <pt x="137" y="121" on="1"/>
        <pt x="99" y="170" on="0"/>
        <pt x="55" y="294" on="0"/>
        <pt x="55" y="366" on="1"/>
        <pt x="55" y="448" on="0"/>
        <pt x="115" y="588" on="0"/>
        <pt x="216" y="688" on="0"/>
        <pt x="350" y="745" on="0"/>
        <pt x="424" y="745" on="1"/>
        <pt x="490" y="745" on="0"/>
        <pt x="607" y="701" on="0"/>
        <pt x="655" y="660" on="1"/>
        <pt x="729" y="738" on="1"/>
        <pt x="778" y="689" on="1"/>
        <pt x="703" y="611" on="1"/>
        <pt x="742" y="562" on="0"/>
        <pt x="786" y="438" on="0"/>
      </contour>
      <contour>
        <pt x="601" y="604" on="1"/>
        <pt x="565" y="637" on="0"/>
        <pt x="475" y="673" on="0"/>
        <pt x="421" y="673" on="1"/>
        <pt x="360" y="673" on="0"/>
        <pt x="257" y="626" on="0"/>
        <pt x="183" y="543" on="0"/>
        <pt x="142" y="431" on="0"/>
        <pt x="142" y="366" on="1"/>
        <pt x="142" y="313" on="0"/>
        <pt x="169" y="219" on="0"/>
        <pt x="195" y="181" on="1"/>
      </contour>
      <contour>
        <pt x="699" y="366" on="1"/>
        <pt x="699" y="419" on="0"/>
        <pt x="672" y="513" on="0"/>
        <pt x="646" y="551" on="1"/>
        <pt x="532" y="432" on="0"/>
        <pt x="443" y="339" on="1"/>
        <pt x="405" y="299" on="0"/>
        <pt x="332" y="223" on="0"/>
        <pt x="303" y="193" on="1"/>
        <pt x="270" y="158" on="0"/>
        <pt x="240" y="127" on="1"/>
        <pt x="276" y="95" on="0"/>
        <pt x="367" y="59" on="0"/>
        <pt x="421" y="59" on="1"/>
        <pt x="482" y="59" on="0"/>
        <pt x="584" y="106" on="0"/>
        <pt x="658" y="189" on="0"/>
        <pt x="699" y="301" on="0"/>
      </contour>
    </TTGlyph>
    <TTGlyph name="Oslashacute" xMin="55" yMin="-12" xMax="786" yMax="963">
      <component glyphName="Oslash" x="0" y="0" flags="0x204"/>
      <component glyphName="acute" x="254" y="320" flags="0x4"/>
    </TTGlyph>
    <TTGlyph name="Otilde" xMin="55" yMin="-12" xMax="786" yMax="912">
      <component glyphName="O" x="0" y="0" flags="0x204"/>
      <component glyphName="tilde" x="204" y="320" flags="0x4"/>
    </TTGlyph>
    <TTGlyph name="P" xMin="80" yMin="0" xMax="530" yMax="738">
      <contour>
        <pt x="530" y="505" on="1"/>
        <pt x="530" y="450" on="0"/>
        <pt x="491" y="358" on="0"/>
        <pt x="417" y="292" on="0"/>
        <pt x="310" y="255" on="0"/>
        <pt x="243" y="255" on="1"/>
        <pt x="224" y="255" on="0"/>
        <pt x="179" y="257" on="0"/>
        <pt x="160" y="259" on="1"/>
        <pt x="160" y="0" on="1"/>
        <pt x="80" y="0" on="1"/>
        <pt x="80" y="726" on="1"/>
        <pt x="121" y="731" on="0"/>
        <pt x="203" y="738" on="0"/>
        <pt x="248" y="738" on="1"/>
        <pt x="319" y="738" on="0"/>
        <pt x="425" y="700" on="0"/>
        <pt x="495" y="636" on="0"/>
        <pt x="530" y="552" on="0"/>
      </contour>
      <contour>
        <pt x="444" y="499" on="1"/>
        <pt x="444" y="531" on="0"/>
        <pt x="421" y="591" on="0"/>
        <pt x="374" y="638" on="0"/>
        <pt x="305" y="666" on="0"/>
        <pt x="260" y="666" on="1"/>
        <pt x="234" y="666" on="0"/>
        <pt x="180" y="663" on="0"/>
        <pt x="160" y="658" on="1"/>
        <pt x="160" y="331" on="1"/>
        <pt x="179" y="329" on="0"/>
        <pt x="227" y="325" on="0"/>
        <pt x="248" y="325" on="1"/>
        <pt x="299" y="325" on="0"/>
        <pt x="373" y="353" on="0"/>
        <pt x="421" y="400" on="0"/>
        <pt x="444" y="463" on="0"/>
      </contour>
    </TTGlyph>
    <TTGlyph name="Q" xMin="55" yMin="-25" xMax="793" yMax="745">
      <contour>
        <pt x="742" y="-25" on="1"/>
        <pt x="726" y="-11" on="0"/>
        <pt x="709" y="5" on="1"/>
        <pt x="694" y="18" on="0"/>
        <pt x="658" y="50" on="0"/>
        <pt x="641" y="65" on="1"/>
        <pt x="593" y="28" on="0"/>
        <pt x="479" y="-12" on="0"/>
        <pt x="416" y="-12" on="1"/>
        <pt x="342" y="-12" on="0"/>
        <pt x="210" y="44" on="0"/>
        <pt x="112" y="145" on="0"/>
        <pt x="55" y="283" on="0"/>
        <pt x="55" y="366" on="1"/>
        <pt x="55" y="448" on="0"/>
        <pt x="114" y="588" on="0"/>
        <pt x="215" y="688" on="0"/>
        <pt x="349" y="745" on="0"/>
        <pt x="423" y="745" on="1"/>
        <pt x="498" y="745" on="0"/>
        <pt x="629" y="688" on="0"/>
        <pt x="728" y="588" on="0"/>
        <pt x="785" y="448" on="0"/>
        <pt x="785" y="366" on="1"/>
        <pt x="785" y="293" on="0"/>
        <pt x="739" y="168" on="0"/>
        <pt x="698" y="119" on="1"/>
        <pt x="714" y="104" on="0"/>
        <pt x="748" y="74" on="0"/>
        <pt x="762" y="62" on="1"/>
        <pt x="778" y="48" on="0"/>
        <pt x="793" y="34" on="1"/>
      </contour>
      <contour>
        <pt x="698" y="366" on="1"/>
        <pt x="698" y="431" on="0"/>
        <pt x="657" y="543" on="0"/>
        <pt x="583" y="626" on="0"/>
        <pt x="481" y="673" on="0"/>
        <pt x="420" y="673" on="1"/>
        <pt x="359" y="673" on="0"/>
        <pt x="257" y="626" on="0"/>
        <pt x="183" y="543" on="0"/>
        <pt x="142" y="431" on="0"/>
        <pt x="142" y="366" on="1"/>
        <pt x="142" y="301" on="0"/>
        <pt x="183" y="189" on="0"/>
        <pt x="257" y="106" on="0"/>
        <pt x="359" y="59" on="0"/>
        <pt x="420" y="59" on="1"/>
        <pt x="468" y="59" on="0"/>
        <pt x="551" y="89" on="0"/>
        <pt x="585" y="115" on="1"/>
        <pt x="575" y="124" on="0"/>
        <pt x="564" y="134" on="1"/>
        <pt x="554" y="142" on="0"/>
        <pt x="531" y="164" on="0"/>
        <pt x="518" y="175" on="1"/>
        <pt x="488" y="201" on="0"/>
        <pt x="451" y="236" on="1"/>
        <pt x="502" y="294" on="1"/>
        <pt x="540" y="260" on="0"/>
        <pt x="570" y="233" on="1"/>
        <pt x="583" y="221" on="0"/>
        <pt x="607" y="199" on="0"/>
        <pt x="617" y="190" on="1"/>
        <pt x="628" y="179" on="0"/>
        <pt x="639" y="171" on="1"/>
        <pt x="667" y="211" on="0"/>
        <pt x="698" y="309" on="0"/>
      </contour>
    </TTGlyph>
    <TTGlyph name="R" xMin="81" yMin="0" xMax="585" yMax="738">
      <contour>
        <pt x="488" y="0" on="1"/>
        <pt x="293" y="289" on="1"/>
        <pt x="281" y="288" on="0"/>
        <pt x="257" y="287" on="0"/>
        <pt x="244" y="287" on="1"/>
        <pt x="226" y="287" on="0"/>
        <pt x="179" y="288" on="0"/>
        <pt x="161" y="289" on="1"/>
        <pt x="161" y="0" on="1"/>
        <pt x="81" y="0" on="1"/>
        <pt x="81" y="726" on="1"/>
        <pt x="122" y="731" on="0"/>
        <pt x="204" y="738" on="0"/>
        <pt x="250" y="738" on="1"/>
        <pt x="321" y="738" on="0"/>
        <pt x="427" y="705" on="0"/>
        <pt x="497" y="646" on="0"/>
        <pt x="532" y="565" on="0"/>
        <pt x="532" y="518" on="1"/>
        <pt x="532" y="441" on="0"/>
        <pt x="450" y="331" on="0"/>
        <pt x="372" y="306" on="1"/>
        <pt x="585" y="0" on="1"/>
      </contour>
      <contour>
        <pt x="446" y="513" on="1"/>
        <pt x="446" y="545" on="0"/>
        <pt x="422" y="601" on="0"/>
        <pt x="376" y="642" on="0"/>
        <pt x="307" y="666" on="0"/>
        <pt x="262" y="666" on="1"/>
        <pt x="236" y="666" on="0"/>
        <pt x="181" y="663" on="0"/>
        <pt x="161" y="658" on="1"/>
        <pt x="161" y="360" on="1"/>
        <pt x="179" y="358" on="0"/>
        <pt x="229" y="355" on="0"/>
        <pt x="250" y="355" on="1"/>
        <pt x="353" y="355" on="0"/>
        <pt x="446" y="441" on="0"/>
      </contour>
    </TTGlyph>
    <TTGlyph name="Racute" xMin="81" yMin="0" xMax="585" yMax="963">
      <component glyphName="R" x="0" y="0" flags="0x204"/>
      <component glyphName="acute" x="122" y="320" flags="0x4"/>
    </TTGlyph>
    <TTGlyph name="Rcaron" xMin="81" yMin="0" xMax="585" yMax="958">
      <component glyphName="R" x="0" y="0" flags="0x204"/>
      <component glyphName="caron" x="70" y="320" flags="0x4"/>
    </TTGlyph>
    <TTGlyph name="Rcommaaccent" xMin="81" yMin="-273" xMax="585" yMax="738">
      <component glyphName="R" x="0" y="0" flags="0x204"/>
      <component glyphName="commaaccent" x="200" y="15" flags="0x4"/>
    </TTGlyph>
    <TTGlyph name="S" xMin="25" yMin="-12" xMax="461" yMax="745">
      <contour>
        <pt x="461" y="198" on="1"/>
        <pt x="461" y="153" on="0"/>
        <pt x="427" y="77" on="0"/>
        <pt x="367" y="20" on="0"/>
        <pt x="285" y="-12" on="0"/>
        <pt x="237" y="-12" on="1"/>
        <pt x="174" y="-12" on="0"/>
        <pt x="73" y="24" on="0"/>
        <pt x="25" y="56" on="1"/>
        <pt x="64" y="126" on="1"/>
        <pt x="106" y="96" on="0"/>
        <pt x="198" y="61" on="0"/>
        <pt x="241" y="61" on="1"/>
        <pt x="276" y="61" on="0"/>
        <pt x="328" y="82" on="0"/>
        <pt x="362" y="118" on="0"/>
        <pt x="379" y="164" on="0"/>
        <pt x="379" y="189" on="1"/>
        <pt x="379" y="213" on="0"/>
        <pt x="367" y="253" on="0"/>
        <pt x="336" y="289" on="0"/>
        <pt x="279" y="324" on="0"/>
        <pt x="234" y="344" on="1"/>
        <pt x="186" y="365" on="0"/>
        <pt x="120" y="408" on="0"/>
        <pt x="79" y="457" on="0"/>
        <pt x="60" y="512" on="0"/>
        <pt x="60" y="545" on="1"/>
        <pt x="60" y="585" on="0"/>
        <pt x="92" y="657" on="0"/>
        <pt x="151" y="712" on="0"/>
        <pt x="234" y="745" on="0"/>
        <pt x="284" y="745" on="1"/>
        <pt x="331" y="745" on="0"/>
        <pt x="415" y="717" on="0"/>
        <pt x="447" y="695" on="1"/>
        <pt x="411" y="627" on="1"/>
        <pt x="384" y="647" on="0"/>
        <pt x="315" y="672" on="0"/>
        <pt x="279" y="672" on="1"/>
        <pt x="244" y="672" on="0"/>
        <pt x="192" y="652" on="0"/>
        <pt x="158" y="619" on="0"/>
        <pt x="140" y="574" on="0"/>
        <pt x="140" y="549" on="1"/>
        <pt x="140" y="511" on="0"/>
        <pt x="197" y="447" on="0"/>
        <pt x="265" y="416" on="1"/>
        <pt x="322" y="390" on="0"/>
        <pt x="398" y="343" on="0"/>
        <pt x="443" y="293" on="0"/>
        <pt x="461" y="235" on="0"/>
      </contour>
    </TTGlyph>
    <TTGlyph name="Sacute" xMin="25" yMin="-12" xMax="461" yMax="963">
      <component glyphName="S" x="0" y="0" flags="0x204"/>
      <component glyphName="acute" x="101" y="320" flags="0x4"/>
    </TTGlyph>
    <TTGlyph name="Scaron" xMin="25" yMin="-12" xMax="461" yMax="958">
      <component glyphName="S" x="0" y="0" flags="0x204"/>
      <component glyphName="caron" x="49" y="320" flags="0x4"/>
    </TTGlyph>
    <TTGlyph name="Scedilla" xMin="25" yMin="-237" xMax="461" yMax="745">
      <contour>
        <pt x="343" y="-146" on="1"/>
        <pt x="343" y="-182" on="0"/>
        <pt x="295" y="-237" on="0"/>
        <pt x="244" y="-237" on="1"/>
        <pt x="218" y="-237" on="0"/>
        <pt x="165" y="-220" on="0"/>
        <pt x="136" y="-203" on="1"/>
        <pt x="159" y="-157" on="1"/>
        <pt x="183" y="-171" on="0"/>
        <pt x="224" y="-184" on="0"/>
        <pt x="244" y="-184" on="1"/>
        <pt x="263" y="-184" on="0"/>
        <pt x="283" y="-164" on="0"/>
        <pt x="283" y="-148" on="1"/>
        <pt x="283" y="-130" on="0"/>
        <pt x="241" y="-99" on="0"/>
        <pt x="190" y="-96" on="1"/>
        <pt x="186" y="-88" on="1"/>
        <pt x="206" y="-11" on="1"/>
        <pt x="154" y="-6" on="0"/>
        <pt x="67" y="28" on="0"/>
        <pt x="25" y="56" on="1"/>
        <pt x="64" y="126" on="1"/>
        <pt x="106" y="96" on="0"/>
        <pt x="198" y="61" on="0"/>
        <pt x="241" y="61" on="1"/>
        <pt x="276" y="61" on="0"/>
        <pt x="328" y="82" on="0"/>
        <pt x="362" y="118" on="0"/>
        <pt x="379" y="164" on="0"/>
        <pt x="379" y="189" on="1"/>
        <pt x="379" y="213" on="0"/>
        <pt x="367" y="253" on="0"/>
        <pt x="336" y="289" on="0"/>
        <pt x="279" y="324" on="0"/>
        <pt x="234" y="344" on="1"/>
        <pt x="186" y="365" on="0"/>
        <pt x="120" y="408" on="0"/>
        <pt x="79" y="457" on="0"/>
        <pt x="60" y="512" on="0"/>
        <pt x="60" y="545" on="1"/>
        <pt x="60" y="585" on="0"/>
        <pt x="92" y="657" on="0"/>
        <pt x="151" y="712" on="0"/>
        <pt x="234" y="745" on="0"/>
        <pt x="284" y="745" on="1"/>
        <pt x="331" y="745" on="0"/>
        <pt x="415" y="717" on="0"/>
        <pt x="447" y="695" on="1"/>
        <pt x="411" y="627" on="1"/>
        <pt x="384" y="647" on="0"/>
        <pt x="315" y="672" on="0"/>
        <pt x="279" y="672" on="1"/>
        <pt x="244" y="672" on="0"/>
        <pt x="192" y="652" on="0"/>
        <pt x="158" y="619" on="0"/>
        <pt x="140" y="574" on="0"/>
        <pt x="140" y="549" on="1"/>
        <pt x="140" y="511" on="0"/>
        <pt x="197" y="447" on="0"/>
        <pt x="265" y="416" on="1"/>
        <pt x="322" y="390" on="0"/>
        <pt x="398" y="343" on="0"/>
        <pt x="443" y="293" on="0"/>
        <pt x="461" y="235" on="0"/>
        <pt x="461" y="198" on="1"/>
        <pt x="461" y="156" on="0"/>
        <pt x="430" y="82" on="0"/>
        <pt x="375" y="26" on="0"/>
        <pt x="299" y="-8" on="0"/>
        <pt x="255" y="-11" on="1"/>
        <pt x="245" y="-51" on="1"/>
        <pt x="301" y="-64" on="0"/>
        <pt x="343" y="-117" on="0"/>
      </contour>
    </TTGlyph>
    <TTGlyph name="Scommaaccent" xMin="25" yMin="-288" xMax="461" yMax="745">
      <component glyphName="S" x="0" y="0" flags="0x204"/>
      <component glyphName="commaaccent" x="149" y="0" flags="0x4"/>
    </TTGlyph>
    <TTGlyph name="T" xMin="25" yMin="0" xMax="594" yMax="733">
      <contour>
        <pt x="350" y="661" on="1"/>
        <pt x="350" y="0" on="1"/>
        <pt x="270" y="0" on="1"/>
        <pt x="270" y="661" on="1"/>
        <pt x="25" y="661" on="1"/>
        <pt x="25" y="733" on="1"/>
        <pt x="594" y="733" on="1"/>
        <pt x="594" y="661" on="1"/>
      </contour>
    </TTGlyph>
    <TTGlyph name="Tcaron" xMin="25" yMin="0" xMax="594" yMax="958">
      <component glyphName="T" x="0" y="0" flags="0x204"/>
      <component glyphName="caron" x="91" y="320" flags="0x4"/>
    </TTGlyph>
    <TTGlyph name="Tcommaaccent" xMin="25" yMin="-288" xMax="594" yMax="733">
      <component glyphName="T" x="0" y="0" flags="0x204"/>
      <component glyphName="commaaccent" x="221" y="0" flags="0x4"/>
    </TTGlyph>
    <TTGlyph name="Thorn" xMin="80" yMin="0" xMax="530" yMax="733">
      <contour>
        <pt x="530" y="376" on="1"/>
        <pt x="530" y="321" on="0"/>
        <pt x="491" y="228" on="0"/>
        <pt x="417" y="161" on="0"/>
        <pt x="310" y="124" on="0"/>
        <pt x="243" y="124" on="1"/>
        <pt x="224" y="124" on="0"/>
        <pt x="179" y="126" on="0"/>
        <pt x="160" y="128" on="1"/>
        <pt x="160" y="0" on="1"/>
        <pt x="80" y="0" on="1"/>
        <pt x="80" y="733" on="1"/>
        <pt x="160" y="733" on="1"/>
        <pt x="160" y="607" on="1"/>
        <pt x="182" y="609" on="0"/>
        <pt x="225" y="611" on="0"/>
        <pt x="248" y="611" on="1"/>
        <pt x="319" y="611" on="0"/>
        <pt x="425" y="573" on="0"/>
        <pt x="495" y="508" on="0"/>
        <pt x="530" y="423" on="0"/>
      </contour>
      <contour>
        <pt x="444" y="370" on="1"/>
        <pt x="444" y="402" on="0"/>
        <pt x="421" y="462" on="0"/>
        <pt x="374" y="509" on="0"/>
        <pt x="305" y="537" on="0"/>
        <pt x="260" y="537" on="1"/>
        <pt x="234" y="537" on="0"/>
        <pt x="180" y="534" on="0"/>
        <pt x="160" y="529" on="1"/>
        <pt x="160" y="202" on="1"/>
        <pt x="179" y="200" on="0"/>
        <pt x="227" y="196" on="0"/>
        <pt x="248" y="196" on="1"/>
        <pt x="299" y="196" on="0"/>
        <pt x="373" y="224" on="0"/>
        <pt x="421" y="271" on="0"/>
        <pt x="444" y="334" on="0"/>
      </contour>
    </TTGlyph>
    <TTGlyph name="U" xMin="71" yMin="-12" xMax="623" yMax="733">
      <contour>
        <pt x="623" y="263" on="1"/>
        <pt x="623" y="199" on="0"/>
        <pt x="583" y="97" on="0"/>
        <pt x="509" y="26" on="0"/>
        <pt x="407" y="-12" on="0"/>
        <pt x="346" y="-12" on="1"/>
        <pt x="283" y="-12" on="0"/>
        <pt x="181" y="24" on="0"/>
        <pt x="110" y="95" on="0"/>
        <pt x="71" y="197" on="0"/>
        <pt x="71" y="263" on="1"/>
        <pt x="71" y="733" on="1"/>
        <pt x="151" y="733" on="1"/>
        <pt x="151" y="269" on="1"/>
        <pt x="151" y="214" on="0"/>
        <pt x="180" y="135" on="0"/>
        <pt x="231" y="84" on="0"/>
        <pt x="303" y="60" on="0"/>
        <pt x="346" y="60" on="1"/>
        <pt x="389" y="60" on="0"/>
        <pt x="461" y="84" on="0"/>
        <pt x="513" y="135" on="0"/>
        <pt x="543" y="214" on="0"/>
        <pt x="543" y="269" on="1"/>
        <pt x="543" y="733" on="1"/>
        <pt x="623" y="733" on="1"/>
      </contour>
    </TTGlyph>
    <TTGlyph name="Uacute" xMin="71" yMin="-12" xMax="623" yMax="948">
      <component glyphName="U" x="0" y="0" flags="0x204"/>
      <component glyphName="acute" x="182" y="305" flags="0x4"/>
    </TTGlyph>
    <TTGlyph name="Ubreve" xMin="71" yMin="-12" xMax="623" yMax="910">
      <component glyphName="U" x="0" y="0" flags="0x204"/>
      <component glyphName="breve" x="128" y="305" flags="0x4"/>
    </TTGlyph>
    <TTGlyph name="Ucircumflex" xMin="71" yMin="-12" xMax="623" yMax="954">
      <component glyphName="U" x="0" y="0" flags="0x204"/>
      <component glyphName="circumflex" x="125" y="305" flags="0x4"/>
    </TTGlyph>
    <TTGlyph name="Udieresis" xMin="71" yMin="-12" xMax="623" yMax="900">
      <component glyphName="U" x="0" y="0" flags="0x204"/>
      <component glyphName="dieresis" x="128" y="305" flags="0x4"/>
    </TTGlyph>
    <TTGlyph name="Ugrave" xMin="71" yMin="-12" xMax="623" yMax="946">
      <component glyphName="U" x="0" y="0" flags="0x204"/>
      <component glyphName="grave" x="63" y="305" flags="0x4"/>
    </TTGlyph>
    <TTGlyph name="Uhungarumlaut" xMin="71" yMin="-12" xMax="623" yMax="983">
      <component glyphName="U" x="0" y="0" flags="0x204"/>
      <component glyphName="hungarumlaut" x="156" y="305" flags="0x4"/>
    </TTGlyph>
    <TTGlyph name="Umacron" xMin="71" yMin="-12" xMax="623" yMax="873">
      <component glyphName="U" x="0" y="0" flags="0x204"/>
      <component glyphName="macron" x="128" y="305" flags="0x4"/>
    </TTGlyph>
    <TTGlyph name="Uogonek" xMin="71" yMin="-220" xMax="623" yMax="733">
      <contour>
        <pt x="434" y="-168" on="1"/>
        <pt x="414" y="-194" on="0"/>
        <pt x="372" y="-218" on="0"/>
        <pt x="344" y="-219" on="1"/>
        <pt x="306" y="-220" on="0"/>
        <pt x="261" y="-173" on="0"/>
        <pt x="262" y="-138" on="1"/>
        <pt x="263" y="-111" on="0"/>
        <pt x="290" y="-56" on="0"/>
        <pt x="328" y="-12" on="1"/>
        <pt x="209" y="-7" on="0"/>
        <pt x="71" y="135" on="0"/>
        <pt x="71" y="263" on="1"/>
        <pt x="71" y="733" on="1"/>
        <pt x="151" y="733" on="1"/>
        <pt x="151" y="269" on="1"/>
        <pt x="151" y="214" on="0"/>
        <pt x="180" y="135" on="0"/>
        <pt x="231" y="84" on="0"/>
        <pt x="303" y="60" on="0"/>
        <pt x="346" y="60" on="1"/>
        <pt x="389" y="60" on="0"/>
        <pt x="461" y="84" on="0"/>
        <pt x="513" y="135" on="0"/>
        <pt x="543" y="214" on="0"/>
        <pt x="543" y="269" on="1"/>
        <pt x="543" y="733" on="1"/>
        <pt x="623" y="733" on="1"/>
        <pt x="623" y="263" on="1"/>
        <pt x="623" y="204" on="0"/>
        <pt x="589" y="109" on="0"/>
        <pt x="527" y="39" on="0"/>
        <pt x="439" y="-3" on="0"/>
        <pt x="386" y="-9" on="1"/>
        <pt x="353" y="-51" on="0"/>
        <pt x="325" y="-105" on="0"/>
        <pt x="325" y="-128" on="1"/>
        <pt x="325" y="-147" on="0"/>
        <pt x="343" y="-167" on="0"/>
        <pt x="357" y="-167" on="1"/>
        <pt x="370" y="-167" on="0"/>
        <pt x="390" y="-155" on="0"/>
        <pt x="404" y="-140" on="1"/>
      </contour>
    </TTGlyph>
    <TTGlyph name="Uring" xMin="71" yMin="-12" xMax="623" yMax="995">
      <component glyphName="U" x="0" y="0" flags="0x204"/>
      <component glyphName="ring" x="128" y="305" flags="0x4"/>
    </TTGlyph>
    <TTGlyph name="V" xMin="5" yMin="-13" xMax="670" yMax="733">
      <contour>
        <pt x="344" y="-13" on="1"/>
        <pt x="331" y="-13" on="1"/>
        <pt x="5" y="733" on="1"/>
        <pt x="95" y="733" on="1"/>
        <pt x="340" y="153" on="1"/>
        <pt x="583" y="733" on="1"/>
        <pt x="670" y="733" on="1"/>
      </contour>
    </TTGlyph>
    <TTGlyph name="W" xMin="10" yMin="-14" xMax="906" yMax="739">
      <contour>
        <pt x="704" y="-12" on="1"/>
        <pt x="688" y="-14" on="1"/>
        <pt x="456" y="566" on="1"/>
        <pt x="228" y="-14" on="1"/>
        <pt x="212" y="-12" on="1"/>
        <pt x="10" y="733" on="1"/>
        <pt x="91" y="733" on="1"/>
        <pt x="236" y="193" on="1"/>
        <pt x="453" y="739" on="1"/>
        <pt x="463" y="739" on="1"/>
        <pt x="681" y="196" on="1"/>
        <pt x="825" y="733" on="1"/>
        <pt x="906" y="733" on="1"/>
      </contour>
    </TTGlyph>
    <TTGlyph name="Wacute" xMin="10" yMin="-14" xMax="906" yMax="963">
      <component glyphName="W" x="0" y="0" flags="0x204"/>
      <component glyphName="acute" x="292" y="320" flags="0x4"/>
    </TTGlyph>
    <TTGlyph name="Wcircumflex" xMin="10" yMin="-14" xMax="906" yMax="969">
      <component glyphName="W" x="0" y="0" flags="0x204"/>
      <component glyphName="circumflex" x="235" y="320" flags="0x4"/>
    </TTGlyph>
    <TTGlyph name="Wdieresis" xMin="10" yMin="-14" xMax="906" yMax="915">
      <component glyphName="W" x="0" y="0" flags="0x204"/>
      <component glyphName="dieresis" x="238" y="320" flags="0x4"/>
    </TTGlyph>
    <TTGlyph name="Wgrave" xMin="10" yMin="-14" xMax="906" yMax="961">
      <component glyphName="W" x="0" y="0" flags="0x204"/>
      <component glyphName="grave" x="173" y="320" flags="0x4"/>
    </TTGlyph>
    <TTGlyph name="X" xMin="20" yMin="0" xMax="648" yMax="733">
      <contour>
        <pt x="552" y="0" on="1"/>
        <pt x="333" y="309" on="1"/>
        <pt x="113" y="0" on="1"/>
        <pt x="20" y="0" on="1"/>
        <pt x="290" y="365" on="1"/>
        <pt x="20" y="733" on="1"/>
        <pt x="116" y="733" on="1"/>
        <pt x="335" y="424" on="1"/>
        <pt x="555" y="733" on="1"/>
        <pt x="648" y="733" on="1"/>
        <pt x="378" y="368" on="1"/>
        <pt x="648" y="0" on="1"/>
      </contour>
    </TTGlyph>
    <TTGlyph name="Y" xMin="20" yMin="0" xMax="615" yMax="733">
      <contour>
        <pt x="357" y="325" on="1"/>
        <pt x="357" y="0" on="1"/>
        <pt x="277" y="0" on="1"/>
        <pt x="277" y="326" on="1"/>
        <pt x="20" y="733" on="1"/>
        <pt x="110" y="733" on="1"/>
        <pt x="320" y="393" on="1"/>
        <pt x="527" y="733" on="1"/>
        <pt x="615" y="733" on="1"/>
      </contour>
    </TTGlyph>
    <TTGlyph name="Yacute" xMin="20" yMin="0" xMax="615" yMax="948">
      <component glyphName="Y" x="0" y="0" flags="0x204"/>
      <component glyphName="acute" x="151" y="305" flags="0x4"/>
    </TTGlyph>
    <TTGlyph name="Ycircumflex" xMin="20" yMin="0" xMax="615" yMax="954">
      <component glyphName="Y" x="0" y="0" flags="0x204"/>
      <component glyphName="circumflex" x="94" y="305" flags="0x4"/>
    </TTGlyph>
    <TTGlyph name="Ydieresis" xMin="20" yMin="0" xMax="615" yMax="900">
      <component glyphName="Y" x="0" y="0" flags="0x204"/>
      <component glyphName="dieresis" x="97" y="305" flags="0x4"/>
    </TTGlyph>
    <TTGlyph name="Ygrave" xMin="20" yMin="0" xMax="615" yMax="946">
      <component glyphName="Y" x="0" y="0" flags="0x204"/>
      <component glyphName="grave" x="32" y="305" flags="0x4"/>
    </TTGlyph>
    <TTGlyph name="Z" xMin="37" yMin="0" xMax="578" yMax="733">
      <contour>
        <pt x="163" y="72" on="1"/>
        <pt x="573" y="72" on="1"/>
        <pt x="573" y="0" on="1"/>
        <pt x="42" y="0" on="1"/>
        <pt x="37" y="11" on="1"/>
        <pt x="452" y="661" on="1"/>
        <pt x="63" y="661" on="1"/>
        <pt x="63" y="733" on="1"/>
        <pt x="573" y="733" on="1"/>
        <pt x="578" y="721" on="1"/>
      </contour>
    </TTGlyph>
    <TTGlyph name="Zacute" xMin="37" yMin="0" xMax="578" yMax="963">
      <component glyphName="Z" x="0" y="0" flags="0x204"/>
      <component glyphName="acute" x="141" y="320" flags="0x4"/>
    </TTGlyph>
    <TTGlyph name="Zcaron" xMin="37" yMin="0" xMax="578" yMax="958">
      <component glyphName="Z" x="0" y="0" flags="0x204"/>
      <component glyphName="caron" x="89" y="320" flags="0x4"/>
    </TTGlyph>
    <TTGlyph name="Zdotaccent" xMin="37" yMin="0" xMax="578" yMax="915">
      <component glyphName="Z" x="0" y="0" flags="0x204"/>
      <component glyphName="dotaccent" x="87" y="320" flags="0x4"/>
    </TTGlyph>
    <TTGlyph name="a" xMin="33" yMin="-8" xMax="388" yMax="428">
      <contour>
        <pt x="315" y="0" on="1"/>
        <pt x="315" y="44" on="1"/>
        <pt x="289" y="19" on="0"/>
        <pt x="224" y="-8" on="0"/>
        <pt x="185" y="-8" on="1"/>
        <pt x="154" y="-8" on="0"/>
        <pt x="99" y="10" on="0"/>
        <pt x="57" y="44" on="0"/>
        <pt x="33" y="95" on="0"/>
        <pt x="33" y="127" on="1"/>
        <pt x="33" y="155" on="0"/>
        <pt x="56" y="204" on="0"/>
        <pt x="96" y="238" on="0"/>
        <pt x="152" y="258" on="0"/>
        <pt x="184" y="258" on="1"/>
        <pt x="228" y="258" on="0"/>
        <pt x="284" y="241" on="0"/>
        <pt x="311" y="230" on="1"/>
        <pt x="311" y="255" on="1"/>
        <pt x="311" y="309" on="0"/>
        <pt x="259" y="359" on="0"/>
        <pt x="201" y="359" on="1"/>
        <pt x="171" y="359" on="0"/>
        <pt x="113" y="347" on="0"/>
        <pt x="91" y="338" on="1"/>
        <pt x="78" y="406" on="1"/>
        <pt x="107" y="415" on="0"/>
        <pt x="179" y="428" on="0"/>
        <pt x="211" y="428" on="1"/>
        <pt x="302" y="428" on="0"/>
        <pt x="388" y="341" on="0"/>
        <pt x="388" y="250" on="1"/>
        <pt x="388" y="0" on="1"/>
      </contour>
      <contour>
        <pt x="311" y="164" on="1"/>
        <pt x="279" y="181" on="0"/>
        <pt x="232" y="198" on="0"/>
        <pt x="197" y="198" on="1"/>
        <pt x="156" y="198" on="0"/>
        <pt x="108" y="162" on="0"/>
        <pt x="108" y="127" on="1"/>
        <pt x="108" y="92" on="0"/>
        <pt x="158" y="55" on="0"/>
        <pt x="205" y="55" on="1"/>
        <pt x="238" y="55" on="0"/>
        <pt x="291" y="84" on="0"/>
        <pt x="311" y="107" on="1"/>
      </contour>
    </TTGlyph>
    <TTGlyph name="aacute" xMin="33" yMin="-8" xMax="388" yMax="643">
      <component glyphName="a" x="0" y="0" flags="0x204"/>
      <component glyphName="acute" x="59" y="0" flags="0x4"/>
    </TTGlyph>
    <TTGlyph name="abreve" xMin="33" yMin="-8" xMax="388" yMax="605">
      <component glyphName="a" x="0" y="0" flags="0x204"/>
      <component glyphName="breve" x="5" y="0" flags="0x4"/>
    </TTGlyph>
    <TTGlyph name="acircumflex" xMin="33" yMin="-8" xMax="388" yMax="649">
      <component glyphName="a" x="0" y="0" flags="0x204"/>
      <component glyphName="circumflex" x="2" y="0" flags="0x4"/>
    </TTGlyph>
    <TTGlyph name="acute" xMin="110" yMin="474" xMax="324" yMax="643">
      <contour>
        <pt x="133" y="474" on="1"/>
        <pt x="110" y="518" on="1"/>
        <pt x="285" y="643" on="1"/>
        <pt x="324" y="563" on="1"/>
      </contour>
    </TTGlyph>
    <TTGlyph name="adieresis" xMin="33" yMin="-8" xMax="388" yMax="595">
      <component glyphName="a" x="0" y="0" flags="0x204"/>
      <component glyphName="dieresis" x="5" y="0" flags="0x4"/>
    </TTGlyph>
    <TTGlyph name="ae" xMin="33" yMin="-8" xMax="699" yMax="428">
      <contour>
        <pt x="311" y="255" on="1"/>
        <pt x="311" y="309" on="0"/>
        <pt x="260" y="359" on="0"/>
        <pt x="201" y="359" on="1"/>
        <pt x="171" y="359" on="0"/>
        <pt x="114" y="347" on="0"/>
        <pt x="91" y="338" on="1"/>
        <pt x="78" y="406" on="1"/>
        <pt x="107" y="415" on="0"/>
        <pt x="180" y="428" on="0"/>
        <pt x="212" y="428" on="1"/>
        <pt x="271" y="428" on="0"/>
        <pt x="343" y="391" on="0"/>
        <pt x="361" y="353" on="1"/>
        <pt x="386" y="387" on="0"/>
        <pt x="463" y="428" on="0"/>
        <pt x="515" y="428" on="1"/>
        <pt x="559" y="428" on="0"/>
        <pt x="628" y="397" on="0"/>
        <pt x="675" y="343" on="0"/>
        <pt x="699" y="269" on="0"/>
        <pt x="699" y="226" on="1"/>
        <pt x="699" y="215" on="0"/>
        <pt x="698" y="197" on="0"/>
        <pt x="696" y="186" on="1"/>
        <pt x="388" y="186" on="1"/>
        <pt x="391" y="159" on="0"/>
        <pt x="410" y="113" on="0"/>
        <pt x="447" y="79" on="0"/>
        <pt x="504" y="60" on="0"/>
        <pt x="545" y="60" on="1"/>
        <pt x="571" y="60" on="0"/>
        <pt x="631" y="73" on="0"/>
        <pt x="660" y="83" on="1"/>
        <pt x="674" y="16" on="1"/>
        <pt x="639" y="5" on="0"/>
        <pt x="567" y="-8" on="0"/>
        <pt x="538" y="-8" on="1"/>
        <pt x="472" y="-8" on="0"/>
        <pt x="380" y="38" on="0"/>
        <pt x="354" y="76" on="1"/>
        <pt x="326" y="36" on="0"/>
        <pt x="238" y="-8" on="0"/>
        <pt x="185" y="-8" on="1"/>
        <pt x="154" y="-8" on="0"/>
        <pt x="99" y="10" on="0"/>
        <pt x="57" y="44" on="0"/>
        <pt x="33" y="95" on="0"/>
        <pt x="33" y="127" on="1"/>
        <pt x="33" y="155" on="0"/>
        <pt x="56" y="204" on="0"/>
        <pt x="96" y="238" on="0"/>
        <pt x="151" y="258" on="0"/>
        <pt x="183" y="258" on="1"/>
        <pt x="226" y="258" on="0"/>
        <pt x="286" y="240" on="0"/>
        <pt x="311" y="229" on="1"/>
      </contour>
      <contour>
        <pt x="626" y="246" on="1"/>
        <pt x="622" y="295" on="0"/>
        <pt x="566" y="362" on="0"/>
        <pt x="509" y="362" on="1"/>
        <pt x="458" y="362" on="0"/>
        <pt x="398" y="300" on="0"/>
        <pt x="391" y="246" on="1"/>
      </contour>
      <contour>
        <pt x="317" y="152" on="1"/>
        <pt x="298" y="172" on="0"/>
        <pt x="232" y="198" on="0"/>
        <pt x="197" y="198" on="1"/>
        <pt x="156" y="198" on="0"/>
        <pt x="108" y="162" on="0"/>
        <pt x="108" y="127" on="1"/>
        <pt x="108" y="92" on="0"/>
        <pt x="158" y="55" on="0"/>
        <pt x="205" y="55" on="1"/>
        <pt x="221" y="55" on="0"/>
        <pt x="255" y="66" on="0"/>
        <pt x="285" y="89" on="0"/>
        <pt x="310" y="126" on="0"/>
      </contour>
    </TTGlyph>
    <TTGlyph name="aeacute" xMin="33" yMin="-8" xMax="699" yMax="643">
      <component glyphName="ae" x="0" y="0" flags="0x204"/>
      <component glyphName="acute" x="200" y="0" flags="0x4"/>
    </TTGlyph>
    <TTGlyph name="agrave" xMin="33" yMin="-8" xMax="388" yMax="641">
      <component glyphName="a" x="0" y="0" flags="0x204"/>
      <component glyphName="grave" x="-59" y="0" flags="0x4"/>
    </TTGlyph>
    <TTGlyph name="amacron" xMin="33" yMin="-8" xMax="388" yMax="568">
      <component glyphName="a" x="0" y="0" flags="0x204"/>
      <component glyphName="macron" x="5" y="0" flags="0x4"/>
    </TTGlyph>
    <TTGlyph name="ampersand" xMin="50" yMin="-16" xMax="567" yMax="586">
      <contour>
        <pt x="567" y="242" on="1"/>
        <pt x="541" y="209" on="0"/>
        <pt x="491" y="147" on="0"/>
        <pt x="465" y="119" on="1"/>
        <pt x="488" y="99" on="0"/>
        <pt x="537" y="58" on="0"/>
        <pt x="563" y="37" on="1"/>
        <pt x="517" y="-16" on="1"/>
        <pt x="490" y="5" on="0"/>
        <pt x="439" y="47" on="0"/>
        <pt x="414" y="68" on="1"/>
        <pt x="373" y="33" on="0"/>
        <pt x="284" y="-10" on="0"/>
        <pt x="231" y="-10" on="1"/>
        <pt x="193" y="-10" on="0"/>
        <pt x="127" y="11" on="0"/>
        <pt x="78" y="52" on="0"/>
        <pt x="50" y="112" on="0"/>
        <pt x="50" y="152" on="1"/>
        <pt x="50" y="208" on="0"/>
        <pt x="124" y="288" on="0"/>
        <pt x="184" y="316" on="1"/>
        <pt x="165" y="347" on="0"/>
        <pt x="145" y="405" on="0"/>
        <pt x="145" y="431" on="1"/>
        <pt x="145" y="464" on="0"/>
        <pt x="172" y="521" on="0"/>
        <pt x="215" y="563" on="0"/>
        <pt x="269" y="586" on="0"/>
        <pt x="296" y="586" on="1"/>
        <pt x="331" y="586" on="0"/>
        <pt x="383" y="563" on="0"/>
        <pt x="418" y="526" on="0"/>
        <pt x="436" y="480" on="0"/>
        <pt x="436" y="458" on="1"/>
        <pt x="436" y="436" on="0"/>
        <pt x="423" y="390" on="0"/>
        <pt x="390" y="345" on="0"/>
        <pt x="335" y="304" on="0"/>
        <pt x="293" y="287" on="1"/>
        <pt x="341" y="228" on="0"/>
        <pt x="416" y="162" on="1"/>
        <pt x="442" y="189" on="0"/>
        <pt x="490" y="250" on="0"/>
        <pt x="513" y="282" on="1"/>
      </contour>
      <contour>
        <pt x="367" y="450" on="1"/>
        <pt x="367" y="480" on="0"/>
        <pt x="326" y="524" on="0"/>
        <pt x="296" y="524" on="1"/>
        <pt x="281" y="524" on="0"/>
        <pt x="253" y="510" on="0"/>
        <pt x="232" y="486" on="0"/>
        <pt x="219" y="454" on="0"/>
        <pt x="219" y="435" on="1"/>
        <pt x="219" y="394" on="0"/>
        <pt x="256" y="337" on="1"/>
        <pt x="318" y="363" on="0"/>
        <pt x="367" y="421" on="0"/>
      </contour>
      <contour>
        <pt x="365" y="112" on="1"/>
        <pt x="321" y="152" on="0"/>
        <pt x="248" y="228" on="0"/>
        <pt x="220" y="264" on="1"/>
        <pt x="179" y="248" on="0"/>
        <pt x="127" y="189" on="0"/>
        <pt x="127" y="151" on="1"/>
        <pt x="127" y="107" on="0"/>
        <pt x="187" y="56" on="0"/>
        <pt x="235" y="56" on="1"/>
        <pt x="270" y="56" on="0"/>
        <pt x="334" y="86" on="0"/>
      </contour>
    </TTGlyph>
    <TTGlyph name="ampersand.cap" xMin="55" yMin="-18" xMax="702" yMax="743">
      <contour>
        <pt x="293" y="415" on="1"/>
        <pt x="323" y="424" on="0"/>
        <pt x="381" y="453" on="0"/>
        <pt x="427" y="493" on="0"/>
        <pt x="455" y="543" on="0"/>
        <pt x="455" y="573" on="1"/>
        <pt x="455" y="617" on="0"/>
        <pt x="399" y="675" on="0"/>
        <pt x="354" y="675" on="1"/>
        <pt x="330" y="675" on="0"/>
        <pt x="290" y="656" on="0"/>
        <pt x="261" y="624" on="0"/>
        <pt x="245" y="580" on="0"/>
        <pt x="245" y="555" on="1"/>
        <pt x="245" y="490" on="0"/>
      </contour>
      <contour>
        <pt x="455" y="135" on="1"/>
        <pt x="393" y="189" on="0"/>
        <pt x="294" y="289" on="0"/>
        <pt x="257" y="337" on="1"/>
        <pt x="234" y="328" on="0"/>
        <pt x="191" y="300" on="0"/>
        <pt x="158" y="264" on="0"/>
        <pt x="137" y="219" on="0"/>
        <pt x="137" y="192" on="1"/>
        <pt x="137" y="164" on="0"/>
        <pt x="159" y="114" on="0"/>
        <pt x="198" y="77" on="0"/>
        <pt x="254" y="56" on="0"/>
        <pt x="289" y="56" on="1"/>
        <pt x="330" y="56" on="0"/>
        <pt x="412" y="98" on="0"/>
      </contour>
      <contour>
        <pt x="333" y="359" on="1"/>
        <pt x="365" y="319" on="0"/>
        <pt x="451" y="232" on="0"/>
        <pt x="506" y="184" on="1"/>
        <pt x="540" y="219" on="0"/>
        <pt x="609" y="303" on="0"/>
        <pt x="644" y="349" on="1"/>
        <pt x="702" y="309" on="1"/>
        <pt x="667" y="263" on="0"/>
        <pt x="596" y="176" on="0"/>
        <pt x="560" y="138" on="1"/>
        <pt x="589" y="113" on="0"/>
        <pt x="653" y="62" on="0"/>
        <pt x="688" y="35" on="1"/>
        <pt x="641" y="-18" on="1"/>
        <pt x="606" y="10" on="0"/>
        <pt x="540" y="63" on="0"/>
        <pt x="509" y="89" on="1"/>
        <pt x="457" y="43" on="0"/>
        <pt x="347" y="-12" on="0"/>
        <pt x="286" y="-12" on="1"/>
        <pt x="241" y="-12" on="0"/>
        <pt x="157" y="15" on="0"/>
        <pt x="93" y="68" on="0"/>
        <pt x="55" y="144" on="0"/>
        <pt x="55" y="192" on="1"/>
        <pt x="55" y="228" on="0"/>
        <pt x="81" y="291" on="0"/>
        <pt x="126" y="342" on="0"/>
        <pt x="185" y="380" on="0"/>
        <pt x="218" y="393" on="1"/>
        <pt x="194" y="434" on="0"/>
        <pt x="168" y="512" on="0"/>
        <pt x="168" y="550" on="1"/>
        <pt x="168" y="592" on="0"/>
        <pt x="200" y="663" on="0"/>
        <pt x="252" y="714" on="0"/>
        <pt x="319" y="743" on="0"/>
        <pt x="354" y="743" on="1"/>
        <pt x="398" y="743" on="0"/>
        <pt x="464" y="713" on="0"/>
        <pt x="508" y="665" on="0"/>
        <pt x="530" y="605" on="0"/>
        <pt x="530" y="575" on="1"/>
        <pt x="530" y="500" on="0"/>
        <pt x="428" y="396" on="0"/>
      </contour>
    </TTGlyph>
    <TTGlyph name="aogonek" xMin="33" yMin="-220" xMax="409" yMax="428">
      <contour>
        <pt x="409" y="-168" on="1"/>
        <pt x="389" y="-194" on="0"/>
        <pt x="347" y="-218" on="0"/>
        <pt x="319" y="-219" on="1"/>
        <pt x="281" y="-220" on="0"/>
        <pt x="236" y="-173" on="0"/>
        <pt x="237" y="-138" on="1"/>
        <pt x="237" y="-123" on="0"/>
        <pt x="245" y="-95" on="0"/>
        <pt x="262" y="-62" on="0"/>
        <pt x="292" y="-24" on="0"/>
        <pt x="315" y="1" on="1"/>
        <pt x="315" y="44" on="1"/>
        <pt x="289" y="19" on="0"/>
        <pt x="224" y="-8" on="0"/>
        <pt x="185" y="-8" on="1"/>
        <pt x="154" y="-8" on="0"/>
        <pt x="99" y="10" on="0"/>
        <pt x="57" y="44" on="0"/>
        <pt x="33" y="95" on="0"/>
        <pt x="33" y="127" on="1"/>
        <pt x="33" y="155" on="0"/>
        <pt x="56" y="204" on="0"/>
        <pt x="96" y="238" on="0"/>
        <pt x="152" y="258" on="0"/>
        <pt x="184" y="258" on="1"/>
        <pt x="228" y="258" on="0"/>
        <pt x="284" y="241" on="0"/>
        <pt x="311" y="230" on="1"/>
        <pt x="311" y="255" on="1"/>
        <pt x="311" y="309" on="0"/>
        <pt x="259" y="359" on="0"/>
        <pt x="201" y="359" on="1"/>
        <pt x="171" y="359" on="0"/>
        <pt x="113" y="347" on="0"/>
        <pt x="91" y="338" on="1"/>
        <pt x="78" y="406" on="1"/>
        <pt x="107" y="415" on="0"/>
        <pt x="179" y="428" on="0"/>
        <pt x="211" y="428" on="1"/>
        <pt x="302" y="428" on="0"/>
        <pt x="388" y="341" on="0"/>
        <pt x="388" y="250" on="1"/>
        <pt x="388" y="0" on="1"/>
        <pt x="368" y="0" on="1"/>
        <pt x="331" y="-45" on="0"/>
        <pt x="300" y="-105" on="0"/>
        <pt x="300" y="-128" on="1"/>
        <pt x="300" y="-147" on="0"/>
        <pt x="318" y="-167" on="0"/>
        <pt x="332" y="-167" on="1"/>
        <pt x="345" y="-167" on="0"/>
        <pt x="365" y="-155" on="0"/>
        <pt x="379" y="-140" on="1"/>
      </contour>
      <contour>
        <pt x="311" y="164" on="1"/>
        <pt x="279" y="181" on="0"/>
        <pt x="232" y="198" on="0"/>
        <pt x="197" y="198" on="1"/>
        <pt x="156" y="198" on="0"/>
        <pt x="108" y="162" on="0"/>
        <pt x="108" y="127" on="1"/>
        <pt x="108" y="92" on="0"/>
        <pt x="158" y="55" on="0"/>
        <pt x="205" y="55" on="1"/>
        <pt x="238" y="55" on="0"/>
        <pt x="291" y="84" on="0"/>
        <pt x="311" y="107" on="1"/>
      </contour>
    </TTGlyph>
    <TTGlyph name="aring" xMin="33" yMin="-8" xMax="388" yMax="690">
      <component glyphName="a" x="0" y="0" flags="0x204"/>
      <component glyphName="ring" x="5" y="0" flags="0x4"/>
    </TTGlyph>
    <TTGlyph name="aringacute" xMin="33" yMin="-8" xMax="388" yMax="893">
      <component glyphName="a" x="0" y="0" flags="0x204"/>
      <component glyphName="ring" x="5" y="0" flags="0x4"/>
      <component glyphName="acute" x="59" y="250" flags="0x4"/>
    </TTGlyph>
    <TTGlyph name="arrowleft" xMin="33" yMin="45" xMax="661" yMax="531">
      <contour>
        <pt x="168" y="254" on="1"/>
        <pt x="361" y="95" on="1"/>
        <pt x="319" y="45" on="1"/>
        <pt x="33" y="282" on="1"/>
        <pt x="33" y="294" on="1"/>
        <pt x="319" y="531" on="1"/>
        <pt x="361" y="481" on="1"/>
        <pt x="168" y="322" on="1"/>
        <pt x="661" y="322" on="1"/>
        <pt x="661" y="254" on="1"/>
      </contour>
    </TTGlyph>
    <TTGlyph name="arrowleft.cap" xMin="33" yMin="128" xMax="661" yMax="614">
      <component glyphName="arrowleft" x="0" y="83" flags="0x204"/>
    </TTGlyph>
    <TTGlyph name="arrowright" xMin="50" yMin="45" xMax="678" yMax="531">
      <contour>
        <pt x="543" y="322" on="1"/>
        <pt x="350" y="481" on="1"/>
        <pt x="392" y="531" on="1"/>
        <pt x="678" y="294" on="1"/>
        <pt x="678" y="282" on="1"/>
        <pt x="392" y="45" on="1"/>
        <pt x="350" y="95" on="1"/>
        <pt x="543" y="254" on="1"/>
        <pt x="50" y="254" on="1"/>
        <pt x="50" y="322" on="1"/>
      </contour>
    </TTGlyph>
    <TTGlyph name="arrowright.cap" xMin="50" yMin="128" xMax="678" yMax="614">
      <component glyphName="arrowright" x="0" y="83" flags="0x204"/>
    </TTGlyph>
    <TTGlyph name="asciicircum" xMin="77" yMin="485" xMax="369" yMax="645">
      <contour>
        <pt x="287" y="485" on="1"/>
        <pt x="220" y="570" on="1"/>
        <pt x="154" y="485" on="1"/>
        <pt x="77" y="485" on="1"/>
        <pt x="210" y="645" on="1"/>
        <pt x="239" y="645" on="1"/>
        <pt x="369" y="485" on="1"/>
      </contour>
    </TTGlyph>
    <TTGlyph name="asciitilde" xMin="71" yMin="315" xMax="367" yMax="417">
      <contour>
        <pt x="367" y="369" on="1"/>
        <pt x="346" y="342" on="0"/>
        <pt x="296" y="315" on="0"/>
        <pt x="272" y="315" on="1"/>
        <pt x="244" y="315" on="0"/>
        <pt x="214" y="334" on="1"/>
        <pt x="188" y="353" on="0"/>
        <pt x="165" y="353" on="1"/>
        <pt x="136" y="353" on="0"/>
        <pt x="107" y="316" on="1"/>
        <pt x="71" y="363" on="1"/>
        <pt x="92" y="390" on="0"/>
        <pt x="142" y="417" on="0"/>
        <pt x="166" y="417" on="1"/>
        <pt x="194" y="417" on="0"/>
        <pt x="223" y="398" on="1"/>
        <pt x="251" y="379" on="0"/>
        <pt x="273" y="379" on="1"/>
        <pt x="302" y="379" on="0"/>
        <pt x="331" y="416" on="1"/>
      </contour>
    </TTGlyph>
    <TTGlyph name="asterisk" xMin="40" yMin="453" xMax="340" yMax="732">
      <contour>
        <pt x="231" y="574" on="1"/>
        <pt x="302" y="488" on="1"/>
        <pt x="252" y="453" on="1"/>
        <pt x="190" y="545" on="1"/>
        <pt x="128" y="453" on="1"/>
        <pt x="79" y="488" on="1"/>
        <pt x="149" y="574" on="1"/>
        <pt x="40" y="604" on="1"/>
        <pt x="59" y="661" on="1"/>
        <pt x="165" y="622" on="1"/>
        <pt x="159" y="732" on="1"/>
        <pt x="221" y="732" on="1"/>
        <pt x="215" y="622" on="1"/>
        <pt x="321" y="661" on="1"/>
        <pt x="340" y="604" on="1"/>
      </contour>
    </TTGlyph>
    <TTGlyph name="at" xMin="50" yMin="-12" xMax="634" yMax="584">
      <contour>
        <pt x="634" y="313" on="1"/>
        <pt x="634" y="267" on="0"/>
        <pt x="601" y="188" on="0"/>
        <pt x="567" y="164" on="1"/>
        <pt x="537" y="142" on="0"/>
        <pt x="499" y="142" on="1"/>
        <pt x="473" y="142" on="0"/>
        <pt x="428" y="166" on="0"/>
        <pt x="416" y="191" on="1"/>
        <pt x="396" y="170" on="0"/>
        <pt x="349" y="145" on="0"/>
        <pt x="318" y="145" on="1"/>
        <pt x="280" y="145" on="0"/>
        <pt x="225" y="190" on="0"/>
        <pt x="225" y="230" on="1"/>
        <pt x="225" y="265" on="0"/>
        <pt x="277" y="309" on="0"/>
        <pt x="319" y="309" on="1"/>
        <pt x="344" y="309" on="0"/>
        <pt x="377" y="301" on="0"/>
        <pt x="392" y="294" on="1"/>
        <pt x="392" y="305" on="1"/>
        <pt x="392" y="364" on="0"/>
        <pt x="328" y="364" on="1"/>
        <pt x="311" y="364" on="0"/>
        <pt x="277" y="358" on="0"/>
        <pt x="262" y="353" on="1"/>
        <pt x="254" y="403" on="1"/>
        <pt x="272" y="409" on="0"/>
        <pt x="318" y="417" on="0"/>
        <pt x="338" y="417" on="1"/>
        <pt x="457" y="417" on="0"/>
        <pt x="457" y="302" on="1"/>
        <pt x="457" y="238" on="1"/>
        <pt x="457" y="212" on="0"/>
        <pt x="485" y="191" on="0"/>
        <pt x="502" y="191" on="1"/>
        <pt x="522" y="191" on="0"/>
        <pt x="537" y="201" on="1"/>
        <pt x="555" y="215" on="0"/>
        <pt x="576" y="272" on="0"/>
        <pt x="576" y="307" on="1"/>
        <pt x="576" y="344" on="0"/>
        <pt x="551" y="423" on="0"/>
        <pt x="495" y="488" on="0"/>
        <pt x="406" y="530" on="0"/>
        <pt x="342" y="530" on="1"/>
        <pt x="294" y="530" on="0"/>
        <pt x="210" y="492" on="0"/>
        <pt x="147" y="426" on="0"/>
        <pt x="111" y="337" on="0"/>
        <pt x="111" y="286" on="1"/>
        <pt x="111" y="235" on="0"/>
        <pt x="145" y="146" on="0"/>
        <pt x="212" y="80" on="0"/>
        <pt x="310" y="42" on="0"/>
        <pt x="374" y="42" on="1"/>
        <pt x="400" y="42" on="0"/>
        <pt x="464" y="55" on="0"/>
        <pt x="493" y="65" on="1"/>
        <pt x="507" y="12" on="1"/>
        <pt x="471" y="1" on="0"/>
        <pt x="399" y="-12" on="0"/>
        <pt x="370" y="-12" on="1"/>
        <pt x="296" y="-12" on="0"/>
        <pt x="177" y="35" on="0"/>
        <pt x="94" y="116" on="0"/>
        <pt x="50" y="224" on="0"/>
        <pt x="50" y="286" on="1"/>
        <pt x="50" y="348" on="0"/>
        <pt x="96" y="456" on="0"/>
        <pt x="175" y="537" on="0"/>
        <pt x="282" y="584" on="0"/>
        <pt x="342" y="584" on="1"/>
        <pt x="416" y="584" on="0"/>
        <pt x="526" y="535" on="0"/>
        <pt x="598" y="457" on="0"/>
        <pt x="634" y="360" on="0"/>
      </contour>
      <contour>
        <pt x="392" y="251" on="1"/>
        <pt x="378" y="260" on="0"/>
        <pt x="352" y="268" on="0"/>
        <pt x="334" y="268" on="1"/>
        <pt x="314" y="268" on="0"/>
        <pt x="287" y="250" on="0"/>
        <pt x="287" y="231" on="1"/>
        <pt x="287" y="191" on="0"/>
        <pt x="337" y="191" on="1"/>
        <pt x="355" y="191" on="0"/>
        <pt x="382" y="206" on="0"/>
        <pt x="392" y="218" on="1"/>
      </contour>
    </TTGlyph>
    <TTGlyph name="at.cap" xMin="63" yMin="-12" xMax="803" yMax="745">
      <contour>
        <pt x="803" y="400" on="1"/>
        <pt x="803" y="342" on="0"/>
        <pt x="761" y="242" on="0"/>
        <pt x="718" y="211" on="1"/>
        <pt x="700" y="197" on="0"/>
        <pt x="655" y="184" on="0"/>
        <pt x="632" y="184" on="1"/>
        <pt x="565" y="184" on="0"/>
        <pt x="536" y="246" on="1"/>
        <pt x="511" y="219" on="0"/>
        <pt x="446" y="187" on="0"/>
        <pt x="407" y="187" on="1"/>
        <pt x="358" y="187" on="0"/>
        <pt x="289" y="243" on="0"/>
        <pt x="289" y="294" on="1"/>
        <pt x="289" y="339" on="0"/>
        <pt x="354" y="395" on="0"/>
        <pt x="408" y="395" on="1"/>
        <pt x="440" y="395" on="0"/>
        <pt x="484" y="384" on="0"/>
        <pt x="504" y="375" on="1"/>
        <pt x="504" y="389" on="1"/>
        <pt x="504" y="427" on="0"/>
        <pt x="469" y="467" on="0"/>
        <pt x="417" y="467" on="1"/>
        <pt x="396" y="467" on="0"/>
        <pt x="354" y="459" on="0"/>
        <pt x="334" y="452" on="1"/>
        <pt x="324" y="514" on="1"/>
        <pt x="347" y="521" on="0"/>
        <pt x="405" y="531" on="0"/>
        <pt x="430" y="531" on="1"/>
        <pt x="507" y="531" on="0"/>
        <pt x="578" y="459" on="0"/>
        <pt x="578" y="386" on="1"/>
        <pt x="578" y="305" on="1"/>
        <pt x="578" y="272" on="0"/>
        <pt x="614" y="245" on="0"/>
        <pt x="636" y="245" on="1"/>
        <pt x="648" y="245" on="0"/>
        <pt x="674" y="252" on="0"/>
        <pt x="682" y="258" on="1"/>
        <pt x="705" y="275" on="0"/>
        <pt x="734" y="347" on="0"/>
        <pt x="734" y="392" on="1"/>
        <pt x="734" y="441" on="0"/>
        <pt x="703" y="543" on="0"/>
        <pt x="632" y="627" on="0"/>
        <pt x="517" y="681" on="0"/>
        <pt x="433" y="681" on="1"/>
        <pt x="370" y="681" on="0"/>
        <pt x="261" y="632" on="0"/>
        <pt x="181" y="547" on="0"/>
        <pt x="135" y="431" on="0"/>
        <pt x="135" y="365" on="1"/>
        <pt x="135" y="299" on="0"/>
        <pt x="178" y="185" on="0"/>
        <pt x="263" y="100" on="0"/>
        <pt x="390" y="52" on="0"/>
        <pt x="473" y="52" on="1"/>
        <pt x="507" y="52" on="0"/>
        <pt x="587" y="68" on="0"/>
        <pt x="624" y="81" on="1"/>
        <pt x="641" y="18" on="1"/>
        <pt x="596" y="4" on="0"/>
        <pt x="505" y="-12" on="0"/>
        <pt x="469" y="-12" on="1"/>
        <pt x="374" y="-12" on="0"/>
        <pt x="224" y="47" on="0"/>
        <pt x="119" y="150" on="0"/>
        <pt x="63" y="287" on="0"/>
        <pt x="63" y="365" on="1"/>
        <pt x="63" y="443" on="0"/>
        <pt x="121" y="582" on="0"/>
        <pt x="222" y="685" on="0"/>
        <pt x="356" y="745" on="0"/>
        <pt x="433" y="745" on="1"/>
        <pt x="526" y="745" on="0"/>
        <pt x="665" y="684" on="0"/>
        <pt x="757" y="585" on="0"/>
        <pt x="803" y="462" on="0"/>
      </contour>
      <contour>
        <pt x="504" y="318" on="1"/>
        <pt x="485" y="330" on="0"/>
        <pt x="448" y="341" on="0"/>
        <pt x="425" y="341" on="1"/>
        <pt x="400" y="341" on="0"/>
        <pt x="363" y="317" on="0"/>
        <pt x="363" y="293" on="1"/>
        <pt x="363" y="270" on="0"/>
        <pt x="399" y="243" on="0"/>
        <pt x="428" y="243" on="1"/>
        <pt x="451" y="243" on="0"/>
        <pt x="491" y="261" on="0"/>
        <pt x="504" y="277" on="1"/>
      </contour>
    </TTGlyph>
    <TTGlyph name="atilde" xMin="33" yMin="-8" xMax="388" yMax="592">
      <component glyphName="a" x="0" y="0" flags="0x204"/>
      <component glyphName="tilde" x="9" y="0" flags="0x4"/>
    </TTGlyph>
    <TTGlyph name="b" xMin="56" yMin="-8" xMax="470" yMax="733">
      <contour>
        <pt x="470" y="213" on="1"/>
        <pt x="470" y="167" on="0"/>
        <pt x="437" y="86" on="0"/>
        <pt x="380" y="26" on="0"/>
        <pt x="305" y="-8" on="0"/>
        <pt x="263" y="-8" on="1"/>
        <pt x="228" y="-8" on="0"/>
        <pt x="155" y="18" on="0"/>
        <pt x="131" y="41" on="1"/>
        <pt x="131" y="0" on="1"/>
        <pt x="56" y="0" on="1"/>
        <pt x="56" y="733" on="1"/>
        <pt x="135" y="733" on="1"/>
        <pt x="135" y="382" on="1"/>
        <pt x="159" y="402" on="0"/>
        <pt x="232" y="428" on="0"/>
        <pt x="272" y="428" on="1"/>
        <pt x="314" y="428" on="0"/>
        <pt x="386" y="397" on="0"/>
        <pt x="440" y="340" on="0"/>
        <pt x="470" y="261" on="0"/>
      </contour>
      <contour>
        <pt x="392" y="212" on="1"/>
        <pt x="392" y="243" on="0"/>
        <pt x="373" y="298" on="0"/>
        <pt x="339" y="338" on="0"/>
        <pt x="288" y="362" on="0"/>
        <pt x="257" y="362" on="1"/>
        <pt x="218" y="362" on="0"/>
        <pt x="158" y="335" on="0"/>
        <pt x="135" y="312" on="1"/>
        <pt x="135" y="113" on="1"/>
        <pt x="154" y="90" on="0"/>
        <pt x="212" y="58" on="0"/>
        <pt x="248" y="58" on="1"/>
        <pt x="279" y="58" on="0"/>
        <pt x="332" y="81" on="0"/>
        <pt x="371" y="122" on="0"/>
        <pt x="392" y="178" on="0"/>
      </contour>
    </TTGlyph>
    <TTGlyph name="backslash" xMin="0" yMin="-216" xMax="309" yMax="733">
      <contour>
        <pt x="238" y="-216" on="1"/>
        <pt x="0" y="733" on="1"/>
        <pt x="70" y="733" on="1"/>
        <pt x="309" y="-216" on="1"/>
      </contour>
    </TTGlyph>
    <TTGlyph name="backslash.cap" xMin="14" yMin="-109" xMax="323" yMax="840">
      <component glyphName="backslash" x="14" y="107" flags="0x204"/>
    </TTGlyph>
    <TTGlyph name="bar" xMin="90" yMin="-216" xMax="158" yMax="733">
      <contour>
        <pt x="90" y="-216" on="1"/>
        <pt x="90" y="733" on="1"/>
        <pt x="158" y="733" on="1"/>
        <pt x="158" y="-216" on="1"/>
      </contour>
    </TTGlyph>
    <TTGlyph name="bar.cap" xMin="90" yMin="-109" xMax="158" yMax="840">
      <component glyphName="bar" x="0" y="107" flags="0x204"/>
    </TTGlyph>
    <TTGlyph name="braceleft" xMin="25" yMin="-223" xMax="279" yMax="740">
      <contour>
        <pt x="279" y="-223" on="1"/>
        <pt x="110" y="-223" on="0"/>
        <pt x="110" y="-50" on="1"/>
        <pt x="110" y="162" on="1"/>
        <pt x="110" y="194" on="0"/>
        <pt x="85" y="227" on="0"/>
        <pt x="48" y="227" on="1"/>
        <pt x="25" y="227" on="1"/>
        <pt x="25" y="290" on="1"/>
        <pt x="48" y="290" on="1"/>
        <pt x="85" y="290" on="0"/>
        <pt x="110" y="322" on="0"/>
        <pt x="110" y="355" on="1"/>
        <pt x="110" y="566" on="1"/>
        <pt x="110" y="740" on="0"/>
        <pt x="279" y="740" on="1"/>
        <pt x="279" y="670" on="1"/>
        <pt x="232" y="670" on="0"/>
        <pt x="182" y="627" on="0"/>
        <pt x="182" y="570" on="1"/>
        <pt x="182" y="371" on="1"/>
        <pt x="182" y="347" on="0"/>
        <pt x="177" y="313" on="0"/>
        <pt x="162" y="288" on="0"/>
        <pt x="135" y="268" on="0"/>
        <pt x="114" y="258" on="1"/>
        <pt x="135" y="248" on="0"/>
        <pt x="162" y="228" on="0"/>
        <pt x="177" y="203" on="0"/>
        <pt x="182" y="169" on="0"/>
        <pt x="182" y="145" on="1"/>
        <pt x="182" y="-53" on="1"/>
        <pt x="182" y="-110" on="0"/>
        <pt x="232" y="-154" on="0"/>
        <pt x="279" y="-154" on="1"/>
      </contour>
    </TTGlyph>
    <TTGlyph name="braceleft.cap" xMin="25" yMin="-116" xMax="279" yMax="847">
      <component glyphName="braceleft" x="0" y="107" flags="0x204"/>
    </TTGlyph>
    <TTGlyph name="braceright" xMin="18" yMin="-223" xMax="272" yMax="740">
      <contour>
        <pt x="249" y="227" on="1"/>
        <pt x="212" y="227" on="0"/>
        <pt x="187" y="194" on="0"/>
        <pt x="187" y="162" on="1"/>
        <pt x="187" y="-50" on="1"/>
        <pt x="187" y="-223" on="0"/>
        <pt x="18" y="-223" on="1"/>
        <pt x="18" y="-154" on="1"/>
        <pt x="65" y="-154" on="0"/>
        <pt x="115" y="-110" on="0"/>
        <pt x="115" y="-53" on="1"/>
        <pt x="115" y="145" on="1"/>
        <pt x="115" y="169" on="0"/>
        <pt x="120" y="203" on="0"/>
        <pt x="135" y="228" on="0"/>
        <pt x="162" y="248" on="0"/>
        <pt x="183" y="258" on="1"/>
        <pt x="162" y="268" on="0"/>
        <pt x="135" y="288" on="0"/>
        <pt x="120" y="313" on="0"/>
        <pt x="115" y="347" on="0"/>
        <pt x="115" y="371" on="1"/>
        <pt x="115" y="570" on="1"/>
        <pt x="115" y="627" on="0"/>
        <pt x="65" y="670" on="0"/>
        <pt x="18" y="670" on="1"/>
        <pt x="18" y="740" on="1"/>
        <pt x="187" y="740" on="0"/>
        <pt x="187" y="566" on="1"/>
        <pt x="187" y="355" on="1"/>
        <pt x="187" y="322" on="0"/>
        <pt x="212" y="290" on="0"/>
        <pt x="249" y="290" on="1"/>
        <pt x="272" y="290" on="1"/>
        <pt x="272" y="227" on="1"/>
      </contour>
    </TTGlyph>
    <TTGlyph name="braceright.cap" xMin="18" yMin="-116" xMax="272" yMax="847">
      <component glyphName="braceright" x="0" y="107" flags="0x204"/>
    </TTGlyph>
    <TTGlyph name="bracketleft" xMin="80" yMin="-216" xMax="273" yMax="733">
      <contour>
        <pt x="80" y="-216" on="1"/>
        <pt x="80" y="733" on="1"/>
        <pt x="273" y="733" on="1"/>
        <pt x="273" y="669" on="1"/>
        <pt x="152" y="669" on="1"/>
        <pt x="152" y="-153" on="1"/>
        <pt x="273" y="-153" on="1"/>
        <pt x="273" y="-216" on="1"/>
      </contour>
    </TTGlyph>
    <TTGlyph name="bracketleft.cap" xMin="80" yMin="-109" xMax="273" yMax="840">
      <component glyphName="bracketleft" x="0" y="107" flags="0x204"/>
    </TTGlyph>
    <TTGlyph name="bracketright" xMin="24" yMin="-216" xMax="217" yMax="733">
      <contour>
        <pt x="24" y="-216" on="1"/>
        <pt x="24" y="-153" on="1"/>
        <pt x="145" y="-153" on="1"/>
        <pt x="145" y="669" on="1"/>
        <pt x="24" y="669" on="1"/>
        <pt x="24" y="733" on="1"/>
        <pt x="217" y="733" on="1"/>
        <pt x="217" y="-216" on="1"/>
      </contour>
    </TTGlyph>
    <TTGlyph name="bracketright.cap" xMin="24" yMin="-109" xMax="217" yMax="840">
      <component glyphName="bracketright" x="0" y="107" flags="0x204"/>
    </TTGlyph>
    <TTGlyph name="breve" xMin="99" yMin="482" xMax="342" yMax="605">
      <contour>
        <pt x="342" y="599" on="1"/>
        <pt x="342" y="575" on="0"/>
        <pt x="326" y="533" on="0"/>
        <pt x="294" y="501" on="0"/>
        <pt x="249" y="482" on="0"/>
        <pt x="220" y="482" on="1"/>
        <pt x="191" y="482" on="0"/>
        <pt x="147" y="501" on="0"/>
        <pt x="115" y="533" on="0"/>
        <pt x="99" y="575" on="0"/>
        <pt x="99" y="599" on="1"/>
        <pt x="171" y="605" on="1"/>
        <pt x="171" y="575" on="0"/>
        <pt x="197" y="542" on="0"/>
        <pt x="220" y="542" on="1"/>
        <pt x="244" y="542" on="0"/>
        <pt x="270" y="575" on="0"/>
        <pt x="270" y="605" on="1"/>
      </contour>
    </TTGlyph>
    <TTGlyph name="bullet" xMin="54" yMin="227" xMax="326" yMax="505">
      <contour>
        <pt x="326" y="366" on="1"/>
        <pt x="326" y="337" on="0"/>
        <pt x="305" y="286" on="0"/>
        <pt x="268" y="249" on="0"/>
        <pt x="218" y="227" on="0"/>
        <pt x="190" y="227" on="1"/>
        <pt x="162" y="227" on="0"/>
        <pt x="112" y="249" on="0"/>
        <pt x="75" y="286" on="0"/>
        <pt x="54" y="337" on="0"/>
        <pt x="54" y="366" on="1"/>
        <pt x="54" y="395" on="0"/>
        <pt x="75" y="446" on="0"/>
        <pt x="112" y="483" on="0"/>
        <pt x="162" y="505" on="0"/>
        <pt x="190" y="505" on="1"/>
        <pt x="218" y="505" on="0"/>
        <pt x="268" y="483" on="0"/>
        <pt x="305" y="446" on="0"/>
        <pt x="326" y="395" on="0"/>
      </contour>
    </TTGlyph>
    <TTGlyph name="c" xMin="40" yMin="-8" xMax="410" yMax="428">
      <contour>
        <pt x="410" y="35" on="1"/>
        <pt x="381" y="17" on="0"/>
        <pt x="306" y="-8" on="0"/>
        <pt x="267" y="-8" on="1"/>
        <pt x="217" y="-8" on="0"/>
        <pt x="134" y="25" on="0"/>
        <pt x="74" y="84" on="0"/>
        <pt x="40" y="163" on="0"/>
        <pt x="40" y="208" on="1"/>
        <pt x="40" y="253" on="0"/>
        <pt x="74" y="333" on="0"/>
        <pt x="134" y="393" on="0"/>
        <pt x="217" y="428" on="0"/>
        <pt x="267" y="428" on="1"/>
        <pt x="306" y="428" on="0"/>
        <pt x="381" y="403" on="0"/>
        <pt x="410" y="385" on="1"/>
        <pt x="378" y="325" on="1"/>
        <pt x="352" y="340" on="0"/>
        <pt x="292" y="360" on="0"/>
        <pt x="260" y="360" on="1"/>
        <pt x="229" y="360" on="0"/>
        <pt x="177" y="339" on="0"/>
        <pt x="138" y="300" on="0"/>
        <pt x="116" y="244" on="0"/>
        <pt x="116" y="208" on="1"/>
        <pt x="116" y="174" on="0"/>
        <pt x="141" y="119" on="0"/>
        <pt x="182" y="81" on="0"/>
        <pt x="236" y="60" on="0"/>
        <pt x="265" y="60" on="1"/>
        <pt x="297" y="60" on="0"/>
        <pt x="357" y="80" on="0"/>
        <pt x="383" y="95" on="1"/>
      </contour>
    </TTGlyph>
    <TTGlyph name="cacute" xMin="40" yMin="-8" xMax="411" yMax="643">
      <component glyphName="c" x="0" y="0" flags="0x204"/>
      <component glyphName="acute" x="87" y="0" flags="0x4"/>
    </TTGlyph>
    <TTGlyph name="caron" xMin="72" yMin="477" xMax="364" yMax="638">
      <contour>
        <pt x="230" y="477" on="1"/>
        <pt x="202" y="477" on="1"/>
        <pt x="72" y="638" on="1"/>
        <pt x="153" y="638" on="1"/>
        <pt x="220" y="552" on="1"/>
        <pt x="286" y="638" on="1"/>
        <pt x="364" y="638" on="1"/>
      </contour>
    </TTGlyph>
    <TTGlyph name="caron.alt" xMin="46" yMin="537" xMax="175" yMax="738">
      <contour>
        <pt x="175" y="726" on="1"/>
        <pt x="175" y="660" on="0"/>
        <pt x="126" y="571" on="0"/>
        <pt x="84" y="537" on="1"/>
        <pt x="46" y="566" on="1"/>
        <pt x="72" y="597" on="0"/>
        <pt x="98" y="679" on="0"/>
        <pt x="100" y="738" on="1"/>
      </contour>
    </TTGlyph>
    <TTGlyph name="ccaron" xMin="40" yMin="-8" xMax="410" yMax="638">
      <component glyphName="c" x="0" y="0" flags="0x204"/>
      <component glyphName="caron" x="35" y="0" flags="0x4"/>
    </TTGlyph>
    <TTGlyph name="ccedilla" xMin="40" yMin="-237" xMax="410" yMax="428">
      <contour>
        <pt x="345" y="-146" on="1"/>
        <pt x="345" y="-182" on="0"/>
        <pt x="297" y="-237" on="0"/>
        <pt x="246" y="-237" on="1"/>
        <pt x="220" y="-237" on="0"/>
        <pt x="167" y="-220" on="0"/>
        <pt x="138" y="-203" on="1"/>
        <pt x="161" y="-157" on="1"/>
        <pt x="185" y="-171" on="0"/>
        <pt x="226" y="-184" on="0"/>
        <pt x="246" y="-184" on="1"/>
        <pt x="265" y="-184" on="0"/>
        <pt x="285" y="-164" on="0"/>
        <pt x="285" y="-148" on="1"/>
        <pt x="285" y="-130" on="0"/>
        <pt x="243" y="-99" on="0"/>
        <pt x="192" y="-96" on="1"/>
        <pt x="188" y="-88" on="1"/>
        <pt x="210" y="-2" on="1"/>
        <pt x="172" y="6" on="0"/>
        <pt x="109" y="45" on="0"/>
        <pt x="64" y="100" on="0"/>
        <pt x="40" y="169" on="0"/>
        <pt x="40" y="208" on="1"/>
        <pt x="40" y="253" on="0"/>
        <pt x="74" y="333" on="0"/>
        <pt x="134" y="393" on="0"/>
        <pt x="217" y="428" on="0"/>
        <pt x="267" y="428" on="1"/>
        <pt x="306" y="428" on="0"/>
        <pt x="381" y="403" on="0"/>
        <pt x="410" y="385" on="1"/>
        <pt x="378" y="325" on="1"/>
        <pt x="352" y="340" on="0"/>
        <pt x="292" y="360" on="0"/>
        <pt x="260" y="360" on="1"/>
        <pt x="229" y="360" on="0"/>
        <pt x="177" y="339" on="0"/>
        <pt x="138" y="300" on="0"/>
        <pt x="116" y="244" on="0"/>
        <pt x="116" y="208" on="1"/>
        <pt x="116" y="174" on="0"/>
        <pt x="141" y="119" on="0"/>
        <pt x="182" y="81" on="0"/>
        <pt x="236" y="60" on="0"/>
        <pt x="265" y="60" on="1"/>
        <pt x="297" y="60" on="0"/>
        <pt x="357" y="80" on="0"/>
        <pt x="383" y="95" on="1"/>
        <pt x="410" y="35" on="1"/>
        <pt x="381" y="17" on="0"/>
        <pt x="306" y="-8" on="0"/>
        <pt x="267" y="-8" on="1"/>
        <pt x="258" y="-8" on="1"/>
        <pt x="247" y="-51" on="1"/>
        <pt x="303" y="-64" on="0"/>
        <pt x="345" y="-117" on="0"/>
      </contour>
    </TTGlyph>
    <TTGlyph name="cdotaccent" xMin="40" yMin="-8" xMax="410" yMax="595">
      <component glyphName="c" x="0" y="0" flags="0x204"/>
      <component glyphName="dotaccent" x="33" y="0" flags="0x4"/>
    </TTGlyph>
    <TTGlyph name="cedilla" xMin="132" yMin="-237" xMax="339" yMax="14">
      <contour>
        <pt x="339" y="-146" on="1"/>
        <pt x="339" y="-182" on="0"/>
        <pt x="291" y="-237" on="0"/>
        <pt x="240" y="-237" on="1"/>
        <pt x="214" y="-237" on="0"/>
        <pt x="161" y="-220" on="0"/>
        <pt x="132" y="-203" on="1"/>
        <pt x="155" y="-157" on="1"/>
        <pt x="179" y="-171" on="0"/>
        <pt x="220" y="-184" on="0"/>
        <pt x="240" y="-184" on="1"/>
        <pt x="259" y="-184" on="0"/>
        <pt x="279" y="-164" on="0"/>
        <pt x="279" y="-148" on="1"/>
        <pt x="279" y="-130" on="0"/>
        <pt x="237" y="-99" on="0"/>
        <pt x="186" y="-96" on="1"/>
        <pt x="182" y="-88" on="1"/>
        <pt x="209" y="14" on="1"/>
        <pt x="255" y="2" on="1"/>
        <pt x="241" y="-51" on="1"/>
        <pt x="297" y="-64" on="0"/>
        <pt x="339" y="-117" on="0"/>
      </contour>
    </TTGlyph>
    <TTGlyph name="cent" xMin="40" yMin="-77" xMax="410" yMax="497">
      <contour>
        <pt x="199" y="1" on="1"/>
        <pt x="162" y="11" on="0"/>
        <pt x="103" y="52" on="0"/>
        <pt x="62" y="106" on="0"/>
        <pt x="40" y="172" on="0"/>
        <pt x="40" y="208" on="1"/>
        <pt x="40" y="250" on="0"/>
        <pt x="69" y="325" on="0"/>
        <pt x="121" y="383" on="0"/>
        <pt x="191" y="421" on="0"/>
        <pt x="232" y="426" on="1"/>
        <pt x="238" y="497" on="1"/>
        <pt x="303" y="492" on="1"/>
        <pt x="298" y="425" on="1"/>
        <pt x="330" y="421" on="0"/>
        <pt x="387" y="399" on="0"/>
        <pt x="410" y="385" on="1"/>
        <pt x="378" y="325" on="1"/>
        <pt x="358" y="336" on="0"/>
        <pt x="316" y="353" on="0"/>
        <pt x="292" y="357" on="1"/>
        <pt x="269" y="60" on="1"/>
        <pt x="299" y="61" on="0"/>
        <pt x="354" y="79" on="0"/>
        <pt x="383" y="95" on="1"/>
        <pt x="410" y="35" on="1"/>
        <pt x="375" y="14" on="0"/>
        <pt x="302" y="-8" on="0"/>
        <pt x="268" y="-8" on="1"/>
        <pt x="264" y="-8" on="1"/>
        <pt x="259" y="-77" on="1"/>
        <pt x="194" y="-72" on="1"/>
      </contour>
      <contour>
        <pt x="116" y="208" on="1"/>
        <pt x="116" y="160" on="0"/>
        <pt x="164" y="88" on="0"/>
        <pt x="205" y="71" on="1"/>
        <pt x="227" y="357" on="1"/>
        <pt x="178" y="347" on="0"/>
        <pt x="116" y="271" on="0"/>
      </contour>
    </TTGlyph>
    <TTGlyph name="cent.lin" xMin="40" yMin="84" xMax="410" yMax="658">
      <component glyphName="cent" x="0" y="161" flags="0x4"/>
    </TTGlyph>
    <TTGlyph name="circumflex" xMin="77" yMin="489" xMax="369" yMax="649">
      <contour>
        <pt x="287" y="489" on="1"/>
        <pt x="220" y="574" on="1"/>
        <pt x="154" y="489" on="1"/>
        <pt x="77" y="489" on="1"/>
        <pt x="210" y="649" on="1"/>
        <pt x="239" y="649" on="1"/>
        <pt x="369" y="489" on="1"/>
      </contour>
    </TTGlyph>
    <TTGlyph name="colon" xMin="58" yMin="-8" xMax="162" yMax="369">
      <contour>
        <pt x="59" y="44" on="1"/>
        <pt x="59" y="65" on="0"/>
        <pt x="89" y="95" on="0"/>
        <pt x="110" y="95" on="1"/>
        <pt x="132" y="95" on="0"/>
        <pt x="162" y="65" on="0"/>
        <pt x="162" y="44" on="1"/>
        <pt x="162" y="22" on="0"/>
        <pt x="132" y="-8" on="0"/>
        <pt x="110" y="-8" on="1"/>
        <pt x="89" y="-8" on="0"/>
        <pt x="59" y="22" on="0"/>
      </contour>
      <contour>
        <pt x="58" y="318" on="1"/>
        <pt x="58" y="339" on="0"/>
        <pt x="88" y="369" on="0"/>
        <pt x="110" y="369" on="1"/>
        <pt x="131" y="369" on="0"/>
        <pt x="161" y="339" on="0"/>
        <pt x="161" y="318" on="1"/>
        <pt x="161" y="296" on="0"/>
        <pt x="131" y="266" on="0"/>
        <pt x="110" y="266" on="1"/>
        <pt x="88" y="266" on="0"/>
        <pt x="58" y="296" on="0"/>
      </contour>
    </TTGlyph>
    <TTGlyph name="comma" xMin="49" yMin="-120" xMax="164" yMax="95">
      <contour>
        <pt x="164" y="34" on="1"/>
        <pt x="164" y="16" on="0"/>
        <pt x="151" y="-24" on="0"/>
        <pt x="126" y="-65" on="0"/>
        <pt x="87" y="-104" on="0"/>
        <pt x="60" y="-120" on="1"/>
        <pt x="49" y="-104" on="1"/>
        <pt x="77" y="-80" on="0"/>
        <pt x="107" y="-27" on="0"/>
        <pt x="113" y="-5" on="1"/>
        <pt x="89" y="-3" on="0"/>
        <pt x="61" y="26" on="0"/>
        <pt x="61" y="46" on="1"/>
        <pt x="61" y="66" on="0"/>
        <pt x="90" y="95" on="0"/>
        <pt x="110" y="95" on="1"/>
        <pt x="136" y="95" on="0"/>
        <pt x="164" y="59" on="0"/>
      </contour>
    </TTGlyph>
    <TTGlyph name="commaaccent" xMin="25" yMin="-288" xMax="140" yMax="-73">
      <contour>
        <pt x="140" y="-134" on="1"/>
        <pt x="140" y="-152" on="0"/>
        <pt x="127" y="-192" on="0"/>
        <pt x="102" y="-233" on="0"/>
        <pt x="63" y="-272" on="0"/>
        <pt x="36" y="-288" on="1"/>
        <pt x="25" y="-272" on="1"/>
        <pt x="53" y="-248" on="0"/>
        <pt x="83" y="-195" on="0"/>
        <pt x="89" y="-173" on="1"/>
        <pt x="65" y="-171" on="0"/>
        <pt x="37" y="-142" on="0"/>
        <pt x="37" y="-122" on="1"/>
        <pt x="37" y="-102" on="0"/>
        <pt x="66" y="-73" on="0"/>
        <pt x="86" y="-73" on="1"/>
        <pt x="112" y="-73" on="0"/>
        <pt x="140" y="-109" on="0"/>
      </contour>
    </TTGlyph>
    <TTGlyph name="copyright" xMin="50" yMin="-12" xMax="792" yMax="745">
      <contour>
        <pt x="792" y="366" on="1"/>
        <pt x="792" y="288" on="0"/>
        <pt x="734" y="150" on="0"/>
        <pt x="633" y="47" on="0"/>
        <pt x="498" y="-12" on="0"/>
        <pt x="421" y="-12" on="1"/>
        <pt x="344" y="-12" on="0"/>
        <pt x="209" y="47" on="0"/>
        <pt x="108" y="150" on="0"/>
        <pt x="50" y="288" on="0"/>
        <pt x="50" y="366" on="1"/>
        <pt x="50" y="444" on="0"/>
        <pt x="108" y="582" on="0"/>
        <pt x="209" y="685" on="0"/>
        <pt x="344" y="745" on="0"/>
        <pt x="421" y="745" on="1"/>
        <pt x="498" y="745" on="0"/>
        <pt x="633" y="685" on="0"/>
        <pt x="734" y="582" on="0"/>
        <pt x="792" y="444" on="0"/>
      </contour>
      <contour>
        <pt x="725" y="366" on="1"/>
        <pt x="725" y="432" on="0"/>
        <pt x="677" y="549" on="0"/>
        <pt x="595" y="636" on="0"/>
        <pt x="484" y="686" on="0"/>
        <pt x="421" y="686" on="1"/>
        <pt x="358" y="686" on="0"/>
        <pt x="247" y="636" on="0"/>
        <pt x="165" y="549" on="0"/>
        <pt x="117" y="432" on="0"/>
        <pt x="117" y="366" on="1"/>
        <pt x="117" y="300" on="0"/>
        <pt x="165" y="184" on="0"/>
        <pt x="247" y="97" on="0"/>
        <pt x="358" y="47" on="0"/>
        <pt x="421" y="47" on="1"/>
        <pt x="484" y="47" on="0"/>
        <pt x="595" y="97" on="0"/>
        <pt x="677" y="184" on="0"/>
        <pt x="725" y="300" on="0"/>
      </contour>
      <contour>
        <pt x="559" y="215" on="1"/>
        <pt x="536" y="201" on="0"/>
        <pt x="473" y="181" on="0"/>
        <pt x="439" y="181" on="1"/>
        <pt x="395" y="181" on="0"/>
        <pt x="323" y="209" on="0"/>
        <pt x="270" y="259" on="0"/>
        <pt x="241" y="329" on="0"/>
        <pt x="241" y="370" on="1"/>
        <pt x="241" y="410" on="0"/>
        <pt x="271" y="480" on="0"/>
        <pt x="323" y="530" on="0"/>
        <pt x="396" y="559" on="0"/>
        <pt x="439" y="559" on="1"/>
        <pt x="474" y="559" on="0"/>
        <pt x="534" y="540" on="0"/>
        <pt x="557" y="526" on="1"/>
        <pt x="536" y="473" on="1"/>
        <pt x="514" y="485" on="0"/>
        <pt x="462" y="501" on="0"/>
        <pt x="438" y="501" on="1"/>
        <pt x="377" y="501" on="0"/>
        <pt x="309" y="428" on="0"/>
        <pt x="309" y="370" on="1"/>
        <pt x="309" y="312" on="0"/>
        <pt x="379" y="239" on="0"/>
        <pt x="440" y="239" on="1"/>
        <pt x="464" y="239" on="0"/>
        <pt x="517" y="255" on="0"/>
        <pt x="539" y="268" on="1"/>
      </contour>
    </TTGlyph>
    <TTGlyph name="d" xMin="40" yMin="-8" xMax="454" yMax="733">
      <contour>
        <pt x="379" y="0" on="1"/>
        <pt x="379" y="43" on="1"/>
        <pt x="354" y="17" on="0"/>
        <pt x="285" y="-8" on="0"/>
        <pt x="245" y="-8" on="1"/>
        <pt x="200" y="-8" on="0"/>
        <pt x="124" y="23" on="0"/>
        <pt x="70" y="80" on="0"/>
        <pt x="40" y="159" on="0"/>
        <pt x="40" y="206" on="1"/>
        <pt x="40" y="252" on="0"/>
        <pt x="73" y="333" on="0"/>
        <pt x="130" y="393" on="0"/>
        <pt x="205" y="428" on="0"/>
        <pt x="247" y="428" on="1"/>
        <pt x="289" y="428" on="0"/>
        <pt x="351" y="406" on="0"/>
        <pt x="375" y="386" on="1"/>
        <pt x="375" y="733" on="1"/>
        <pt x="454" y="733" on="1"/>
        <pt x="454" y="0" on="1"/>
      </contour>
      <contour>
        <pt x="375" y="305" on="1"/>
        <pt x="355" y="329" on="0"/>
        <pt x="294" y="362" on="0"/>
        <pt x="253" y="362" on="1"/>
        <pt x="223" y="362" on="0"/>
        <pt x="174" y="339" on="0"/>
        <pt x="138" y="298" on="0"/>
        <pt x="118" y="242" on="0"/>
        <pt x="118" y="208" on="1"/>
        <pt x="118" y="176" on="0"/>
        <pt x="137" y="122" on="0"/>
        <pt x="173" y="81" on="0"/>
        <pt x="225" y="58" on="0"/>
        <pt x="258" y="58" on="1"/>
        <pt x="296" y="58" on="0"/>
        <pt x="354" y="88" on="0"/>
        <pt x="375" y="113" on="1"/>
      </contour>
    </TTGlyph>
    <TTGlyph name="dagger" xMin="30" yMin="156" xMax="425" yMax="733">
      <contour>
        <pt x="267" y="492" on="1"/>
        <pt x="267" y="156" on="1"/>
        <pt x="192" y="156" on="1"/>
        <pt x="192" y="492" on="1"/>
        <pt x="30" y="492" on="1"/>
        <pt x="30" y="560" on="1"/>
        <pt x="192" y="560" on="1"/>
        <pt x="192" y="733" on="1"/>
        <pt x="267" y="733" on="1"/>
        <pt x="267" y="560" on="1"/>
        <pt x="425" y="560" on="1"/>
        <pt x="425" y="492" on="1"/>
      </contour>
    </TTGlyph>
    <TTGlyph name="daggerdbl" xMin="30" yMin="156" xMax="430" yMax="733">
      <contour>
        <pt x="267" y="301" on="1"/>
        <pt x="267" y="156" on="1"/>
        <pt x="192" y="156" on="1"/>
        <pt x="192" y="301" on="1"/>
        <pt x="35" y="301" on="1"/>
        <pt x="35" y="369" on="1"/>
        <pt x="192" y="369" on="1"/>
        <pt x="192" y="520" on="1"/>
        <pt x="30" y="520" on="1"/>
        <pt x="30" y="588" on="1"/>
        <pt x="192" y="588" on="1"/>
        <pt x="192" y="733" on="1"/>
        <pt x="267" y="733" on="1"/>
        <pt x="267" y="588" on="1"/>
        <pt x="425" y="588" on="1"/>
        <pt x="425" y="520" on="1"/>
        <pt x="267" y="520" on="1"/>
        <pt x="267" y="369" on="1"/>
        <pt x="430" y="369" on="1"/>
        <pt x="430" y="301" on="1"/>
      </contour>
    </TTGlyph>
    <TTGlyph name="dcaron" xMin="40" yMin="-8" xMax="623" yMax="734">
      <component glyphName="d" x="0" y="0" flags="0x204"/>
      <component glyphName="caron.alt" x="448" y="-4" flags="0x4"/>
    </TTGlyph>
    <TTGlyph name="dcroat" xMin="40" yMin="-8" xMax="510" yMax="733">
      <contour>
        <pt x="379" y="0" on="1"/>
        <pt x="379" y="43" on="1"/>
        <pt x="354" y="17" on="0"/>
        <pt x="285" y="-8" on="0"/>
        <pt x="245" y="-8" on="1"/>
        <pt x="200" y="-8" on="0"/>
        <pt x="124" y="23" on="0"/>
        <pt x="70" y="80" on="0"/>
        <pt x="40" y="159" on="0"/>
        <pt x="40" y="206" on="1"/>
        <pt x="40" y="252" on="0"/>
        <pt x="73" y="333" on="0"/>
        <pt x="130" y="393" on="0"/>
        <pt x="205" y="428" on="0"/>
        <pt x="247" y="428" on="1"/>
        <pt x="289" y="428" on="0"/>
        <pt x="351" y="406" on="0"/>
        <pt x="375" y="386" on="1"/>
        <pt x="375" y="561" on="1"/>
        <pt x="231" y="561" on="1"/>
        <pt x="231" y="626" on="1"/>
        <pt x="375" y="626" on="1"/>
        <pt x="375" y="733" on="1"/>
        <pt x="454" y="733" on="1"/>
        <pt x="454" y="626" on="1"/>
        <pt x="510" y="626" on="1"/>
        <pt x="510" y="561" on="1"/>
        <pt x="454" y="561" on="1"/>
        <pt x="454" y="0" on="1"/>
      </contour>
      <contour>
        <pt x="375" y="305" on="1"/>
        <pt x="355" y="329" on="0"/>
        <pt x="294" y="362" on="0"/>
        <pt x="253" y="362" on="1"/>
        <pt x="223" y="362" on="0"/>
        <pt x="174" y="339" on="0"/>
        <pt x="138" y="298" on="0"/>
        <pt x="118" y="242" on="0"/>
        <pt x="118" y="208" on="1"/>
        <pt x="118" y="176" on="0"/>
        <pt x="137" y="122" on="0"/>
        <pt x="173" y="81" on="0"/>
        <pt x="225" y="58" on="0"/>
        <pt x="258" y="58" on="1"/>
        <pt x="296" y="58" on="0"/>
        <pt x="354" y="88" on="0"/>
        <pt x="375" y="113" on="1"/>
      </contour>
    </TTGlyph>
    <TTGlyph name="degree" xMin="111" yMin="478" xMax="329" yMax="688">
      <contour>
        <pt x="329" y="582" on="1"/>
        <pt x="329" y="536" on="0"/>
        <pt x="268" y="478" on="0"/>
        <pt x="220" y="478" on="1"/>
        <pt x="172" y="478" on="0"/>
        <pt x="111" y="536" on="0"/>
        <pt x="111" y="582" on="1"/>
        <pt x="111" y="628" on="0"/>
        <pt x="172" y="688" on="0"/>
        <pt x="220" y="688" on="1"/>
        <pt x="268" y="688" on="0"/>
        <pt x="329" y="628" on="0"/>
      </contour>
      <contour>
        <pt x="273" y="583" on="1"/>
        <pt x="273" y="609" on="0"/>
        <pt x="244" y="642" on="0"/>
        <pt x="220" y="642" on="1"/>
        <pt x="196" y="642" on="0"/>
        <pt x="167" y="609" on="0"/>
        <pt x="167" y="583" on="1"/>
        <pt x="167" y="557" on="0"/>
        <pt x="196" y="524" on="0"/>
        <pt x="220" y="524" on="1"/>
        <pt x="244" y="524" on="0"/>
        <pt x="273" y="557" on="0"/>
      </contour>
    </TTGlyph>
    <TTGlyph name="degree.lin" xMin="50" yMin="483" xMax="316" yMax="745">
      <contour>
        <pt x="316" y="614" on="1"/>
        <pt x="316" y="587" on="0"/>
        <pt x="297" y="539" on="0"/>
        <pt x="263" y="504" on="0"/>
        <pt x="214" y="483" on="0"/>
        <pt x="183" y="483" on="1"/>
        <pt x="152" y="483" on="0"/>
        <pt x="103" y="504" on="0"/>
        <pt x="68" y="539" on="0"/>
        <pt x="50" y="587" on="0"/>
        <pt x="50" y="614" on="1"/>
        <pt x="50" y="641" on="0"/>
        <pt x="68" y="689" on="0"/>
        <pt x="103" y="724" on="0"/>
        <pt x="152" y="745" on="0"/>
        <pt x="183" y="745" on="1"/>
        <pt x="214" y="745" on="0"/>
        <pt x="263" y="724" on="0"/>
        <pt x="297" y="689" on="0"/>
        <pt x="316" y="641" on="0"/>
      </contour>
      <contour>
        <pt x="253" y="614" on="1"/>
        <pt x="253" y="649" on="0"/>
        <pt x="212" y="691" on="0"/>
        <pt x="183" y="691" on="1"/>
        <pt x="154" y="691" on="0"/>
        <pt x="113" y="649" on="0"/>
        <pt x="113" y="614" on="1"/>
        <pt x="113" y="579" on="0"/>
        <pt x="154" y="537" on="0"/>
        <pt x="183" y="537" on="1"/>
        <pt x="212" y="537" on="0"/>
        <pt x="253" y="579" on="0"/>
      </contour>
    </TTGlyph>
    <TTGlyph name="dieresis" xMin="83" yMin="494" xMax="357" yMax="595">
      <contour>
        <pt x="357" y="544" on="1"/>
        <pt x="357" y="524" on="0"/>
        <pt x="327" y="494" on="0"/>
        <pt x="307" y="494" on="1"/>
        <pt x="286" y="494" on="0"/>
        <pt x="256" y="524" on="0"/>
        <pt x="256" y="544" on="1"/>
        <pt x="256" y="565" on="0"/>
        <pt x="286" y="595" on="0"/>
        <pt x="307" y="595" on="1"/>
        <pt x="327" y="595" on="0"/>
        <pt x="357" y="565" on="0"/>
      </contour>
      <contour>
        <pt x="184" y="544" on="1"/>
        <pt x="184" y="524" on="0"/>
        <pt x="154" y="494" on="0"/>
        <pt x="133" y="494" on="1"/>
        <pt x="113" y="494" on="0"/>
        <pt x="83" y="524" on="0"/>
        <pt x="83" y="544" on="1"/>
        <pt x="83" y="565" on="0"/>
        <pt x="113" y="595" on="0"/>
        <pt x="133" y="595" on="1"/>
        <pt x="154" y="595" on="0"/>
        <pt x="184" y="565" on="0"/>
      </contour>
    </TTGlyph>
    <TTGlyph name="divide" xMin="60" yMin="101" xMax="400" yMax="475">
      <contour>
        <pt x="60" y="322" on="1"/>
        <pt x="400" y="322" on="1"/>
        <pt x="400" y="254" on="1"/>
        <pt x="60" y="254" on="1"/>
      </contour>
      <contour>
        <pt x="180" y="424" on="1"/>
        <pt x="180" y="445" on="0"/>
        <pt x="209" y="475" on="0"/>
        <pt x="230" y="475" on="1"/>
        <pt x="251" y="475" on="0"/>
        <pt x="280" y="445" on="0"/>
        <pt x="280" y="424" on="1"/>
        <pt x="280" y="404" on="0"/>
        <pt x="251" y="374" on="0"/>
        <pt x="230" y="374" on="1"/>
        <pt x="209" y="374" on="0"/>
        <pt x="180" y="404" on="0"/>
      </contour>
      <contour>
        <pt x="180" y="151" on="1"/>
        <pt x="180" y="172" on="0"/>
        <pt x="209" y="202" on="0"/>
        <pt x="230" y="202" on="1"/>
        <pt x="251" y="202" on="0"/>
        <pt x="280" y="172" on="0"/>
        <pt x="280" y="151" on="1"/>
        <pt x="280" y="131" on="0"/>
        <pt x="251" y="101" on="0"/>
        <pt x="230" y="101" on="1"/>
        <pt x="209" y="101" on="0"/>
        <pt x="180" y="131" on="0"/>
      </contour>
    </TTGlyph>
    <TTGlyph name="divide.lin" xMin="60" yMin="184" xMax="400" yMax="558">
      <component glyphName="divide" x="0" y="83" flags="0x204"/>
    </TTGlyph>
    <TTGlyph name="dollar" xMin="33" yMin="-75" xMax="396" yMax="651">
      <contour>
        <pt x="285" y="646" on="1"/>
        <pt x="280" y="583" on="1"/>
        <pt x="316" y="578" on="0"/>
        <pt x="369" y="555" on="0"/>
        <pt x="388" y="542" on="1"/>
        <pt x="352" y="479" on="1"/>
        <pt x="338" y="490" on="0"/>
        <pt x="297" y="509" on="0"/>
        <pt x="275" y="514" on="1"/>
        <pt x="260" y="321" on="1"/>
        <pt x="293" y="306" on="0"/>
        <pt x="343" y="275" on="0"/>
        <pt x="378" y="237" on="0"/>
        <pt x="396" y="191" on="0"/>
        <pt x="396" y="160" on="1"/>
        <pt x="396" y="125" on="0"/>
        <pt x="370" y="65" on="0"/>
        <pt x="326" y="20" on="0"/>
        <pt x="267" y="-7" on="0"/>
        <pt x="234" y="-10" on="1"/>
        <pt x="229" y="-75" on="1"/>
        <pt x="169" y="-70" on="1"/>
        <pt x="173" y="-8" on="1"/>
        <pt x="132" y="-3" on="0"/>
        <pt x="64" y="28" on="0"/>
        <pt x="33" y="50" on="1"/>
        <pt x="73" y="114" on="1"/>
        <pt x="97" y="95" on="0"/>
        <pt x="152" y="67" on="0"/>
        <pt x="179" y="61" on="1"/>
        <pt x="195" y="268" on="1"/>
        <pt x="164" y="282" on="0"/>
        <pt x="115" y="312" on="0"/>
        <pt x="80" y="348" on="0"/>
        <pt x="61" y="394" on="0"/>
        <pt x="61" y="424" on="1"/>
        <pt x="61" y="454" on="0"/>
        <pt x="84" y="509" on="0"/>
        <pt x="125" y="553" on="0"/>
        <pt x="183" y="581" on="0"/>
        <pt x="219" y="585" on="1"/>
        <pt x="225" y="651" on="1"/>
      </contour>
      <contour>
        <pt x="319" y="154" on="1"/>
        <pt x="319" y="185" on="0"/>
        <pt x="283" y="227" on="0"/>
        <pt x="254" y="243" on="1"/>
        <pt x="239" y="59" on="1"/>
        <pt x="275" y="66" on="0"/>
        <pt x="319" y="113" on="0"/>
      </contour>
      <contour>
        <pt x="137" y="429" on="1"/>
        <pt x="137" y="403" on="0"/>
        <pt x="174" y="364" on="0"/>
        <pt x="201" y="349" on="1"/>
        <pt x="214" y="515" on="1"/>
        <pt x="176" y="508" on="0"/>
        <pt x="137" y="463" on="0"/>
      </contour>
    </TTGlyph>
    <TTGlyph name="dollar.lin" xMin="21" yMin="-94" xMax="454" yMax="825">
      <contour>
        <pt x="319" y="819" on="1"/>
        <pt x="313" y="743" on="1"/>
        <pt x="348" y="738" on="0"/>
        <pt x="411" y="714" on="0"/>
        <pt x="437" y="697" on="1"/>
        <pt x="403" y="632" on="1"/>
        <pt x="383" y="646" on="0"/>
        <pt x="333" y="667" on="0"/>
        <pt x="307" y="672" on="1"/>
        <pt x="285" y="402" on="1"/>
        <pt x="332" y="378" on="0"/>
        <pt x="397" y="333" on="0"/>
        <pt x="437" y="284" on="0"/>
        <pt x="454" y="229" on="0"/>
        <pt x="454" y="197" on="1"/>
        <pt x="454" y="155" on="0"/>
        <pt x="423" y="82" on="0"/>
        <pt x="369" y="27" on="0"/>
        <pt x="294" y="-7" on="0"/>
        <pt x="251" y="-10" on="1"/>
        <pt x="244" y="-94" on="1"/>
        <pt x="177" y="-88" on="1"/>
        <pt x="183" y="-8" on="1"/>
        <pt x="138" y="-2" on="0"/>
        <pt x="59" y="30" on="0"/>
        <pt x="21" y="56" on="1"/>
        <pt x="58" y="123" on="1"/>
        <pt x="89" y="100" on="0"/>
        <pt x="156" y="71" on="0"/>
        <pt x="189" y="64" on="1"/>
        <pt x="213" y="353" on="1"/>
        <pt x="124" y="393" on="0"/>
        <pt x="53" y="487" on="0"/>
        <pt x="53" y="551" on="1"/>
        <pt x="53" y="586" on="0"/>
        <pt x="81" y="651" on="0"/>
        <pt x="131" y="703" on="0"/>
        <pt x="202" y="739" on="0"/>
        <pt x="245" y="744" on="1"/>
        <pt x="252" y="825" on="1"/>
      </contour>
      <contour>
        <pt x="376" y="189" on="1"/>
        <pt x="376" y="209" on="0"/>
        <pt x="367" y="244" on="0"/>
        <pt x="345" y="276" on="0"/>
        <pt x="307" y="307" on="0"/>
        <pt x="278" y="323" on="1"/>
        <pt x="257" y="61" on="1"/>
        <pt x="316" y="68" on="0"/>
        <pt x="376" y="143" on="0"/>
      </contour>
      <contour>
        <pt x="129" y="555" on="1"/>
        <pt x="129" y="521" on="0"/>
        <pt x="169" y="460" on="0"/>
        <pt x="220" y="433" on="1"/>
        <pt x="239" y="672" on="1"/>
        <pt x="186" y="664" on="0"/>
        <pt x="129" y="598" on="0"/>
      </contour>
    </TTGlyph>
    <TTGlyph name="dotaccent" xMin="170" yMin="494" xMax="271" yMax="595">
      <contour>
        <pt x="170" y="544" on="1"/>
        <pt x="170" y="565" on="0"/>
        <pt x="200" y="595" on="0"/>
        <pt x="220" y="595" on="1"/>
        <pt x="241" y="595" on="0"/>
        <pt x="271" y="565" on="0"/>
        <pt x="271" y="544" on="1"/>
        <pt x="271" y="524" on="0"/>
        <pt x="241" y="494" on="0"/>
        <pt x="220" y="494" on="1"/>
        <pt x="200" y="494" on="0"/>
        <pt x="170" y="524" on="0"/>
      </contour>
    </TTGlyph>
    <TTGlyph name="dotlessi" xMin="65" yMin="0" xMax="144" yMax="420">
      <contour>
        <pt x="65" y="0" on="1"/>
        <pt x="65" y="420" on="1"/>
        <pt x="144" y="420" on="1"/>
        <pt x="144" y="0" on="1"/>
      </contour>
    </TTGlyph>
    <TTGlyph name="e" xMin="40" yMin="-8" xMax="428" yMax="428">
      <contour>
        <pt x="428" y="226" on="1"/>
        <pt x="428" y="215" on="0"/>
        <pt x="427" y="197" on="0"/>
        <pt x="425" y="186" on="1"/>
        <pt x="117" y="186" on="1"/>
        <pt x="120" y="159" on="0"/>
        <pt x="140" y="113" on="0"/>
        <pt x="177" y="79" on="0"/>
        <pt x="233" y="60" on="0"/>
        <pt x="274" y="60" on="1"/>
        <pt x="300" y="60" on="0"/>
        <pt x="361" y="73" on="0"/>
        <pt x="390" y="83" on="1"/>
        <pt x="404" y="16" on="1"/>
        <pt x="368" y="5" on="0"/>
        <pt x="296" y="-8" on="0"/>
        <pt x="267" y="-8" on="1"/>
        <pt x="210" y="-8" on="0"/>
        <pt x="125" y="25" on="0"/>
        <pt x="68" y="84" on="0"/>
        <pt x="40" y="163" on="0"/>
        <pt x="40" y="208" on="1"/>
        <pt x="40" y="251" on="0"/>
        <pt x="67" y="331" on="0"/>
        <pt x="119" y="392" on="0"/>
        <pt x="195" y="428" on="0"/>
        <pt x="244" y="428" on="1"/>
        <pt x="289" y="428" on="0"/>
        <pt x="357" y="397" on="0"/>
        <pt x="404" y="343" on="0"/>
        <pt x="428" y="269" on="0"/>
      </contour>
      <contour>
        <pt x="355" y="246" on="1"/>
        <pt x="351" y="295" on="0"/>
        <pt x="295" y="362" on="0"/>
        <pt x="239" y="362" on="1"/>
        <pt x="188" y="362" on="0"/>
        <pt x="127" y="300" on="0"/>
        <pt x="120" y="246" on="1"/>
      </contour>
    </TTGlyph>
    <TTGlyph name="eacute" xMin="40" yMin="-8" xMax="428" yMax="643">
      <component glyphName="e" x="0" y="0" flags="0x204"/>
      <component glyphName="acute" x="76" y="0" flags="0x4"/>
    </TTGlyph>
    <TTGlyph name="ebreve" xMin="40" yMin="-8" xMax="428" yMax="605">
      <component glyphName="e" x="0" y="0" flags="0x204"/>
      <component glyphName="breve" x="22" y="0" flags="0x4"/>
    </TTGlyph>
    <TTGlyph name="ecaron" xMin="40" yMin="-8" xMax="428" yMax="638">
      <component glyphName="e" x="0" y="0" flags="0x204"/>
      <component glyphName="caron" x="24" y="0" flags="0x4"/>
    </TTGlyph>
    <TTGlyph name="ecircumflex" xMin="40" yMin="-8" xMax="428" yMax="649">
      <component glyphName="e" x="0" y="0" flags="0x204"/>
      <component glyphName="circumflex" x="19" y="0" flags="0x4"/>
    </TTGlyph>
    <TTGlyph name="edieresis" xMin="40" yMin="-8" xMax="428" yMax="595">
      <component glyphName="e" x="0" y="0" flags="0x204"/>
      <component glyphName="dieresis" x="22" y="0" flags="0x4"/>
    </TTGlyph>
    <TTGlyph name="edotaccent" xMin="40" yMin="-8" xMax="428" yMax="595">
      <component glyphName="e" x="0" y="0" flags="0x204"/>
      <component glyphName="dotaccent" x="22" y="0" flags="0x4"/>
    </TTGlyph>
    <TTGlyph name="egrave" xMin="40" yMin="-8" xMax="428" yMax="641">
      <component glyphName="e" x="0" y="0" flags="0x204"/>
      <component glyphName="grave" x="-42" y="0" flags="0x4"/>
    </TTGlyph>
    <TTGlyph name="eight" xMin="60" yMin="-10" xMax="421" yMax="586">
      <contour>
        <pt x="421" y="156" on="1"/>
        <pt x="421" y="122" on="0"/>
        <pt x="395" y="62" on="0"/>
        <pt x="348" y="17" on="0"/>
        <pt x="281" y="-10" on="0"/>
        <pt x="240" y="-10" on="1"/>
        <pt x="199" y="-10" on="0"/>
        <pt x="133" y="17" on="0"/>
        <pt x="86" y="62" on="0"/>
        <pt x="60" y="122" on="0"/>
        <pt x="60" y="156" on="1"/>
        <pt x="60" y="204" on="0"/>
        <pt x="110" y="276" on="0"/>
        <pt x="151" y="296" on="1"/>
        <pt x="72" y="339" on="0"/>
        <pt x="72" y="424" on="1"/>
        <pt x="72" y="458" on="0"/>
        <pt x="96" y="517" on="0"/>
        <pt x="141" y="561" on="0"/>
        <pt x="202" y="586" on="0"/>
        <pt x="240" y="586" on="1"/>
        <pt x="278" y="586" on="0"/>
        <pt x="340" y="561" on="0"/>
        <pt x="384" y="517" on="0"/>
        <pt x="408" y="458" on="0"/>
        <pt x="408" y="424" on="1"/>
        <pt x="408" y="382" on="0"/>
        <pt x="368" y="317" on="0"/>
        <pt x="330" y="296" on="1"/>
        <pt x="371" y="276" on="0"/>
        <pt x="421" y="204" on="0"/>
      </contour>
      <contour>
        <pt x="334" y="424" on="1"/>
        <pt x="334" y="464" on="0"/>
        <pt x="283" y="521" on="0"/>
        <pt x="240" y="521" on="1"/>
        <pt x="198" y="521" on="0"/>
        <pt x="146" y="464" on="0"/>
        <pt x="146" y="424" on="1"/>
        <pt x="146" y="385" on="0"/>
        <pt x="198" y="327" on="0"/>
        <pt x="240" y="327" on="1"/>
        <pt x="283" y="327" on="0"/>
        <pt x="334" y="385" on="0"/>
      </contour>
      <contour>
        <pt x="343" y="158" on="1"/>
        <pt x="343" y="201" on="0"/>
        <pt x="287" y="261" on="0"/>
        <pt x="240" y="261" on="1"/>
        <pt x="194" y="261" on="0"/>
        <pt x="138" y="201" on="0"/>
        <pt x="138" y="158" on="1"/>
        <pt x="138" y="114" on="0"/>
        <pt x="194" y="55" on="0"/>
        <pt x="240" y="55" on="1"/>
        <pt x="287" y="55" on="0"/>
        <pt x="343" y="114" on="0"/>
      </contour>
    </TTGlyph>
    <TTGlyph name="eight.den" xMin="24" yMin="-8" xMax="326" yMax="393">
      <contour>
        <pt x="175" y="-8" on="1"/>
        <pt x="106" y="-8" on="0"/>
        <pt x="24" y="55" on="0"/>
        <pt x="24" y="104" on="1"/>
        <pt x="24" y="133" on="0"/>
        <pt x="55" y="181" on="0"/>
        <pt x="89" y="195" on="1"/>
        <pt x="62" y="209" on="0"/>
        <pt x="32" y="257" on="0"/>
        <pt x="32" y="285" on="1"/>
        <pt x="32" y="333" on="0"/>
        <pt x="110" y="393" on="0"/>
        <pt x="175" y="393" on="1"/>
        <pt x="240" y="393" on="0"/>
        <pt x="318" y="333" on="0"/>
        <pt x="318" y="285" on="1"/>
        <pt x="318" y="257" on="0"/>
        <pt x="288" y="209" on="0"/>
        <pt x="261" y="195" on="1"/>
        <pt x="295" y="181" on="0"/>
        <pt x="326" y="133" on="0"/>
        <pt x="326" y="104" on="1"/>
        <pt x="326" y="55" on="0"/>
        <pt x="244" y="-8" on="0"/>
      </contour>
      <contour>
        <pt x="175" y="168" on="1"/>
        <pt x="141" y="168" on="0"/>
        <pt x="95" y="138" on="0"/>
        <pt x="95" y="109" on="1"/>
        <pt x="95" y="81" on="0"/>
        <pt x="140" y="50" on="0"/>
        <pt x="175" y="50" on="1"/>
        <pt x="210" y="50" on="0"/>
        <pt x="255" y="81" on="0"/>
        <pt x="255" y="109" on="1"/>
        <pt x="255" y="138" on="0"/>
        <pt x="209" y="168" on="0"/>
      </contour>
      <contour>
        <pt x="176" y="335" on="1"/>
        <pt x="141" y="335" on="0"/>
        <pt x="100" y="306" on="0"/>
        <pt x="100" y="280" on="1"/>
        <pt x="100" y="254" on="0"/>
        <pt x="141" y="222" on="0"/>
        <pt x="175" y="222" on="1"/>
        <pt x="209" y="222" on="0"/>
        <pt x="250" y="254" on="0"/>
        <pt x="250" y="280" on="1"/>
        <pt x="250" y="306" on="0"/>
        <pt x="210" y="335" on="0"/>
      </contour>
    </TTGlyph>
    <TTGlyph name="eight.lin" xMin="56" yMin="-12" xMax="512" yMax="745">
      <contour>
        <pt x="512" y="195" on="1"/>
        <pt x="512" y="152" on="0"/>
        <pt x="480" y="77" on="0"/>
        <pt x="420" y="21" on="0"/>
        <pt x="336" y="-12" on="0"/>
        <pt x="284" y="-12" on="1"/>
        <pt x="232" y="-12" on="0"/>
        <pt x="148" y="21" on="0"/>
        <pt x="88" y="77" on="0"/>
        <pt x="56" y="152" on="0"/>
        <pt x="56" y="195" on="1"/>
        <pt x="56" y="255" on="0"/>
        <pt x="119" y="344" on="0"/>
        <pt x="171" y="370" on="1"/>
        <pt x="123" y="396" on="0"/>
        <pt x="71" y="486" on="0"/>
        <pt x="71" y="539" on="1"/>
        <pt x="71" y="582" on="0"/>
        <pt x="102" y="657" on="0"/>
        <pt x="158" y="713" on="0"/>
        <pt x="236" y="745" on="0"/>
        <pt x="284" y="745" on="1"/>
        <pt x="332" y="745" on="0"/>
        <pt x="410" y="714" on="0"/>
        <pt x="466" y="659" on="0"/>
        <pt x="497" y="584" on="0"/>
        <pt x="497" y="541" on="1"/>
        <pt x="497" y="488" on="0"/>
        <pt x="445" y="396" on="0"/>
        <pt x="397" y="370" on="1"/>
        <pt x="449" y="344" on="0"/>
        <pt x="512" y="255" on="0"/>
      </contour>
      <contour>
        <pt x="420" y="536" on="1"/>
        <pt x="420" y="597" on="0"/>
        <pt x="347" y="677" on="0"/>
        <pt x="283" y="677" on="1"/>
        <pt x="218" y="677" on="0"/>
        <pt x="148" y="597" on="0"/>
        <pt x="148" y="536" on="1"/>
        <pt x="148" y="508" on="0"/>
        <pt x="167" y="460" on="0"/>
        <pt x="202" y="424" on="0"/>
        <pt x="252" y="403" on="0"/>
        <pt x="284" y="403" on="1"/>
        <pt x="316" y="403" on="0"/>
        <pt x="366" y="424" on="0"/>
        <pt x="401" y="460" on="0"/>
        <pt x="420" y="508" on="0"/>
      </contour>
      <contour>
        <pt x="431" y="200" on="1"/>
        <pt x="431" y="230" on="0"/>
        <pt x="410" y="281" on="0"/>
        <pt x="371" y="318" on="0"/>
        <pt x="317" y="340" on="0"/>
        <pt x="283" y="340" on="1"/>
        <pt x="249" y="340" on="0"/>
        <pt x="195" y="318" on="0"/>
        <pt x="158" y="281" on="0"/>
        <pt x="138" y="230" on="0"/>
        <pt x="138" y="200" on="1"/>
        <pt x="138" y="170" on="0"/>
        <pt x="159" y="117" on="0"/>
        <pt x="197" y="78" on="0"/>
        <pt x="251" y="56" on="0"/>
        <pt x="285" y="56" on="1"/>
        <pt x="319" y="56" on="0"/>
        <pt x="373" y="78" on="0"/>
        <pt x="411" y="117" on="0"/>
        <pt x="431" y="170" on="0"/>
      </contour>
    </TTGlyph>
    <TTGlyph name="eight.num" xMin="24" yMin="340" xMax="326" yMax="741">
      <contour>
        <pt x="175" y="340" on="1"/>
        <pt x="106" y="340" on="0"/>
        <pt x="24" y="403" on="0"/>
        <pt x="24" y="452" on="1"/>
        <pt x="24" y="481" on="0"/>
        <pt x="55" y="529" on="0"/>
        <pt x="89" y="543" on="1"/>
        <pt x="62" y="557" on="0"/>
        <pt x="32" y="605" on="0"/>
        <pt x="32" y="633" on="1"/>
        <pt x="32" y="681" on="0"/>
        <pt x="110" y="741" on="0"/>
        <pt x="175" y="741" on="1"/>
        <pt x="240" y="741" on="0"/>
        <pt x="318" y="681" on="0"/>
        <pt x="318" y="633" on="1"/>
        <pt x="318" y="605" on="0"/>
        <pt x="288" y="557" on="0"/>
        <pt x="261" y="543" on="1"/>
        <pt x="295" y="529" on="0"/>
        <pt x="326" y="481" on="0"/>
        <pt x="326" y="452" on="1"/>
        <pt x="326" y="403" on="0"/>
        <pt x="244" y="340" on="0"/>
      </contour>
      <contour>
        <pt x="175" y="516" on="1"/>
        <pt x="141" y="516" on="0"/>
        <pt x="95" y="486" on="0"/>
        <pt x="95" y="457" on="1"/>
        <pt x="95" y="429" on="0"/>
        <pt x="140" y="398" on="0"/>
        <pt x="175" y="398" on="1"/>
        <pt x="210" y="398" on="0"/>
        <pt x="255" y="429" on="0"/>
        <pt x="255" y="457" on="1"/>
        <pt x="255" y="486" on="0"/>
        <pt x="209" y="516" on="0"/>
      </contour>
      <contour>
        <pt x="176" y="683" on="1"/>
        <pt x="141" y="683" on="0"/>
        <pt x="100" y="654" on="0"/>
        <pt x="100" y="628" on="1"/>
        <pt x="100" y="602" on="0"/>
        <pt x="141" y="570" on="0"/>
        <pt x="175" y="570" on="1"/>
        <pt x="209" y="570" on="0"/>
        <pt x="250" y="602" on="0"/>
        <pt x="250" y="628" on="1"/>
        <pt x="250" y="654" on="0"/>
        <pt x="210" y="683" on="0"/>
      </contour>
    </TTGlyph>
    <TTGlyph name="elevensixteenths" xMin="13" yMin="-14" xMax="1265" yMax="747">
      <component glyphName="one.num" x="-9" y="0" flags="0x4"/>
      <component glyphName="one.num" x="264" y="0" flags="0x4"/>
      <component glyphName="fraction" x="538" y="0" flags="0x4"/>
      <component glyphName="one.den" x="663" y="0" flags="0x4"/>
      <component glyphName="six.den" x="937" y="0" flags="0x4"/>
    </TTGlyph>
    <TTGlyph name="ellipsis" xMin="69" yMin="-8" xMax="632" yMax="95">
      <contour>
        <pt x="69" y="44" on="1"/>
        <pt x="69" y="65" on="0"/>
        <pt x="99" y="95" on="0"/>
        <pt x="120" y="95" on="1"/>
        <pt x="142" y="95" on="0"/>
        <pt x="172" y="65" on="0"/>
        <pt x="172" y="44" on="1"/>
        <pt x="172" y="22" on="0"/>
        <pt x="142" y="-8" on="0"/>
        <pt x="120" y="-8" on="1"/>
        <pt x="99" y="-8" on="0"/>
        <pt x="69" y="22" on="0"/>
      </contour>
      <contour>
        <pt x="299" y="44" on="1"/>
        <pt x="299" y="65" on="0"/>
        <pt x="329" y="95" on="0"/>
        <pt x="350" y="95" on="1"/>
        <pt x="372" y="95" on="0"/>
        <pt x="402" y="65" on="0"/>
        <pt x="402" y="44" on="1"/>
        <pt x="402" y="22" on="0"/>
        <pt x="372" y="-8" on="0"/>
        <pt x="350" y="-8" on="1"/>
        <pt x="329" y="-8" on="0"/>
        <pt x="299" y="22" on="0"/>
      </contour>
      <contour>
        <pt x="529" y="44" on="1"/>
        <pt x="529" y="65" on="0"/>
        <pt x="559" y="95" on="0"/>
        <pt x="580" y="95" on="1"/>
        <pt x="602" y="95" on="0"/>
        <pt x="632" y="65" on="0"/>
        <pt x="632" y="44" on="1"/>
        <pt x="632" y="22" on="0"/>
        <pt x="602" y="-8" on="0"/>
        <pt x="580" y="-8" on="1"/>
        <pt x="559" y="-8" on="0"/>
        <pt x="529" y="22" on="0"/>
      </contour>
    </TTGlyph>
    <TTGlyph name="emacron" xMin="40" yMin="-8" xMax="428" yMax="568">
      <component glyphName="e" x="0" y="0" flags="0x204"/>
      <component glyphName="macron" x="22" y="0" flags="0x4"/>
    </TTGlyph>
    <TTGlyph name="emdash" xMin="50" yMin="208" xMax="700" yMax="276">
      <contour>
        <pt x="50" y="208" on="1"/>
        <pt x="50" y="276" on="1"/>
        <pt x="700" y="276" on="1"/>
        <pt x="700" y="208" on="1"/>
      </contour>
    </TTGlyph>
    <TTGlyph name="emdash.cap" xMin="50" yMin="337" xMax="700" yMax="405">
      <component glyphName="emdash" x="0" y="129" flags="0x204"/>
    </TTGlyph>
    <TTGlyph name="endash" xMin="50" yMin="208" xMax="450" yMax="276">
      <contour>
        <pt x="50" y="208" on="1"/>
        <pt x="50" y="276" on="1"/>
        <pt x="450" y="276" on="1"/>
        <pt x="450" y="208" on="1"/>
      </contour>
    </TTGlyph>
    <TTGlyph name="endash.cap" xMin="50" yMin="337" xMax="450" yMax="405">
      <component glyphName="endash" x="0" y="129" flags="0x204"/>
    </TTGlyph>
    <TTGlyph name="eogonek" xMin="40" yMin="-220" xMax="428" yMax="428">
      <contour>
        <pt x="428" y="226" on="1"/>
        <pt x="428" y="215" on="0"/>
        <pt x="427" y="197" on="0"/>
        <pt x="425" y="186" on="1"/>
        <pt x="117" y="186" on="1"/>
        <pt x="120" y="159" on="0"/>
        <pt x="140" y="113" on="0"/>
        <pt x="177" y="79" on="0"/>
        <pt x="233" y="60" on="0"/>
        <pt x="274" y="60" on="1"/>
        <pt x="300" y="60" on="0"/>
        <pt x="361" y="73" on="0"/>
        <pt x="390" y="83" on="1"/>
        <pt x="403" y="19" on="1"/>
        <pt x="361" y="-26" on="0"/>
        <pt x="317" y="-100" on="0"/>
        <pt x="317" y="-128" on="1"/>
        <pt x="317" y="-147" on="0"/>
        <pt x="335" y="-167" on="0"/>
        <pt x="349" y="-167" on="1"/>
        <pt x="362" y="-167" on="0"/>
        <pt x="382" y="-155" on="0"/>
        <pt x="396" y="-140" on="1"/>
        <pt x="426" y="-168" on="1"/>
        <pt x="406" y="-194" on="0"/>
        <pt x="364" y="-218" on="0"/>
        <pt x="336" y="-219" on="1"/>
        <pt x="298" y="-220" on="0"/>
        <pt x="254" y="-173" on="0"/>
        <pt x="254" y="-138" on="1"/>
        <pt x="254" y="-109" on="0"/>
        <pt x="287" y="-46" on="0"/>
        <pt x="331" y="-1" on="1"/>
        <pt x="314" y="-4" on="0"/>
        <pt x="281" y="-8" on="0"/>
        <pt x="267" y="-8" on="1"/>
        <pt x="210" y="-8" on="0"/>
        <pt x="125" y="25" on="0"/>
        <pt x="68" y="84" on="0"/>
        <pt x="40" y="163" on="0"/>
        <pt x="40" y="208" on="1"/>
        <pt x="40" y="251" on="0"/>
        <pt x="67" y="331" on="0"/>
        <pt x="119" y="392" on="0"/>
        <pt x="195" y="428" on="0"/>
        <pt x="244" y="428" on="1"/>
        <pt x="289" y="428" on="0"/>
        <pt x="357" y="397" on="0"/>
        <pt x="404" y="343" on="0"/>
        <pt x="428" y="269" on="0"/>
      </contour>
      <contour>
        <pt x="355" y="246" on="1"/>
        <pt x="351" y="295" on="0"/>
        <pt x="295" y="362" on="0"/>
        <pt x="239" y="362" on="1"/>
        <pt x="188" y="362" on="0"/>
        <pt x="127" y="300" on="0"/>
        <pt x="120" y="246" on="1"/>
      </contour>
    </TTGlyph>
    <TTGlyph name="equal" xMin="60" yMin="182" xMax="353" yMax="394">
      <contour>
        <pt x="60" y="326" on="1"/>
        <pt x="60" y="394" on="1"/>
        <pt x="353" y="394" on="1"/>
        <pt x="353" y="326" on="1"/>
      </contour>
      <contour>
        <pt x="60" y="182" on="1"/>
        <pt x="60" y="250" on="1"/>
        <pt x="353" y="250" on="1"/>
        <pt x="353" y="182" on="1"/>
      </contour>
    </TTGlyph>
    <TTGlyph name="equal.lin" xMin="60" yMin="265" xMax="353" yMax="477">
      <component glyphName="equal" x="0" y="83" flags="0x204"/>
    </TTGlyph>
    <TTGlyph name="eth" xMin="40" yMin="-8" xMax="466" yMax="735">
      <contour>
        <pt x="111" y="553" on="1"/>
        <pt x="183" y="617" on="1"/>
        <pt x="159" y="634" on="0"/>
        <pt x="107" y="663" on="0"/>
        <pt x="79" y="676" on="1"/>
        <pt x="111" y="735" on="1"/>
        <pt x="144" y="720" on="0"/>
        <pt x="206" y="685" on="0"/>
        <pt x="235" y="664" on="1"/>
        <pt x="301" y="724" on="1"/>
        <pt x="341" y="676" on="1"/>
        <pt x="284" y="625" on="1"/>
        <pt x="367" y="553" on="0"/>
        <pt x="466" y="358" on="0"/>
        <pt x="466" y="231" on="1"/>
        <pt x="466" y="177" on="0"/>
        <pt x="435" y="89" on="0"/>
        <pt x="378" y="26" on="0"/>
        <pt x="299" y="-8" on="0"/>
        <pt x="252" y="-8" on="1"/>
        <pt x="199" y="-8" on="0"/>
        <pt x="119" y="28" on="0"/>
        <pt x="66" y="90" on="0"/>
        <pt x="40" y="173" on="0"/>
        <pt x="40" y="219" on="1"/>
        <pt x="40" y="264" on="0"/>
        <pt x="69" y="341" on="0"/>
        <pt x="120" y="397" on="0"/>
        <pt x="191" y="429" on="0"/>
        <pt x="232" y="429" on="1"/>
        <pt x="277" y="429" on="0"/>
        <pt x="348" y="397" on="0"/>
        <pt x="373" y="369" on="1"/>
        <pt x="357" y="424" on="0"/>
        <pt x="285" y="531" on="0"/>
        <pt x="232" y="578" on="1"/>
        <pt x="151" y="506" on="1"/>
      </contour>
      <contour>
        <pt x="389" y="212" on="1"/>
        <pt x="389" y="244" on="0"/>
        <pt x="369" y="300" on="0"/>
        <pt x="333" y="341" on="0"/>
        <pt x="281" y="364" on="0"/>
        <pt x="249" y="364" on="1"/>
        <pt x="189" y="364" on="0"/>
        <pt x="117" y="283" on="0"/>
        <pt x="117" y="214" on="1"/>
        <pt x="117" y="183" on="0"/>
        <pt x="136" y="126" on="0"/>
        <pt x="171" y="83" on="0"/>
        <pt x="221" y="57" on="0"/>
        <pt x="252" y="57" on="1"/>
        <pt x="284" y="57" on="0"/>
        <pt x="335" y="81" on="0"/>
        <pt x="370" y="122" on="0"/>
        <pt x="389" y="179" on="0"/>
      </contour>
    </TTGlyph>
    <TTGlyph name="exclam" xMin="59" yMin="-8" xMax="162" yMax="733">
      <contour>
        <pt x="140" y="182" on="1"/>
        <pt x="80" y="182" on="1"/>
        <pt x="66" y="733" on="1"/>
        <pt x="154" y="733" on="1"/>
      </contour>
      <contour>
        <pt x="162" y="44" on="1"/>
        <pt x="162" y="22" on="0"/>
        <pt x="132" y="-8" on="0"/>
        <pt x="110" y="-8" on="1"/>
        <pt x="89" y="-8" on="0"/>
        <pt x="59" y="22" on="0"/>
        <pt x="59" y="44" on="1"/>
        <pt x="59" y="65" on="0"/>
        <pt x="89" y="95" on="0"/>
        <pt x="110" y="95" on="1"/>
        <pt x="132" y="95" on="0"/>
        <pt x="162" y="65" on="0"/>
      </contour>
    </TTGlyph>
    <TTGlyph name="exclamdown" xMin="58" yMin="0" xMax="161" yMax="741">
      <contour>
        <pt x="58" y="689" on="1"/>
        <pt x="58" y="711" on="0"/>
        <pt x="88" y="741" on="0"/>
        <pt x="110" y="741" on="1"/>
        <pt x="131" y="741" on="0"/>
        <pt x="161" y="711" on="0"/>
        <pt x="161" y="689" on="1"/>
        <pt x="161" y="668" on="0"/>
        <pt x="131" y="638" on="0"/>
        <pt x="110" y="638" on="1"/>
        <pt x="88" y="638" on="0"/>
        <pt x="58" y="668" on="0"/>
      </contour>
      <contour>
        <pt x="80" y="551" on="1"/>
        <pt x="140" y="551" on="1"/>
        <pt x="154" y="0" on="1"/>
        <pt x="66" y="0" on="1"/>
      </contour>
    </TTGlyph>
    <TTGlyph name="f" xMin="26" yMin="0" xMax="321" yMax="740">
      <contour>
        <pt x="308" y="663" on="1"/>
        <pt x="288" y="668" on="0"/>
        <pt x="269" y="668" on="1"/>
        <pt x="213" y="668" on="0"/>
        <pt x="169" y="615" on="0"/>
        <pt x="169" y="549" on="1"/>
        <pt x="169" y="420" on="1"/>
        <pt x="293" y="420" on="1"/>
        <pt x="293" y="352" on="1"/>
        <pt x="169" y="352" on="1"/>
        <pt x="169" y="0" on="1"/>
        <pt x="91" y="0" on="1"/>
        <pt x="91" y="352" on="1"/>
        <pt x="26" y="352" on="1"/>
        <pt x="26" y="362" on="1"/>
        <pt x="91" y="427" on="1"/>
        <pt x="91" y="538" on="1"/>
        <pt x="91" y="636" on="0"/>
        <pt x="172" y="740" on="0"/>
        <pt x="256" y="740" on="1"/>
        <pt x="275" y="740" on="0"/>
        <pt x="304" y="736" on="0"/>
        <pt x="321" y="731" on="1"/>
      </contour>
    </TTGlyph>
    <TTGlyph name="f_f" xMin="26" yMin="0" xMax="616" yMax="740">
      <contour>
        <pt x="308" y="663" on="1"/>
        <pt x="288" y="668" on="0"/>
        <pt x="269" y="668" on="1"/>
        <pt x="213" y="668" on="0"/>
        <pt x="169" y="615" on="0"/>
        <pt x="169" y="549" on="1"/>
        <pt x="169" y="420" on="1"/>
        <pt x="293" y="420" on="1"/>
        <pt x="293" y="352" on="1"/>
        <pt x="169" y="352" on="1"/>
        <pt x="169" y="0" on="1"/>
        <pt x="91" y="0" on="1"/>
        <pt x="91" y="352" on="1"/>
        <pt x="26" y="352" on="1"/>
        <pt x="26" y="362" on="1"/>
        <pt x="91" y="427" on="1"/>
        <pt x="91" y="538" on="1"/>
        <pt x="91" y="636" on="0"/>
        <pt x="172" y="740" on="0"/>
        <pt x="256" y="740" on="1"/>
        <pt x="275" y="740" on="0"/>
        <pt x="304" y="736" on="0"/>
        <pt x="321" y="731" on="1"/>
      </contour>
      <contour>
        <pt x="603" y="663" on="1"/>
        <pt x="583" y="668" on="0"/>
        <pt x="564" y="668" on="1"/>
        <pt x="508" y="668" on="0"/>
        <pt x="464" y="615" on="0"/>
        <pt x="464" y="549" on="1"/>
        <pt x="464" y="420" on="1"/>
        <pt x="588" y="420" on="1"/>
        <pt x="588" y="352" on="1"/>
        <pt x="464" y="352" on="1"/>
        <pt x="464" y="0" on="1"/>
        <pt x="386" y="0" on="1"/>
        <pt x="386" y="352" on="1"/>
        <pt x="321" y="352" on="1"/>
        <pt x="321" y="362" on="1"/>
        <pt x="386" y="427" on="1"/>
        <pt x="386" y="538" on="1"/>
        <pt x="386" y="636" on="0"/>
        <pt x="467" y="740" on="0"/>
        <pt x="551" y="740" on="1"/>
        <pt x="570" y="740" on="0"/>
        <pt x="599" y="736" on="0"/>
        <pt x="616" y="731" on="1"/>
      </contour>
    </TTGlyph>
    <TTGlyph name="f_f_i" xMin="26" yMin="0" xMax="745" yMax="740">
      <contour>
        <pt x="308" y="663" on="1"/>
        <pt x="288" y="668" on="0"/>
        <pt x="269" y="668" on="1"/>
        <pt x="213" y="668" on="0"/>
        <pt x="169" y="615" on="0"/>
        <pt x="169" y="549" on="1"/>
        <pt x="169" y="420" on="1"/>
        <pt x="293" y="420" on="1"/>
        <pt x="293" y="352" on="1"/>
        <pt x="169" y="352" on="1"/>
        <pt x="169" y="0" on="1"/>
        <pt x="91" y="0" on="1"/>
        <pt x="91" y="352" on="1"/>
        <pt x="26" y="352" on="1"/>
        <pt x="26" y="362" on="1"/>
        <pt x="91" y="427" on="1"/>
        <pt x="91" y="538" on="1"/>
        <pt x="91" y="636" on="0"/>
        <pt x="172" y="740" on="0"/>
        <pt x="256" y="740" on="1"/>
        <pt x="275" y="740" on="0"/>
        <pt x="304" y="736" on="0"/>
        <pt x="321" y="731" on="1"/>
      </contour>
      <contour>
        <pt x="603" y="663" on="1"/>
        <pt x="583" y="668" on="0"/>
        <pt x="564" y="668" on="1"/>
        <pt x="508" y="668" on="0"/>
        <pt x="464" y="615" on="0"/>
        <pt x="464" y="549" on="1"/>
        <pt x="464" y="420" on="1"/>
        <pt x="588" y="420" on="1"/>
        <pt x="588" y="352" on="1"/>
        <pt x="464" y="352" on="1"/>
        <pt x="464" y="0" on="1"/>
        <pt x="386" y="0" on="1"/>
        <pt x="386" y="352" on="1"/>
        <pt x="321" y="352" on="1"/>
        <pt x="321" y="362" on="1"/>
        <pt x="386" y="427" on="1"/>
        <pt x="386" y="538" on="1"/>
        <pt x="386" y="636" on="0"/>
        <pt x="467" y="740" on="0"/>
        <pt x="551" y="740" on="1"/>
        <pt x="570" y="740" on="0"/>
        <pt x="599" y="736" on="0"/>
        <pt x="616" y="731" on="1"/>
      </contour>
      <contour>
        <pt x="745" y="565" on="1"/>
        <pt x="745" y="545" on="0"/>
        <pt x="716" y="515" on="0"/>
        <pt x="695" y="515" on="1"/>
        <pt x="674" y="515" on="0"/>
        <pt x="645" y="545" on="0"/>
        <pt x="645" y="565" on="1"/>
        <pt x="645" y="586" on="0"/>
        <pt x="674" y="616" on="0"/>
        <pt x="695" y="616" on="1"/>
        <pt x="716" y="616" on="0"/>
        <pt x="745" y="586" on="0"/>
      </contour>
      <contour>
        <pt x="655" y="0" on="1"/>
        <pt x="655" y="420" on="1"/>
        <pt x="734" y="420" on="1"/>
        <pt x="734" y="0" on="1"/>
      </contour>
    </TTGlyph>
    <TTGlyph name="f_f_l" xMin="26" yMin="0" xMax="734" yMax="740">
      <contour>
        <pt x="308" y="663" on="1"/>
        <pt x="288" y="668" on="0"/>
        <pt x="269" y="668" on="1"/>
        <pt x="213" y="668" on="0"/>
        <pt x="169" y="615" on="0"/>
        <pt x="169" y="549" on="1"/>
        <pt x="169" y="420" on="1"/>
        <pt x="293" y="420" on="1"/>
        <pt x="293" y="352" on="1"/>
        <pt x="169" y="352" on="1"/>
        <pt x="169" y="0" on="1"/>
        <pt x="91" y="0" on="1"/>
        <pt x="91" y="352" on="1"/>
        <pt x="26" y="352" on="1"/>
        <pt x="26" y="362" on="1"/>
        <pt x="91" y="427" on="1"/>
        <pt x="91" y="538" on="1"/>
        <pt x="91" y="636" on="0"/>
        <pt x="172" y="740" on="0"/>
        <pt x="256" y="740" on="1"/>
        <pt x="275" y="740" on="0"/>
        <pt x="304" y="736" on="0"/>
        <pt x="321" y="731" on="1"/>
      </contour>
      <contour>
        <pt x="603" y="663" on="1"/>
        <pt x="583" y="668" on="0"/>
        <pt x="564" y="668" on="1"/>
        <pt x="508" y="668" on="0"/>
        <pt x="464" y="615" on="0"/>
        <pt x="464" y="549" on="1"/>
        <pt x="464" y="420" on="1"/>
        <pt x="588" y="420" on="1"/>
        <pt x="588" y="352" on="1"/>
        <pt x="464" y="352" on="1"/>
        <pt x="464" y="0" on="1"/>
        <pt x="386" y="0" on="1"/>
        <pt x="386" y="352" on="1"/>
        <pt x="321" y="352" on="1"/>
        <pt x="321" y="362" on="1"/>
        <pt x="386" y="427" on="1"/>
        <pt x="386" y="538" on="1"/>
        <pt x="386" y="636" on="0"/>
        <pt x="467" y="740" on="0"/>
        <pt x="551" y="740" on="1"/>
        <pt x="570" y="740" on="0"/>
        <pt x="599" y="736" on="0"/>
        <pt x="616" y="731" on="1"/>
      </contour>
      <contour>
        <pt x="655" y="0" on="1"/>
        <pt x="655" y="733" on="1"/>
        <pt x="734" y="733" on="1"/>
        <pt x="734" y="0" on="1"/>
      </contour>
    </TTGlyph>
    <TTGlyph name="fi" xMin="26" yMin="0" xMax="450" yMax="740">
      <contour>
        <pt x="450" y="565" on="1"/>
        <pt x="450" y="545" on="0"/>
        <pt x="421" y="515" on="0"/>
        <pt x="400" y="515" on="1"/>
        <pt x="379" y="515" on="0"/>
        <pt x="350" y="545" on="0"/>
        <pt x="350" y="565" on="1"/>
        <pt x="350" y="586" on="0"/>
        <pt x="379" y="616" on="0"/>
        <pt x="400" y="616" on="1"/>
        <pt x="421" y="616" on="0"/>
        <pt x="450" y="586" on="0"/>
      </contour>
      <contour>
        <pt x="308" y="663" on="1"/>
        <pt x="288" y="668" on="0"/>
        <pt x="269" y="668" on="1"/>
        <pt x="213" y="668" on="0"/>
        <pt x="169" y="615" on="0"/>
        <pt x="169" y="549" on="1"/>
        <pt x="169" y="420" on="1"/>
        <pt x="293" y="420" on="1"/>
        <pt x="293" y="352" on="1"/>
        <pt x="169" y="352" on="1"/>
        <pt x="169" y="0" on="1"/>
        <pt x="91" y="0" on="1"/>
        <pt x="91" y="352" on="1"/>
        <pt x="26" y="352" on="1"/>
        <pt x="26" y="362" on="1"/>
        <pt x="91" y="427" on="1"/>
        <pt x="91" y="538" on="1"/>
        <pt x="91" y="636" on="0"/>
        <pt x="172" y="740" on="0"/>
        <pt x="256" y="740" on="1"/>
        <pt x="275" y="740" on="0"/>
        <pt x="304" y="736" on="0"/>
        <pt x="321" y="731" on="1"/>
      </contour>
      <contour>
        <pt x="360" y="0" on="1"/>
        <pt x="360" y="420" on="1"/>
        <pt x="439" y="420" on="1"/>
        <pt x="439" y="0" on="1"/>
      </contour>
    </TTGlyph>
    <TTGlyph name="fifteensixteenths" xMin="13" yMin="-14" xMax="1341" yMax="747">
      <component glyphName="one.num" x="-9" y="0" flags="0x4"/>
      <component glyphName="five.num" x="264" y="0" flags="0x4"/>
      <component glyphName="fraction" x="614" y="0" flags="0x4"/>
      <component glyphName="one.den" x="739" y="0" flags="0x4"/>
      <component glyphName="six.den" x="1013" y="0" flags="0x4"/>
    </TTGlyph>
    <TTGlyph name="five" xMin="56" yMin="-10" xMax="405" yMax="576">
      <contour>
        <pt x="405" y="177" on="1"/>
        <pt x="405" y="138" on="0"/>
        <pt x="378" y="70" on="0"/>
        <pt x="328" y="19" on="0"/>
        <pt x="255" y="-10" on="0"/>
        <pt x="210" y="-10" on="1"/>
        <pt x="169" y="-10" on="0"/>
        <pt x="93" y="4" on="0"/>
        <pt x="56" y="17" on="1"/>
        <pt x="77" y="84" on="1"/>
        <pt x="106" y="73" on="0"/>
        <pt x="169" y="59" on="0"/>
        <pt x="203" y="59" on="1"/>
        <pt x="266" y="59" on="0"/>
        <pt x="328" y="127" on="0"/>
        <pt x="328" y="177" on="1"/>
        <pt x="328" y="223" on="0"/>
        <pt x="261" y="282" on="0"/>
        <pt x="195" y="282" on="1"/>
        <pt x="169" y="282" on="0"/>
        <pt x="115" y="277" on="0"/>
        <pt x="89" y="270" on="1"/>
        <pt x="80" y="281" on="1"/>
        <pt x="80" y="576" on="1"/>
        <pt x="378" y="576" on="1"/>
        <pt x="378" y="504" on="1"/>
        <pt x="154" y="504" on="1"/>
        <pt x="154" y="352" on="1"/>
        <pt x="163" y="353" on="0"/>
        <pt x="187" y="354" on="0"/>
        <pt x="198" y="354" on="1"/>
        <pt x="250" y="354" on="0"/>
        <pt x="328" y="327" on="0"/>
        <pt x="379" y="280" on="0"/>
        <pt x="405" y="215" on="0"/>
      </contour>
    </TTGlyph>
    <TTGlyph name="five.den" xMin="38" yMin="-8" xMax="319" yMax="385">
      <contour>
        <pt x="155" y="-8" on="1"/>
        <pt x="126" y="-8" on="0"/>
        <pt x="66" y="3" on="0"/>
        <pt x="38" y="17" on="1"/>
        <pt x="56" y="75" on="1"/>
        <pt x="78" y="64" on="0"/>
        <pt x="127" y="52" on="0"/>
        <pt x="150" y="52" on="1"/>
        <pt x="196" y="52" on="0"/>
        <pt x="247" y="88" on="0"/>
        <pt x="247" y="121" on="1"/>
        <pt x="247" y="184" on="0"/>
        <pt x="154" y="184" on="1"/>
        <pt x="131" y="184" on="0"/>
        <pt x="92" y="174" on="0"/>
        <pt x="76" y="169" on="1"/>
        <pt x="57" y="180" on="1"/>
        <pt x="57" y="385" on="1"/>
        <pt x="298" y="385" on="1"/>
        <pt x="298" y="325" on="1"/>
        <pt x="122" y="325" on="1"/>
        <pt x="122" y="239" on="1"/>
        <pt x="132" y="241" on="0"/>
        <pt x="156" y="243" on="0"/>
        <pt x="168" y="243" on="1"/>
        <pt x="243" y="243" on="0"/>
        <pt x="319" y="176" on="0"/>
        <pt x="319" y="122" on="1"/>
        <pt x="319" y="64" on="0"/>
        <pt x="231" y="-8" on="0"/>
      </contour>
    </TTGlyph>
    <TTGlyph name="five.lin" xMin="68" yMin="-12" xMax="510" yMax="733">
      <contour>
        <pt x="510" y="219" on="1"/>
        <pt x="510" y="170" on="0"/>
        <pt x="474" y="85" on="0"/>
        <pt x="409" y="23" on="0"/>
        <pt x="316" y="-12" on="0"/>
        <pt x="259" y="-12" on="1"/>
        <pt x="208" y="-12" on="0"/>
        <pt x="116" y="5" on="0"/>
        <pt x="68" y="21" on="1"/>
        <pt x="97" y="92" on="1"/>
        <pt x="134" y="78" on="0"/>
        <pt x="209" y="60" on="0"/>
        <pt x="252" y="60" on="1"/>
        <pt x="297" y="60" on="0"/>
        <pt x="363" y="84" on="0"/>
        <pt x="408" y="126" on="0"/>
        <pt x="430" y="183" on="0"/>
        <pt x="430" y="216" on="1"/>
        <pt x="430" y="247" on="0"/>
        <pt x="406" y="305" on="0"/>
        <pt x="359" y="348" on="0"/>
        <pt x="289" y="374" on="0"/>
        <pt x="242" y="374" on="1"/>
        <pt x="228" y="374" on="0"/>
        <pt x="191" y="372" on="0"/>
        <pt x="154" y="367" on="0"/>
        <pt x="121" y="362" on="0"/>
        <pt x="109" y="359" on="1"/>
        <pt x="98" y="372" on="1"/>
        <pt x="98" y="733" on="1"/>
        <pt x="476" y="733" on="1"/>
        <pt x="476" y="661" on="1"/>
        <pt x="178" y="661" on="1"/>
        <pt x="178" y="439" on="1"/>
        <pt x="192" y="441" on="0"/>
        <pt x="232" y="445" on="0"/>
        <pt x="252" y="445" on="1"/>
        <pt x="315" y="445" on="0"/>
        <pt x="412" y="410" on="0"/>
        <pt x="477" y="348" on="0"/>
        <pt x="510" y="266" on="0"/>
      </contour>
    </TTGlyph>
    <TTGlyph name="five.num" xMin="38" yMin="340" xMax="319" yMax="733">
      <contour>
        <pt x="155" y="340" on="1"/>
        <pt x="126" y="340" on="0"/>
        <pt x="66" y="351" on="0"/>
        <pt x="38" y="365" on="1"/>
        <pt x="56" y="423" on="1"/>
        <pt x="78" y="412" on="0"/>
        <pt x="127" y="400" on="0"/>
        <pt x="150" y="400" on="1"/>
        <pt x="196" y="400" on="0"/>
        <pt x="247" y="436" on="0"/>
        <pt x="247" y="469" on="1"/>
        <pt x="247" y="532" on="0"/>
        <pt x="154" y="532" on="1"/>
        <pt x="131" y="532" on="0"/>
        <pt x="92" y="522" on="0"/>
        <pt x="76" y="517" on="1"/>
        <pt x="57" y="528" on="1"/>
        <pt x="57" y="733" on="1"/>
        <pt x="298" y="733" on="1"/>
        <pt x="298" y="673" on="1"/>
        <pt x="122" y="673" on="1"/>
        <pt x="122" y="587" on="1"/>
        <pt x="132" y="589" on="0"/>
        <pt x="156" y="591" on="0"/>
        <pt x="168" y="591" on="1"/>
        <pt x="243" y="591" on="0"/>
        <pt x="319" y="524" on="0"/>
        <pt x="319" y="470" on="1"/>
        <pt x="319" y="412" on="0"/>
        <pt x="231" y="340" on="0"/>
      </contour>
    </TTGlyph>
    <TTGlyph name="fiveeighths" xMin="38" yMin="-14" xMax="801" yMax="747">
      <component glyphName="five.num" x="0" y="0" flags="0x4"/>
      <component glyphName="fraction" x="350" y="0" flags="0x4"/>
      <component glyphName="eight.den" x="475" y="0" flags="0x4"/>
    </TTGlyph>
    <TTGlyph name="fivesixteenths" xMin="38" yMin="-14" xMax="1077" yMax="747">
      <component glyphName="five.num" x="0" y="0" flags="0x4"/>
      <component glyphName="fraction" x="350" y="0" flags="0x4"/>
      <component glyphName="one.den" x="475" y="0" flags="0x4"/>
      <component glyphName="six.den" x="749" y="0" flags="0x4"/>
    </TTGlyph>
    <TTGlyph name="fivesixths" xMin="53" yMin="-14" xMax="788" yMax="747">
      <component glyphName="five.num" x="15" y="0" flags="0x4"/>
      <component glyphName="fraction" x="365" y="0" flags="0x4"/>
      <component glyphName="six.den" x="460" y="0" flags="0x4"/>
    </TTGlyph>
    <TTGlyph name="fl" xMin="26" yMin="0" xMax="439" yMax="740">
      <contour>
        <pt x="308" y="663" on="1"/>
        <pt x="288" y="668" on="0"/>
        <pt x="269" y="668" on="1"/>
        <pt x="213" y="668" on="0"/>
        <pt x="169" y="615" on="0"/>
        <pt x="169" y="549" on="1"/>
        <pt x="169" y="420" on="1"/>
        <pt x="293" y="420" on="1"/>
        <pt x="293" y="352" on="1"/>
        <pt x="169" y="352" on="1"/>
        <pt x="169" y="0" on="1"/>
        <pt x="91" y="0" on="1"/>
        <pt x="91" y="352" on="1"/>
        <pt x="26" y="352" on="1"/>
        <pt x="26" y="362" on="1"/>
        <pt x="91" y="427" on="1"/>
        <pt x="91" y="538" on="1"/>
        <pt x="91" y="636" on="0"/>
        <pt x="172" y="740" on="0"/>
        <pt x="256" y="740" on="1"/>
        <pt x="275" y="740" on="0"/>
        <pt x="304" y="736" on="0"/>
        <pt x="321" y="731" on="1"/>
      </contour>
      <contour>
        <pt x="360" y="0" on="1"/>
        <pt x="360" y="733" on="1"/>
        <pt x="439" y="733" on="1"/>
        <pt x="439" y="0" on="1"/>
      </contour>
    </TTGlyph>
    <TTGlyph name="florin" xMin="56" yMin="0" xMax="382" yMax="586">
      <contour>
        <pt x="369" y="509" on="1"/>
        <pt x="360" y="511" on="0"/>
        <pt x="336" y="514" on="0"/>
        <pt x="327" y="514" on="1"/>
        <pt x="299" y="514" on="0"/>
        <pt x="260" y="502" on="0"/>
        <pt x="234" y="473" on="0"/>
        <pt x="218" y="428" on="0"/>
        <pt x="214" y="395" on="1"/>
        <pt x="208" y="343" on="1"/>
        <pt x="308" y="343" on="1"/>
        <pt x="308" y="275" on="1"/>
        <pt x="200" y="275" on="1"/>
        <pt x="169" y="0" on="1"/>
        <pt x="90" y="0" on="1"/>
        <pt x="99" y="76" on="0"/>
        <pt x="106" y="137" on="1"/>
        <pt x="109" y="163" on="0"/>
        <pt x="114" y="212" on="0"/>
        <pt x="116" y="232" on="1"/>
        <pt x="119" y="255" on="0"/>
        <pt x="121" y="275" on="1"/>
        <pt x="56" y="275" on="1"/>
        <pt x="57" y="282" on="1"/>
        <pt x="130" y="350" on="1"/>
        <pt x="134" y="384" on="1"/>
        <pt x="145" y="482" on="0"/>
        <pt x="238" y="586" on="0"/>
        <pt x="322" y="586" on="1"/>
        <pt x="341" y="586" on="0"/>
        <pt x="365" y="583" on="0"/>
        <pt x="382" y="578" on="1"/>
      </contour>
    </TTGlyph>
    <TTGlyph name="florin.lin" xMin="84" yMin="0" xMax="483" yMax="745">
      <contour>
        <pt x="463" y="665" on="1"/>
        <pt x="449" y="668" on="0"/>
        <pt x="419" y="673" on="0"/>
        <pt x="407" y="673" on="1"/>
        <pt x="369" y="673" on="0"/>
        <pt x="315" y="654" on="0"/>
        <pt x="278" y="612" on="0"/>
        <pt x="256" y="548" on="0"/>
        <pt x="251" y="503" on="1"/>
        <pt x="241" y="419" on="1"/>
        <pt x="390" y="419" on="1"/>
        <pt x="390" y="347" on="1"/>
        <pt x="233" y="347" on="1"/>
        <pt x="193" y="0" on="1"/>
        <pt x="114" y="0" on="1"/>
        <pt x="154" y="347" on="1"/>
        <pt x="84" y="347" on="1"/>
        <pt x="84" y="356" on="1"/>
        <pt x="162" y="420" on="1"/>
        <pt x="171" y="499" on="1"/>
        <pt x="185" y="617" on="0"/>
        <pt x="306" y="745" on="0"/>
        <pt x="403" y="745" on="1"/>
        <pt x="426" y="745" on="0"/>
        <pt x="466" y="738" on="0"/>
        <pt x="483" y="732" on="1"/>
      </contour>
    </TTGlyph>
    <TTGlyph name="four" xMin="22" yMin="-2" xMax="461" yMax="587">
      <contour>
        <pt x="365" y="173" on="1"/>
        <pt x="365" y="-2" on="1"/>
        <pt x="290" y="-2" on="1"/>
        <pt x="290" y="173" on="1"/>
        <pt x="22" y="173" on="1"/>
        <pt x="22" y="193" on="1"/>
        <pt x="345" y="587" on="1"/>
        <pt x="365" y="587" on="1"/>
        <pt x="365" y="244" on="1"/>
        <pt x="461" y="244" on="1"/>
        <pt x="461" y="173" on="1"/>
      </contour>
      <contour>
        <pt x="290" y="417" on="1"/>
        <pt x="148" y="244" on="1"/>
        <pt x="290" y="244" on="1"/>
      </contour>
    </TTGlyph>
    <TTGlyph name="four.den" xMin="13" yMin="0" xMax="338" yMax="403">
      <contour>
        <pt x="218" y="76" on="1"/>
        <pt x="13" y="76" on="1"/>
        <pt x="13" y="118" on="1"/>
        <pt x="234" y="403" on="1"/>
        <pt x="279" y="403" on="1"/>
        <pt x="279" y="129" on="1"/>
        <pt x="338" y="129" on="1"/>
        <pt x="338" y="76" on="1"/>
        <pt x="279" y="76" on="1"/>
        <pt x="279" y="0" on="1"/>
        <pt x="218" y="0" on="1"/>
      </contour>
      <contour>
        <pt x="218" y="129" on="1"/>
        <pt x="218" y="297" on="1"/>
        <pt x="89" y="129" on="1"/>
      </contour>
    </TTGlyph>
    <TTGlyph name="four.lin" xMin="28" yMin="0" xMax="585" yMax="744">
      <contour>
        <pt x="463" y="222" on="1"/>
        <pt x="463" y="0" on="1"/>
        <pt x="384" y="0" on="1"/>
        <pt x="384" y="222" on="1"/>
        <pt x="28" y="222" on="1"/>
        <pt x="28" y="244" on="1"/>
        <pt x="437" y="744" on="1"/>
        <pt x="463" y="744" on="1"/>
        <pt x="463" y="291" on="1"/>
        <pt x="585" y="291" on="1"/>
        <pt x="585" y="222" on="1"/>
      </contour>
      <contour>
        <pt x="384" y="576" on="1"/>
        <pt x="152" y="291" on="1"/>
        <pt x="384" y="291" on="1"/>
      </contour>
    </TTGlyph>
    <TTGlyph name="four.num" xMin="13" yMin="348" xMax="338" yMax="751">
      <contour>
        <pt x="218" y="424" on="1"/>
        <pt x="13" y="424" on="1"/>
        <pt x="13" y="466" on="1"/>
        <pt x="234" y="751" on="1"/>
        <pt x="279" y="751" on="1"/>
        <pt x="279" y="477" on="1"/>
        <pt x="338" y="477" on="1"/>
        <pt x="338" y="424" on="1"/>
        <pt x="279" y="424" on="1"/>
        <pt x="279" y="348" on="1"/>
        <pt x="218" y="348" on="1"/>
      </contour>
      <contour>
        <pt x="218" y="477" on="1"/>
        <pt x="218" y="645" on="1"/>
        <pt x="89" y="477" on="1"/>
      </contour>
    </TTGlyph>
    <TTGlyph name="fourfifths" xMin="13" yMin="-14" xMax="794" yMax="751">
      <component glyphName="four.num" x="0" y="0" flags="0x4"/>
      <component glyphName="fraction" x="350" y="0" flags="0x4"/>
      <component glyphName="five.den" x="475" y="0" flags="0x4"/>
    </TTGlyph>
    <TTGlyph name="fraction" xMin="-237" yMin="-14" xMax="362" yMax="747">
      <contour>
        <pt x="-237" y="24" on="1"/>
        <pt x="40" y="385" on="1"/>
        <pt x="310" y="747" on="1"/>
        <pt x="362" y="709" on="1"/>
        <pt x="85" y="348" on="1"/>
        <pt x="-186" y="-14" on="1"/>
      </contour>
    </TTGlyph>
    <TTGlyph name="g" xMin="40" yMin="-224" xMax="454" yMax="428">
      <contour>
        <pt x="454" y="-39" on="1"/>
        <pt x="454" y="-136" on="0"/>
        <pt x="357" y="-224" on="0"/>
        <pt x="276" y="-224" on="1"/>
        <pt x="213" y="-224" on="0"/>
        <pt x="135" y="-201" on="1"/>
        <pt x="146" y="-129" on="1"/>
        <pt x="179" y="-140" on="0"/>
        <pt x="240" y="-151" on="0"/>
        <pt x="264" y="-151" on="1"/>
        <pt x="322" y="-151" on="0"/>
        <pt x="375" y="-100" on="0"/>
        <pt x="375" y="-46" on="1"/>
        <pt x="375" y="36" on="1"/>
        <pt x="351" y="16" on="0"/>
        <pt x="285" y="-8" on="0"/>
        <pt x="245" y="-8" on="1"/>
        <pt x="200" y="-8" on="0"/>
        <pt x="124" y="23" on="0"/>
        <pt x="70" y="80" on="0"/>
        <pt x="40" y="159" on="0"/>
        <pt x="40" y="206" on="1"/>
        <pt x="40" y="252" on="0"/>
        <pt x="73" y="333" on="0"/>
        <pt x="130" y="393" on="0"/>
        <pt x="205" y="428" on="0"/>
        <pt x="247" y="428" on="1"/>
        <pt x="288" y="428" on="0"/>
        <pt x="357" y="402" on="0"/>
        <pt x="379" y="381" on="1"/>
        <pt x="379" y="420" on="1"/>
        <pt x="454" y="420" on="1"/>
      </contour>
      <contour>
        <pt x="375" y="305" on="1"/>
        <pt x="356" y="328" on="0"/>
        <pt x="293" y="362" on="0"/>
        <pt x="256" y="362" on="1"/>
        <pt x="225" y="362" on="0"/>
        <pt x="174" y="339" on="0"/>
        <pt x="138" y="297" on="0"/>
        <pt x="118" y="240" on="0"/>
        <pt x="118" y="206" on="1"/>
        <pt x="118" y="175" on="0"/>
        <pt x="137" y="120" on="0"/>
        <pt x="174" y="80" on="0"/>
        <pt x="228" y="56" on="0"/>
        <pt x="263" y="56" on="1"/>
        <pt x="296" y="56" on="0"/>
        <pt x="354" y="83" on="0"/>
        <pt x="375" y="108" on="1"/>
      </contour>
    </TTGlyph>
    <TTGlyph name="gbreve" xMin="40" yMin="-224" xMax="454" yMax="605">
      <component glyphName="g" x="0" y="0" flags="0x204"/>
      <component glyphName="breve" x="46" y="0" flags="0x4"/>
    </TTGlyph>
    <TTGlyph name="gcommaaccent" xMin="40" yMin="-224" xMax="454" yMax="710">
      <contour>
        <pt x="214" y="556" on="1"/>
        <pt x="214" y="574" on="0"/>
        <pt x="227" y="614" on="0"/>
        <pt x="252" y="655" on="0"/>
        <pt x="291" y="694" on="0"/>
        <pt x="318" y="710" on="1"/>
        <pt x="329" y="694" on="1"/>
        <pt x="301" y="670" on="0"/>
        <pt x="271" y="617" on="0"/>
        <pt x="265" y="595" on="1"/>
        <pt x="289" y="593" on="0"/>
        <pt x="317" y="564" on="0"/>
        <pt x="317" y="544" on="1"/>
        <pt x="317" y="524" on="0"/>
        <pt x="288" y="495" on="0"/>
        <pt x="268" y="495" on="1"/>
        <pt x="242" y="495" on="0"/>
        <pt x="214" y="531" on="0"/>
      </contour>
      <contour>
        <pt x="454" y="-39" on="1"/>
        <pt x="454" y="-136" on="0"/>
        <pt x="357" y="-224" on="0"/>
        <pt x="276" y="-224" on="1"/>
        <pt x="213" y="-224" on="0"/>
        <pt x="135" y="-201" on="1"/>
        <pt x="146" y="-129" on="1"/>
        <pt x="179" y="-140" on="0"/>
        <pt x="240" y="-151" on="0"/>
        <pt x="264" y="-151" on="1"/>
        <pt x="322" y="-151" on="0"/>
        <pt x="375" y="-100" on="0"/>
        <pt x="375" y="-46" on="1"/>
        <pt x="375" y="36" on="1"/>
        <pt x="351" y="16" on="0"/>
        <pt x="285" y="-8" on="0"/>
        <pt x="245" y="-8" on="1"/>
        <pt x="200" y="-8" on="0"/>
        <pt x="124" y="23" on="0"/>
        <pt x="70" y="80" on="0"/>
        <pt x="40" y="159" on="0"/>
        <pt x="40" y="206" on="1"/>
        <pt x="40" y="252" on="0"/>
        <pt x="73" y="333" on="0"/>
        <pt x="130" y="393" on="0"/>
        <pt x="205" y="428" on="0"/>
        <pt x="247" y="428" on="1"/>
        <pt x="288" y="428" on="0"/>
        <pt x="357" y="402" on="0"/>
        <pt x="379" y="381" on="1"/>
        <pt x="379" y="420" on="1"/>
        <pt x="454" y="420" on="1"/>
      </contour>
      <contour>
        <pt x="375" y="305" on="1"/>
        <pt x="356" y="328" on="0"/>
        <pt x="293" y="362" on="0"/>
        <pt x="256" y="362" on="1"/>
        <pt x="225" y="362" on="0"/>
        <pt x="174" y="339" on="0"/>
        <pt x="138" y="297" on="0"/>
        <pt x="118" y="240" on="0"/>
        <pt x="118" y="206" on="1"/>
        <pt x="118" y="175" on="0"/>
        <pt x="137" y="120" on="0"/>
        <pt x="174" y="80" on="0"/>
        <pt x="228" y="56" on="0"/>
        <pt x="263" y="56" on="1"/>
        <pt x="296" y="56" on="0"/>
        <pt x="354" y="83" on="0"/>
        <pt x="375" y="108" on="1"/>
      </contour>
    </TTGlyph>
    <TTGlyph name="gdotaccent" xMin="40" yMin="-224" xMax="454" yMax="595">
      <component glyphName="g" x="0" y="0" flags="0x204"/>
      <component glyphName="dotaccent" x="46" y="0" flags="0x4"/>
    </TTGlyph>
    <TTGlyph name="germandbls" xMin="65" yMin="-94" xMax="471" yMax="740">
      <contour>
        <pt x="334" y="223" on="1"/>
        <pt x="369" y="217" on="0"/>
        <pt x="417" y="189" on="0"/>
        <pt x="446" y="150" on="0"/>
        <pt x="459" y="102" on="0"/>
        <pt x="459" y="77" on="1"/>
        <pt x="459" y="32" on="0"/>
        <pt x="426" y="-33" on="0"/>
        <pt x="371" y="-75" on="0"/>
        <pt x="297" y="-94" on="0"/>
        <pt x="256" y="-94" on="1"/>
        <pt x="241" y="-94" on="0"/>
        <pt x="211" y="-91" on="0"/>
        <pt x="196" y="-89" on="1"/>
        <pt x="206" y="-21" on="1"/>
        <pt x="220" y="-23" on="0"/>
        <pt x="244" y="-25" on="0"/>
        <pt x="255" y="-25" on="1"/>
        <pt x="315" y="-25" on="0"/>
        <pt x="382" y="25" on="0"/>
        <pt x="382" y="73" on="1"/>
        <pt x="382" y="111" on="0"/>
        <pt x="328" y="164" on="0"/>
        <pt x="263" y="164" on="1"/>
        <pt x="255" y="164" on="0"/>
        <pt x="237" y="164" on="0"/>
        <pt x="227" y="162" on="1"/>
        <pt x="221" y="176" on="1"/>
        <pt x="346" y="352" on="1"/>
        <pt x="143" y="352" on="1"/>
        <pt x="143" y="0" on="1"/>
        <pt x="65" y="0" on="1"/>
        <pt x="65" y="538" on="1"/>
        <pt x="65" y="636" on="0"/>
        <pt x="146" y="740" on="0"/>
        <pt x="230" y="740" on="1"/>
        <pt x="249" y="740" on="0"/>
        <pt x="278" y="736" on="0"/>
        <pt x="295" y="731" on="1"/>
        <pt x="282" y="663" on="1"/>
        <pt x="262" y="668" on="0"/>
        <pt x="243" y="668" on="1"/>
        <pt x="187" y="668" on="0"/>
        <pt x="143" y="615" on="0"/>
        <pt x="143" y="549" on="1"/>
        <pt x="143" y="420" on="1"/>
        <pt x="466" y="420" on="1"/>
        <pt x="471" y="408" on="1"/>
      </contour>
    </TTGlyph>
    <TTGlyph name="grave" xMin="125" yMin="474" xMax="342" yMax="641">
      <contour>
        <pt x="316" y="474" on="1"/>
        <pt x="125" y="563" on="1"/>
        <pt x="167" y="641" on="1"/>
        <pt x="342" y="516" on="1"/>
      </contour>
    </TTGlyph>
    <TTGlyph name="greater" xMin="34" yMin="45" xMax="356" yMax="532">
      <contour>
        <pt x="81" y="45" on="1"/>
        <pt x="34" y="97" on="1"/>
        <pt x="252" y="291" on="1"/>
        <pt x="34" y="484" on="1"/>
        <pt x="81" y="532" on="1"/>
        <pt x="356" y="289" on="1"/>
      </contour>
    </TTGlyph>
    <TTGlyph name="greater.lin" xMin="34" yMin="128" xMax="356" yMax="615">
      <component glyphName="greater" x="0" y="83" flags="0x204"/>
    </TTGlyph>
    <TTGlyph name="guillemotleft" xMin="49" yMin="9" xMax="378" yMax="336">
      <contour>
        <pt x="299" y="9" on="1"/>
        <pt x="194" y="173" on="1"/>
        <pt x="299" y="336" on="1"/>
        <pt x="378" y="336" on="1"/>
        <pt x="268" y="173" on="1"/>
        <pt x="378" y="9" on="1"/>
      </contour>
      <contour>
        <pt x="154" y="9" on="1"/>
        <pt x="49" y="173" on="1"/>
        <pt x="154" y="336" on="1"/>
        <pt x="233" y="336" on="1"/>
        <pt x="123" y="173" on="1"/>
        <pt x="233" y="9" on="1"/>
      </contour>
    </TTGlyph>
    <TTGlyph name="guillemotleft.cap" xMin="49" yMin="207" xMax="378" yMax="534">
      <component glyphName="guillemotleft" x="0" y="198" flags="0x204"/>
    </TTGlyph>
    <TTGlyph name="guillemotright" xMin="45" yMin="9" xMax="374" yMax="336">
      <contour>
        <pt x="269" y="9" on="1"/>
        <pt x="190" y="9" on="1"/>
        <pt x="300" y="173" on="1"/>
        <pt x="190" y="336" on="1"/>
        <pt x="269" y="336" on="1"/>
        <pt x="374" y="173" on="1"/>
      </contour>
      <contour>
        <pt x="124" y="9" on="1"/>
        <pt x="45" y="9" on="1"/>
        <pt x="155" y="173" on="1"/>
        <pt x="45" y="336" on="1"/>
        <pt x="124" y="336" on="1"/>
        <pt x="229" y="173" on="1"/>
      </contour>
    </TTGlyph>
    <TTGlyph name="guillemotright.cap" xMin="45" yMin="207" xMax="374" yMax="534">
      <component glyphName="guillemotright" x="0" y="198" flags="0x204"/>
    </TTGlyph>
    <TTGlyph name="guilsinglleft" xMin="49" yMin="9" xMax="233" yMax="336">
      <contour>
        <pt x="154" y="9" on="1"/>
        <pt x="49" y="173" on="1"/>
        <pt x="154" y="336" on="1"/>
        <pt x="233" y="336" on="1"/>
        <pt x="123" y="173" on="1"/>
        <pt x="233" y="9" on="1"/>
      </contour>
    </TTGlyph>
    <TTGlyph name="guilsinglleft.cap" xMin="49" yMin="207" xMax="233" yMax="534">
      <component glyphName="guilsinglleft" x="0" y="198" flags="0x204"/>
    </TTGlyph>
    <TTGlyph name="guilsinglright" xMin="45" yMin="9" xMax="229" yMax="336">
      <contour>
        <pt x="124" y="9" on="1"/>
        <pt x="45" y="9" on="1"/>
        <pt x="155" y="173" on="1"/>
        <pt x="45" y="336" on="1"/>
        <pt x="124" y="336" on="1"/>
        <pt x="229" y="173" on="1"/>
      </contour>
    </TTGlyph>
    <TTGlyph name="guilsinglright.cap" xMin="45" yMin="207" xMax="229" yMax="534">
      <component glyphName="guilsinglright" x="0" y="198" flags="0x204"/>
    </TTGlyph>
    <TTGlyph name="h" xMin="56" yMin="0" xMax="433" yMax="733">
      <contour>
        <pt x="354" y="0" on="1"/>
        <pt x="354" y="264" on="1"/>
        <pt x="354" y="362" on="0"/>
        <pt x="266" y="362" on="1"/>
        <pt x="248" y="362" on="0"/>
        <pt x="212" y="351" on="0"/>
        <pt x="177" y="332" on="0"/>
        <pt x="147" y="307" on="0"/>
        <pt x="135" y="294" on="1"/>
        <pt x="135" y="0" on="1"/>
        <pt x="56" y="0" on="1"/>
        <pt x="56" y="733" on="1"/>
        <pt x="135" y="733" on="1"/>
        <pt x="135" y="357" on="1"/>
        <pt x="168" y="391" on="0"/>
        <pt x="244" y="428" on="0"/>
        <pt x="286" y="428" on="1"/>
        <pt x="359" y="428" on="0"/>
        <pt x="433" y="348" on="0"/>
        <pt x="433" y="285" on="1"/>
        <pt x="433" y="0" on="1"/>
      </contour>
    </TTGlyph>
    <TTGlyph name="hbar" xMin="0" yMin="0" xMax="433" yMax="733">
      <contour>
        <pt x="354" y="0" on="1"/>
        <pt x="354" y="264" on="1"/>
        <pt x="354" y="362" on="0"/>
        <pt x="266" y="362" on="1"/>
        <pt x="248" y="362" on="0"/>
        <pt x="212" y="351" on="0"/>
        <pt x="177" y="332" on="0"/>
        <pt x="147" y="307" on="0"/>
        <pt x="135" y="294" on="1"/>
        <pt x="135" y="0" on="1"/>
        <pt x="56" y="0" on="1"/>
        <pt x="56" y="561" on="1"/>
        <pt x="0" y="561" on="1"/>
        <pt x="0" y="626" on="1"/>
        <pt x="56" y="626" on="1"/>
        <pt x="56" y="733" on="1"/>
        <pt x="135" y="733" on="1"/>
        <pt x="135" y="626" on="1"/>
        <pt x="279" y="626" on="1"/>
        <pt x="279" y="561" on="1"/>
        <pt x="135" y="561" on="1"/>
        <pt x="135" y="357" on="1"/>
        <pt x="168" y="391" on="0"/>
        <pt x="244" y="428" on="0"/>
        <pt x="286" y="428" on="1"/>
        <pt x="359" y="428" on="0"/>
        <pt x="433" y="348" on="0"/>
        <pt x="433" y="285" on="1"/>
        <pt x="433" y="0" on="1"/>
      </contour>
    </TTGlyph>
</ttFont>
